<svg width="80" height="81" viewBox="0 0 80 81" fill="none" xmlns="http://www.w3.org/2000/svg">
<rect y="69" width="16" height="40" transform="rotate(-90 0 69)" fill="#5AB3F0" fill-opacity="0.3"/>
<rect y="39" width="12" height="40" transform="rotate(-90 0 39)" fill="#37BE5F" fill-opacity="0.3"/>
<path d="M58.7814 9V4.6L57.5094 5.544V4.392L59.0374 3.272H59.8294V9H58.7814ZM63.2036 9.128C62.841 9.128 62.5183 9.056 62.2356 8.912C61.953 8.768 61.713 8.56533 61.5156 8.304C61.3236 8.03733 61.177 7.72 61.0756 7.352C60.9743 6.984 60.9236 6.576 60.9236 6.128C60.9236 5.69067 60.9743 5.288 61.0756 4.92C61.177 4.552 61.3236 4.23733 61.5156 3.976C61.713 3.70933 61.953 3.504 62.2356 3.36C62.5183 3.216 62.841 3.144 63.2036 3.144C63.5663 3.144 63.889 3.216 64.1716 3.36C64.4543 3.504 64.6916 3.70933 64.8836 3.976C65.081 4.23733 65.2303 4.552 65.3316 4.92C65.433 5.288 65.4836 5.69067 65.4836 6.128C65.4836 6.576 65.433 6.984 65.3316 7.352C65.2303 7.72 65.081 8.03733 64.8836 8.304C64.6916 8.56533 64.4543 8.768 64.1716 8.912C63.889 9.056 63.5663 9.128 63.2036 9.128ZM63.1956 8.152C63.4623 8.152 63.6863 8.07467 63.8676 7.92C64.0543 7.76533 64.1956 7.53867 64.2916 7.24C64.3876 6.936 64.4356 6.568 64.4356 6.136C64.4356 5.69867 64.3876 5.33067 64.2916 5.032C64.1956 4.73333 64.0543 4.50667 63.8676 4.352C63.6863 4.19733 63.4623 4.12 63.1956 4.12C62.9343 4.12 62.7103 4.19733 62.5236 4.352C62.3423 4.50667 62.2036 4.73333 62.1076 5.032C62.017 5.33067 61.9716 5.69867 61.9716 6.136C61.9716 6.568 62.017 6.936 62.1076 7.24C62.2036 7.53867 62.3423 7.76533 62.5236 7.92C62.7103 8.07467 62.9343 8.152 63.1956 8.152Z" fill="#8430CE"/>
<path d="M59.1095 36V31.6L57.8375 32.544V31.392L59.3655 30.272H60.1575V36H59.1095ZM61.4339 36V35.04C61.6365 34.88 61.8232 34.7307 61.9939 34.592C62.1699 34.448 62.3299 34.3147 62.4739 34.192C62.6232 34.064 62.7592 33.944 62.8819 33.832C63.0045 33.72 63.1139 33.6133 63.2099 33.512C63.3112 33.4107 63.3992 33.312 63.4739 33.216C63.5912 33.0667 63.6845 32.9227 63.7539 32.784C63.8232 32.6453 63.8739 32.504 63.9059 32.36C63.9379 32.216 63.9539 32.0667 63.9539 31.912C63.9539 31.752 63.9192 31.6133 63.8499 31.496C63.7805 31.3787 63.6845 31.288 63.5619 31.224C63.4445 31.1547 63.3059 31.12 63.1459 31.12C62.9912 31.12 62.8525 31.152 62.7299 31.216C62.6125 31.28 62.5165 31.3733 62.4419 31.496C62.3672 31.6133 62.3139 31.76 62.2819 31.936L61.2979 31.848C61.3192 31.608 61.3779 31.384 61.4739 31.176C61.5699 30.968 61.6979 30.7867 61.8579 30.632C62.0179 30.4773 62.2072 30.3573 62.4259 30.272C62.6445 30.1867 62.8899 30.144 63.1619 30.144C63.5512 30.144 63.8819 30.2133 64.1539 30.352C64.4312 30.4853 64.6419 30.68 64.7859 30.936C64.9352 31.192 65.0099 31.5013 65.0099 31.864C65.0099 32.104 64.9779 32.336 64.9139 32.56C64.8552 32.7787 64.7699 32.9893 64.6579 33.192C64.5512 33.3893 64.4232 33.5813 64.2739 33.768C64.1992 33.864 64.1192 33.9573 64.0339 34.048C63.9485 34.1387 63.8579 34.2293 63.7619 34.32C63.6712 34.4053 63.5779 34.4907 63.4819 34.576C63.3859 34.656 63.2872 34.736 63.1859 34.816C63.0845 34.896 62.9832 34.9733 62.8819 35.048L62.9059 35.088H65.1539V36H61.4339Z" fill="#8430CE"/>
<path d="M59.1056 64V59.6L57.8336 60.544V59.392L59.3616 58.272H60.1536V64H59.1056ZM63.2869 64.128C62.9616 64.128 62.6709 64.0693 62.4149 63.952C62.1589 63.8347 61.9376 63.6693 61.7509 63.456C61.5856 63.264 61.4576 63.0347 61.3669 62.768C61.2816 62.496 61.2389 62.1973 61.2389 61.872C61.2389 61.5147 61.2842 61.168 61.3749 60.832C61.4656 60.496 61.6016 60.1787 61.7829 59.88C61.9269 59.6347 62.0976 59.4053 62.2949 59.192C62.4922 58.9787 62.7136 58.784 62.9589 58.608C63.2096 58.4267 63.4842 58.2693 63.7829 58.136L64.3109 58.952C64.0869 59.0533 63.8736 59.1707 63.6709 59.304C63.4736 59.432 63.2896 59.576 63.1189 59.736C62.9482 59.896 62.7989 60.072 62.6709 60.264C62.5429 60.4507 62.4389 60.6533 62.3589 60.872L62.4069 60.912C62.5082 60.7573 62.6576 60.64 62.8549 60.56C63.0522 60.48 63.2469 60.44 63.4389 60.44C63.7002 60.44 63.9376 60.4827 64.1509 60.568C64.3696 60.6533 64.5589 60.776 64.7189 60.936C64.8789 61.0907 65.0016 61.28 65.0869 61.504C65.1776 61.7227 65.2229 61.968 65.2229 62.24C65.2229 62.6027 65.1322 62.928 64.9509 63.216C64.7749 63.4987 64.5402 63.7227 64.2469 63.888C63.9536 64.048 63.6336 64.128 63.2869 64.128ZM63.2869 63.168C63.4576 63.168 63.6096 63.1307 63.7429 63.056C63.8762 62.9813 63.9829 62.8747 64.0629 62.736C64.1429 62.5973 64.1829 62.432 64.1829 62.24C64.1829 62.048 64.1429 61.8827 64.0629 61.744C63.9829 61.6053 63.8762 61.5013 63.7429 61.432C63.6096 61.3573 63.4576 61.32 63.2869 61.32C63.1216 61.32 62.9696 61.3573 62.8309 61.432C62.6976 61.5013 62.5909 61.6053 62.5109 61.744C62.4309 61.8827 62.3909 62.048 62.3909 62.24C62.3909 62.432 62.4309 62.5973 62.5109 62.736C62.5909 62.8747 62.6976 62.9813 62.8309 63.056C62.9696 63.1307 63.1216 63.168 63.2869 63.168Z" fill="#8430CE"/>
<path d="M44 1H54" stroke="#8430CE"/>
<path d="M49 1L49 11" stroke="#8430CE"/>
<path d="M44 11H54" stroke="#8430CE"/>
<path d="M44 27H54" stroke="#8430CE"/>
<path d="M49 27L49 39" stroke="#8430CE"/>
<path d="M44 39H54" stroke="#8430CE"/>
<path d="M44 53H54" stroke="#8430CE"/>
<path d="M49 53L49 69" stroke="#8430CE"/>
<path d="M44 69H54" stroke="#8430CE"/>
<rect width="10" height="40" transform="matrix(2.87299e-08 1 1 -6.65052e-08 0 1)" fill="#F29900" fill-opacity="0.3"/>
</svg>
