<svg width="230" height="270" viewBox="0 0 230 270" fill="none" xmlns="http://www.w3.org/2000/svg">
<rect x="26" y="70" width="181" height="40" rx="20" fill="white"/>
<g clip-path="url(#clip0_819_5513)">
<path d="M57.6 90.2271C57.6 89.518 57.5364 88.8362 57.4182 88.1816H48V92.0498H53.3818C53.15 93.2998 52.4455 94.3589 51.3864 95.068V97.5771H54.6182C56.5091 95.8362 57.6 93.2726 57.6 90.2271V90.2271Z" fill="#4285F4"/>
<path d="M48 100C50.7 100 52.9637 99.1049 54.6182 97.5777L51.3864 95.0686C50.4909 95.6686 49.3455 96.0231 48 96.0231C45.3955 96.0231 43.1909 94.264 42.4046 91.9004H39.0637V94.4913C40.7091 97.7595 44.0909 100 48 100Z" fill="#34A853"/>
<path d="M42.4045 91.8997C42.2045 91.2997 42.0909 90.6588 42.0909 89.9997C42.0909 89.3406 42.2045 88.6997 42.4045 88.0997V85.5088H39.0636C38.3864 86.8588 38 88.3861 38 89.9997C38 91.6133 38.3864 93.1406 39.0636 94.4906L42.4045 91.8997V91.8997Z" fill="#FBBC05"/>
<path d="M48 83.9773C49.4682 83.9773 50.7864 84.4818 51.8228 85.4727L54.6909 82.6045C52.9591 80.9909 50.6955 80 48 80C44.0909 80 40.7091 82.2409 39.0637 85.5091L42.4046 88.1C43.1909 85.7364 45.3955 83.9773 48 83.9773Z" fill="#EA4335"/>
</g>
<path d="M72.396 95.224C71.7147 95.224 71.108 95.1073 70.576 94.874C70.044 94.6407 69.6053 94.2953 69.26 93.838C68.924 93.3807 68.6953 92.8207 68.574 92.158L70.114 91.822C70.2167 92.4007 70.4593 92.872 70.842 93.236C71.2247 93.5907 71.7473 93.768 72.41 93.768C72.8113 93.768 73.1613 93.7073 73.46 93.586C73.768 93.4647 74.006 93.292 74.174 93.068C74.342 92.8347 74.426 92.5687 74.426 92.27C74.426 91.9527 74.3513 91.6913 74.202 91.486C74.062 91.2807 73.8333 91.1033 73.516 90.954C73.208 90.7953 72.7973 90.6413 72.284 90.492L71.542 90.254C71.2247 90.1607 70.912 90.044 70.604 89.904C70.296 89.764 70.016 89.5867 69.764 89.372C69.512 89.1573 69.3113 88.896 69.162 88.588C69.0127 88.28 68.938 87.916 68.938 87.496C68.938 86.9827 69.0733 86.5207 69.344 86.11C69.6147 85.69 69.9973 85.3587 70.492 85.116C70.996 84.8733 71.5933 84.752 72.284 84.752C72.984 84.752 73.5767 84.8687 74.062 85.102C74.5473 85.3353 74.9253 85.6573 75.196 86.068C75.476 86.4693 75.6487 86.9267 75.714 87.44L74.258 87.664C74.202 87.3653 74.09 87.104 73.922 86.88C73.754 86.656 73.5347 86.4833 73.264 86.362C73.0027 86.2407 72.6807 86.18 72.298 86.18C71.9433 86.18 71.626 86.236 71.346 86.348C71.066 86.4507 70.8467 86.5953 70.688 86.782C70.5293 86.9687 70.45 87.188 70.45 87.44C70.45 87.8133 70.6133 88.1213 70.94 88.364C71.2667 88.5973 71.752 88.812 72.396 89.008L73.124 89.232C73.516 89.3533 73.88 89.4933 74.216 89.652C74.5613 89.8107 74.86 90.0067 75.112 90.24C75.3733 90.4733 75.5787 90.7533 75.728 91.08C75.8773 91.3973 75.952 91.7847 75.952 92.242C75.952 92.7273 75.8587 93.1567 75.672 93.53C75.4853 93.9033 75.224 94.216 74.888 94.468C74.5613 94.72 74.1833 94.9067 73.754 95.028C73.3247 95.1587 72.872 95.224 72.396 95.224ZM77.649 95V87.636H79.147V95H77.649ZM78.405 86.11C78.125 86.11 77.8823 86.012 77.677 85.816C77.481 85.6107 77.383 85.368 77.383 85.088C77.383 84.7987 77.481 84.556 77.677 84.36C77.8823 84.164 78.125 84.066 78.405 84.066C78.685 84.066 78.923 84.164 79.119 84.36C79.3243 84.556 79.427 84.7987 79.427 85.088C79.427 85.368 79.3243 85.6107 79.119 85.816C78.923 86.012 78.685 86.11 78.405 86.11ZM84.1316 98.248C83.5343 98.248 83.0069 98.1453 82.5496 97.94C82.0923 97.744 81.7236 97.4733 81.4436 97.128C81.1636 96.7827 80.9769 96.4 80.8836 95.98L82.3396 95.644C82.4516 96.008 82.6569 96.3067 82.9556 96.54C83.2543 96.7827 83.6463 96.904 84.1316 96.904C84.7943 96.904 85.2936 96.7033 85.6296 96.302C85.9656 95.9007 86.1336 95.3453 86.1336 94.636V93.796H86.0496C85.8069 94.16 85.5036 94.4447 85.1396 94.65C84.7849 94.846 84.3276 94.944 83.7676 94.944C83.2076 94.944 82.6896 94.7993 82.2136 94.51C81.7469 94.2113 81.3689 93.782 81.0796 93.222C80.7903 92.662 80.6456 91.9807 80.6456 91.178C80.6456 90.3753 80.7903 89.694 81.0796 89.134C81.3689 88.574 81.7516 88.1493 82.2276 87.86C82.7129 87.5613 83.2403 87.412 83.8096 87.412C84.3229 87.412 84.7709 87.51 85.1536 87.706C85.5363 87.902 85.8349 88.1727 86.0496 88.518H86.1336V87.636H87.5616V94.608C87.5616 95.392 87.4216 96.0547 87.1416 96.596C86.8616 97.1467 86.4649 97.5573 85.9516 97.828C85.4383 98.108 84.8316 98.248 84.1316 98.248ZM84.1456 93.572C84.5096 93.572 84.8409 93.4833 85.1396 93.306C85.4383 93.1287 85.6763 92.8627 85.8536 92.508C86.0403 92.1533 86.1336 91.71 86.1336 91.178C86.1336 90.646 86.0403 90.2027 85.8536 89.848C85.6763 89.4933 85.4383 89.2273 85.1396 89.05C84.8409 88.8727 84.5096 88.784 84.1456 88.784C83.7816 88.784 83.4456 88.8727 83.1376 89.05C82.8389 89.2273 82.5963 89.4933 82.4096 89.848C82.2323 90.2027 82.1436 90.646 82.1436 91.178C82.1436 91.71 82.2323 92.1533 82.4096 92.508C82.5963 92.8627 82.8389 93.1287 83.1376 93.306C83.4456 93.4833 83.7816 93.572 84.1456 93.572ZM89.5298 95V87.636H90.9438V88.574H91.0278C91.2238 88.2287 91.5131 87.9487 91.8958 87.734C92.2878 87.5193 92.7265 87.412 93.2118 87.412C94.0518 87.412 94.6911 87.6593 95.1298 88.154C95.5778 88.6487 95.8018 89.3347 95.8018 90.212V95H94.2898V90.408C94.2898 89.8573 94.1498 89.4513 93.8698 89.19C93.5991 88.9287 93.2445 88.798 92.8058 88.798C92.4418 88.798 92.1245 88.8913 91.8538 89.078C91.5925 89.2553 91.3871 89.498 91.2378 89.806C91.0978 90.1047 91.0278 90.4407 91.0278 90.814V95H89.5298ZM101.356 95V87.636H102.854V95H101.356ZM102.112 86.11C101.832 86.11 101.589 86.012 101.384 85.816C101.188 85.6107 101.09 85.368 101.09 85.088C101.09 84.7987 101.188 84.556 101.384 84.36C101.589 84.164 101.832 84.066 102.112 84.066C102.392 84.066 102.63 84.164 102.826 84.36C103.031 84.556 103.134 84.7987 103.134 85.088C103.134 85.368 103.031 85.6107 102.826 85.816C102.63 86.012 102.392 86.11 102.112 86.11ZM104.897 95V87.636H106.311V88.574H106.395C106.591 88.2287 106.88 87.9487 107.263 87.734C107.655 87.5193 108.094 87.412 108.579 87.412C109.419 87.412 110.058 87.6593 110.497 88.154C110.945 88.6487 111.169 89.3347 111.169 90.212V95H109.657V90.408C109.657 89.8573 109.517 89.4513 109.237 89.19C108.966 88.9287 108.612 88.798 108.173 88.798C107.809 88.798 107.492 88.8913 107.221 89.078C106.96 89.2553 106.754 89.498 106.605 89.806C106.465 90.1047 106.395 90.4407 106.395 90.814V95H104.897ZM118.011 95L115.897 87.636H117.507L118.823 92.872H118.879L120.363 87.636H121.889L123.373 92.858H123.429L124.745 87.636H126.327L124.199 95H122.631L121.119 89.652H121.063L119.565 95H118.011ZM127.551 95V87.636H129.049V95H127.551ZM128.307 86.11C128.027 86.11 127.785 86.012 127.579 85.816C127.383 85.6107 127.285 85.368 127.285 85.088C127.285 84.7987 127.383 84.556 127.579 84.36C127.785 84.164 128.027 84.066 128.307 84.066C128.587 84.066 128.825 84.164 129.021 84.36C129.227 84.556 129.329 84.7987 129.329 85.088C129.329 85.368 129.227 85.6107 129.021 85.816C128.825 86.012 128.587 86.11 128.307 86.11ZM130.45 87.636H131.64V85.62H133.138V87.636H134.818V88.952H133.138V92.662C133.138 92.998 133.213 93.2547 133.362 93.432C133.511 93.6093 133.74 93.698 134.048 93.698C134.216 93.698 134.361 93.6793 134.482 93.642C134.603 93.5953 134.725 93.5347 134.846 93.46V94.916C134.697 94.972 134.533 95.0187 134.356 95.056C134.188 95.0933 133.987 95.112 133.754 95.112C133.11 95.112 132.597 94.9207 132.214 94.538C131.831 94.146 131.64 93.6093 131.64 92.928V88.952H130.45V87.636ZM136.506 95V84.136H138.004V87.524L137.92 88.63H138.004C138.191 88.2847 138.49 87.9953 138.9 87.762C139.311 87.5287 139.768 87.412 140.272 87.412C140.86 87.412 141.346 87.5287 141.728 87.762C142.12 87.9953 142.419 88.322 142.624 88.742C142.83 89.162 142.932 89.652 142.932 90.212V95H141.434V90.408C141.434 90.0627 141.369 89.7733 141.238 89.54C141.117 89.2973 140.94 89.1153 140.706 88.994C140.473 88.8633 140.193 88.798 139.866 88.798C139.502 88.798 139.18 88.896 138.9 89.092C138.62 89.2787 138.401 89.5353 138.242 89.862C138.084 90.1793 138.004 90.5387 138.004 90.94V95H136.506ZM152.41 95.224C151.747 95.224 151.14 95.1027 150.59 94.86C150.048 94.608 149.572 94.2487 149.162 93.782C148.76 93.3153 148.448 92.7647 148.224 92.13C148.009 91.486 147.902 90.772 147.902 89.988C147.902 89.204 148.018 88.4947 148.252 87.86C148.485 87.216 148.812 86.6607 149.232 86.194C149.652 85.7273 150.146 85.3727 150.716 85.13C151.285 84.878 151.906 84.752 152.578 84.752C153.67 84.752 154.584 85.004 155.322 85.508C156.068 86.012 156.54 86.7167 156.736 87.622L155.266 88.014C155.154 87.6407 154.981 87.3187 154.748 87.048C154.514 86.7773 154.211 86.572 153.838 86.432C153.474 86.2827 153.054 86.208 152.578 86.208C152.148 86.208 151.742 86.292 151.36 86.46C150.986 86.6187 150.655 86.8567 150.366 87.174C150.086 87.4913 149.862 87.888 149.694 88.364C149.535 88.8307 149.456 89.372 149.456 89.988C149.456 90.604 149.535 91.1453 149.694 91.612C149.852 92.0787 150.072 92.4753 150.352 92.802C150.632 93.1193 150.954 93.362 151.318 93.53C151.691 93.6887 152.088 93.768 152.508 93.768C152.937 93.768 153.32 93.7027 153.656 93.572C154.001 93.4413 154.295 93.2593 154.538 93.026C154.79 92.7833 154.99 92.5033 155.14 92.186C155.289 91.8593 155.387 91.5093 155.434 91.136H152.55V89.792H156.918V95H155.504V93.6H155.419C155.289 93.8427 155.126 94.062 154.93 94.258C154.734 94.454 154.51 94.6267 154.257 94.776C154.006 94.916 153.726 95.0233 153.418 95.098C153.11 95.182 152.774 95.224 152.41 95.224ZM161.942 95.224C161.205 95.224 160.566 95.0607 160.024 94.734C159.483 94.398 159.063 93.936 158.764 93.348C158.475 92.76 158.33 92.0833 158.33 91.318C158.33 90.5433 158.475 89.8667 158.764 89.288C159.063 88.7 159.483 88.2427 160.024 87.916C160.566 87.58 161.205 87.412 161.942 87.412C162.689 87.412 163.328 87.58 163.86 87.916C164.402 88.2427 164.817 88.7 165.106 89.288C165.405 89.8667 165.554 90.5433 165.554 91.318C165.554 92.0833 165.405 92.76 165.106 93.348C164.817 93.936 164.402 94.398 163.86 94.734C163.328 95.0607 162.689 95.224 161.942 95.224ZM161.942 93.838C162.362 93.838 162.731 93.74 163.048 93.544C163.366 93.348 163.613 93.0633 163.79 92.69C163.968 92.3073 164.056 91.85 164.056 91.318C164.056 90.7767 163.968 90.3193 163.79 89.946C163.613 89.5727 163.366 89.288 163.048 89.092C162.731 88.896 162.367 88.798 161.956 88.798C161.536 88.798 161.168 88.896 160.85 89.092C160.533 89.288 160.281 89.5727 160.094 89.946C159.917 90.3193 159.828 90.7767 159.828 91.318C159.828 91.8593 159.917 92.3167 160.094 92.69C160.281 93.0633 160.533 93.348 160.85 93.544C161.177 93.74 161.541 93.838 161.942 93.838ZM170.337 95.224C169.599 95.224 168.96 95.0607 168.419 94.734C167.877 94.398 167.457 93.936 167.159 93.348C166.869 92.76 166.725 92.0833 166.725 91.318C166.725 90.5433 166.869 89.8667 167.159 89.288C167.457 88.7 167.877 88.2427 168.419 87.916C168.96 87.58 169.599 87.412 170.337 87.412C171.083 87.412 171.723 87.58 172.255 87.916C172.796 88.2427 173.211 88.7 173.501 89.288C173.799 89.8667 173.949 90.5433 173.949 91.318C173.949 92.0833 173.799 92.76 173.501 93.348C173.211 93.936 172.796 94.398 172.255 94.734C171.723 95.0607 171.083 95.224 170.337 95.224ZM170.337 93.838C170.757 93.838 171.125 93.74 171.443 93.544C171.76 93.348 172.007 93.0633 172.185 92.69C172.362 92.3073 172.451 91.85 172.451 91.318C172.451 90.7767 172.362 90.3193 172.185 89.946C172.007 89.5727 171.76 89.288 171.443 89.092C171.125 88.896 170.761 88.798 170.351 88.798C169.931 88.798 169.562 88.896 169.245 89.092C168.927 89.288 168.675 89.5727 168.489 89.946C168.311 90.3193 168.223 90.7767 168.223 91.318C168.223 91.8593 168.311 92.3167 168.489 92.69C168.675 93.0633 168.927 93.348 169.245 93.544C169.571 93.74 169.935 93.838 170.337 93.838ZM178.563 98.248C177.966 98.248 177.439 98.1453 176.981 97.94C176.524 97.744 176.155 97.4733 175.875 97.128C175.595 96.7827 175.409 96.4 175.315 95.98L176.771 95.644C176.883 96.008 177.089 96.3067 177.387 96.54C177.686 96.7827 178.078 96.904 178.563 96.904C179.226 96.904 179.725 96.7033 180.061 96.302C180.397 95.9007 180.565 95.3453 180.565 94.636V93.796H180.481C180.239 94.16 179.935 94.4447 179.571 94.65C179.217 94.846 178.759 94.944 178.199 94.944C177.639 94.944 177.121 94.7993 176.645 94.51C176.179 94.2113 175.801 93.782 175.511 93.222C175.222 92.662 175.077 91.9807 175.077 91.178C175.077 90.3753 175.222 89.694 175.511 89.134C175.801 88.574 176.183 88.1493 176.659 87.86C177.145 87.5613 177.672 87.412 178.241 87.412C178.755 87.412 179.203 87.51 179.585 87.706C179.968 87.902 180.267 88.1727 180.481 88.518H180.565V87.636H181.993V94.608C181.993 95.392 181.853 96.0547 181.573 96.596C181.293 97.1467 180.897 97.5573 180.383 97.828C179.87 98.108 179.263 98.248 178.563 98.248ZM178.577 93.572C178.941 93.572 179.273 93.4833 179.571 93.306C179.87 93.1287 180.108 92.8627 180.285 92.508C180.472 92.1533 180.565 91.71 180.565 91.178C180.565 90.646 180.472 90.2027 180.285 89.848C180.108 89.4933 179.87 89.2273 179.571 89.05C179.273 88.8727 178.941 88.784 178.577 88.784C178.213 88.784 177.877 88.8727 177.569 89.05C177.271 89.2273 177.028 89.4933 176.841 89.848C176.664 90.2027 176.575 90.646 176.575 91.178C176.575 91.71 176.664 92.1533 176.841 92.508C177.028 92.8627 177.271 93.1287 177.569 93.306C177.877 93.4833 178.213 93.572 178.577 93.572ZM183.961 95V84.136H185.473V95H183.961ZM190.514 95.224C189.804 95.224 189.184 95.0607 188.652 94.734C188.129 94.398 187.723 93.936 187.434 93.348C187.154 92.76 187.014 92.088 187.014 91.332C187.014 90.548 187.163 89.862 187.462 89.274C187.76 88.686 188.171 88.2287 188.694 87.902C189.226 87.5753 189.832 87.412 190.514 87.412C191.26 87.412 191.881 87.552 192.376 87.832C192.88 88.112 193.258 88.5133 193.51 89.036C193.771 89.5587 193.902 90.184 193.902 90.912C193.902 91.0427 193.897 91.1733 193.888 91.304C193.888 91.4253 193.878 91.5373 193.86 91.64H188.484C188.512 92.06 188.596 92.424 188.736 92.732C188.913 93.1053 189.16 93.39 189.478 93.586C189.795 93.782 190.159 93.88 190.57 93.88C191.083 93.88 191.48 93.768 191.76 93.544C192.049 93.3107 192.259 93.0213 192.39 92.676L193.706 93.026C193.519 93.6607 193.164 94.188 192.642 94.608C192.119 95.0187 191.41 95.224 190.514 95.224ZM188.54 90.506H192.418C192.399 90.226 192.348 89.974 192.264 89.75C192.18 89.526 192.058 89.3347 191.9 89.176C191.741 89.0173 191.545 88.896 191.312 88.812C191.088 88.728 190.826 88.686 190.528 88.686C190.126 88.686 189.767 88.7887 189.45 88.994C189.142 89.19 188.904 89.484 188.736 89.876C188.652 90.0627 188.586 90.2727 188.54 90.506Z" fill="#1F1F1F"/>
<rect x="26.5" y="70.5" width="180" height="39" rx="19.5" stroke="black" stroke-opacity="0.1"/>
<g clip-path="url(#clip1_819_5513)">
<path d="M57.6 160.227C57.6 159.518 57.5364 158.836 57.4182 158.182H48V162.05H53.3818C53.15 163.3 52.4455 164.359 51.3864 165.068V167.577H54.6182C56.5091 165.836 57.6 163.273 57.6 160.227V160.227Z" fill="#4285F4"/>
<path d="M48 170C50.7 170 52.9637 169.105 54.6182 167.578L51.3864 165.069C50.4909 165.669 49.3455 166.023 48 166.023C45.3955 166.023 43.1909 164.264 42.4046 161.9H39.0637V164.491C40.7091 167.759 44.0909 170 48 170Z" fill="#34A853"/>
<path d="M42.4045 161.9C42.2045 161.3 42.0909 160.659 42.0909 160C42.0909 159.341 42.2045 158.7 42.4045 158.1V155.509H39.0636C38.3864 156.859 38 158.386 38 160C38 161.613 38.3864 163.141 39.0636 164.491L42.4045 161.9V161.9Z" fill="#FBBC05"/>
<path d="M48 153.977C49.4682 153.977 50.7864 154.482 51.8228 155.473L54.6909 152.605C52.9591 150.991 50.6955 150 48 150C44.0909 150 40.7091 152.241 39.0637 155.509L42.4046 158.1C43.1909 155.736 45.3955 153.977 48 153.977Z" fill="#EA4335"/>
</g>
<path d="M72.396 165.224C71.7147 165.224 71.108 165.107 70.576 164.874C70.044 164.641 69.6053 164.295 69.26 163.838C68.924 163.381 68.6953 162.821 68.574 162.158L70.114 161.822C70.2167 162.401 70.4593 162.872 70.842 163.236C71.2247 163.591 71.7473 163.768 72.41 163.768C72.8113 163.768 73.1613 163.707 73.46 163.586C73.768 163.465 74.006 163.292 74.174 163.068C74.342 162.835 74.426 162.569 74.426 162.27C74.426 161.953 74.3513 161.691 74.202 161.486C74.062 161.281 73.8333 161.103 73.516 160.954C73.208 160.795 72.7973 160.641 72.284 160.492L71.542 160.254C71.2247 160.161 70.912 160.044 70.604 159.904C70.296 159.764 70.016 159.587 69.764 159.372C69.512 159.157 69.3113 158.896 69.162 158.588C69.0127 158.28 68.938 157.916 68.938 157.496C68.938 156.983 69.0733 156.521 69.344 156.11C69.6147 155.69 69.9973 155.359 70.492 155.116C70.996 154.873 71.5933 154.752 72.284 154.752C72.984 154.752 73.5767 154.869 74.062 155.102C74.5473 155.335 74.9253 155.657 75.196 156.068C75.476 156.469 75.6487 156.927 75.714 157.44L74.258 157.664C74.202 157.365 74.09 157.104 73.922 156.88C73.754 156.656 73.5347 156.483 73.264 156.362C73.0027 156.241 72.6807 156.18 72.298 156.18C71.9433 156.18 71.626 156.236 71.346 156.348C71.066 156.451 70.8467 156.595 70.688 156.782C70.5293 156.969 70.45 157.188 70.45 157.44C70.45 157.813 70.6133 158.121 70.94 158.364C71.2667 158.597 71.752 158.812 72.396 159.008L73.124 159.232C73.516 159.353 73.88 159.493 74.216 159.652C74.5613 159.811 74.86 160.007 75.112 160.24C75.3733 160.473 75.5787 160.753 75.728 161.08C75.8773 161.397 75.952 161.785 75.952 162.242C75.952 162.727 75.8587 163.157 75.672 163.53C75.4853 163.903 75.224 164.216 74.888 164.468C74.5613 164.72 74.1833 164.907 73.754 165.028C73.3247 165.159 72.872 165.224 72.396 165.224ZM77.649 165V157.636H79.147V165H77.649ZM78.405 156.11C78.125 156.11 77.8823 156.012 77.677 155.816C77.481 155.611 77.383 155.368 77.383 155.088C77.383 154.799 77.481 154.556 77.677 154.36C77.8823 154.164 78.125 154.066 78.405 154.066C78.685 154.066 78.923 154.164 79.119 154.36C79.3243 154.556 79.427 154.799 79.427 155.088C79.427 155.368 79.3243 155.611 79.119 155.816C78.923 156.012 78.685 156.11 78.405 156.11ZM84.1316 168.248C83.5343 168.248 83.0069 168.145 82.5496 167.94C82.0923 167.744 81.7236 167.473 81.4436 167.128C81.1636 166.783 80.9769 166.4 80.8836 165.98L82.3396 165.644C82.4516 166.008 82.6569 166.307 82.9556 166.54C83.2543 166.783 83.6463 166.904 84.1316 166.904C84.7943 166.904 85.2936 166.703 85.6296 166.302C85.9656 165.901 86.1336 165.345 86.1336 164.636V163.796H86.0496C85.8069 164.16 85.5036 164.445 85.1396 164.65C84.7849 164.846 84.3276 164.944 83.7676 164.944C83.2076 164.944 82.6896 164.799 82.2136 164.51C81.7469 164.211 81.3689 163.782 81.0796 163.222C80.7903 162.662 80.6456 161.981 80.6456 161.178C80.6456 160.375 80.7903 159.694 81.0796 159.134C81.3689 158.574 81.7516 158.149 82.2276 157.86C82.7129 157.561 83.2403 157.412 83.8096 157.412C84.3229 157.412 84.7709 157.51 85.1536 157.706C85.5363 157.902 85.8349 158.173 86.0496 158.518H86.1336V157.636H87.5616V164.608C87.5616 165.392 87.4216 166.055 87.1416 166.596C86.8616 167.147 86.4649 167.557 85.9516 167.828C85.4383 168.108 84.8316 168.248 84.1316 168.248ZM84.1456 163.572C84.5096 163.572 84.8409 163.483 85.1396 163.306C85.4383 163.129 85.6763 162.863 85.8536 162.508C86.0403 162.153 86.1336 161.71 86.1336 161.178C86.1336 160.646 86.0403 160.203 85.8536 159.848C85.6763 159.493 85.4383 159.227 85.1396 159.05C84.8409 158.873 84.5096 158.784 84.1456 158.784C83.7816 158.784 83.4456 158.873 83.1376 159.05C82.8389 159.227 82.5963 159.493 82.4096 159.848C82.2323 160.203 82.1436 160.646 82.1436 161.178C82.1436 161.71 82.2323 162.153 82.4096 162.508C82.5963 162.863 82.8389 163.129 83.1376 163.306C83.4456 163.483 83.7816 163.572 84.1456 163.572ZM89.5298 165V157.636H90.9438V158.574H91.0278C91.2238 158.229 91.5131 157.949 91.8958 157.734C92.2878 157.519 92.7265 157.412 93.2118 157.412C94.0518 157.412 94.6911 157.659 95.1298 158.154C95.5778 158.649 95.8018 159.335 95.8018 160.212V165H94.2898V160.408C94.2898 159.857 94.1498 159.451 93.8698 159.19C93.5991 158.929 93.2445 158.798 92.8058 158.798C92.4418 158.798 92.1245 158.891 91.8538 159.078C91.5925 159.255 91.3871 159.498 91.2378 159.806C91.0978 160.105 91.0278 160.441 91.0278 160.814V165H89.5298ZM101.356 165V157.636H102.854V165H101.356ZM102.112 156.11C101.832 156.11 101.589 156.012 101.384 155.816C101.188 155.611 101.09 155.368 101.09 155.088C101.09 154.799 101.188 154.556 101.384 154.36C101.589 154.164 101.832 154.066 102.112 154.066C102.392 154.066 102.63 154.164 102.826 154.36C103.031 154.556 103.134 154.799 103.134 155.088C103.134 155.368 103.031 155.611 102.826 155.816C102.63 156.012 102.392 156.11 102.112 156.11ZM104.897 165V157.636H106.311V158.574H106.395C106.591 158.229 106.88 157.949 107.263 157.734C107.655 157.519 108.094 157.412 108.579 157.412C109.419 157.412 110.058 157.659 110.497 158.154C110.945 158.649 111.169 159.335 111.169 160.212V165H109.657V160.408C109.657 159.857 109.517 159.451 109.237 159.19C108.966 158.929 108.612 158.798 108.173 158.798C107.809 158.798 107.492 158.891 107.221 159.078C106.96 159.255 106.754 159.498 106.605 159.806C106.465 160.105 106.395 160.441 106.395 160.814V165H104.897ZM118.011 165L115.897 157.636H117.507L118.823 162.872H118.879L120.363 157.636H121.889L123.373 162.858H123.429L124.745 157.636H126.327L124.199 165H122.631L121.119 159.652H121.063L119.565 165H118.011ZM127.551 165V157.636H129.049V165H127.551ZM128.307 156.11C128.027 156.11 127.785 156.012 127.579 155.816C127.383 155.611 127.285 155.368 127.285 155.088C127.285 154.799 127.383 154.556 127.579 154.36C127.785 154.164 128.027 154.066 128.307 154.066C128.587 154.066 128.825 154.164 129.021 154.36C129.227 154.556 129.329 154.799 129.329 155.088C129.329 155.368 129.227 155.611 129.021 155.816C128.825 156.012 128.587 156.11 128.307 156.11ZM130.45 157.636H131.64V155.62H133.138V157.636H134.818V158.952H133.138V162.662C133.138 162.998 133.213 163.255 133.362 163.432C133.511 163.609 133.74 163.698 134.048 163.698C134.216 163.698 134.361 163.679 134.482 163.642C134.603 163.595 134.725 163.535 134.846 163.46V164.916C134.697 164.972 134.533 165.019 134.356 165.056C134.188 165.093 133.987 165.112 133.754 165.112C133.11 165.112 132.597 164.921 132.214 164.538C131.831 164.146 131.64 163.609 131.64 162.928V158.952H130.45V157.636ZM136.506 165V154.136H138.004V157.524L137.92 158.63H138.004C138.191 158.285 138.49 157.995 138.9 157.762C139.311 157.529 139.768 157.412 140.272 157.412C140.86 157.412 141.346 157.529 141.728 157.762C142.12 157.995 142.419 158.322 142.624 158.742C142.83 159.162 142.932 159.652 142.932 160.212V165H141.434V160.408C141.434 160.063 141.369 159.773 141.238 159.54C141.117 159.297 140.94 159.115 140.706 158.994C140.473 158.863 140.193 158.798 139.866 158.798C139.502 158.798 139.18 158.896 138.9 159.092C138.62 159.279 138.401 159.535 138.242 159.862C138.084 160.179 138.004 160.539 138.004 160.94V165H136.506ZM152.41 165.224C151.747 165.224 151.14 165.103 150.59 164.86C150.048 164.608 149.572 164.249 149.162 163.782C148.76 163.315 148.448 162.765 148.224 162.13C148.009 161.486 147.902 160.772 147.902 159.988C147.902 159.204 148.018 158.495 148.252 157.86C148.485 157.216 148.812 156.661 149.232 156.194C149.652 155.727 150.146 155.373 150.716 155.13C151.285 154.878 151.906 154.752 152.578 154.752C153.67 154.752 154.584 155.004 155.322 155.508C156.068 156.012 156.54 156.717 156.736 157.622L155.266 158.014C155.154 157.641 154.981 157.319 154.748 157.048C154.514 156.777 154.211 156.572 153.838 156.432C153.474 156.283 153.054 156.208 152.578 156.208C152.148 156.208 151.742 156.292 151.36 156.46C150.986 156.619 150.655 156.857 150.366 157.174C150.086 157.491 149.862 157.888 149.694 158.364C149.535 158.831 149.456 159.372 149.456 159.988C149.456 160.604 149.535 161.145 149.694 161.612C149.852 162.079 150.072 162.475 150.352 162.802C150.632 163.119 150.954 163.362 151.318 163.53C151.691 163.689 152.088 163.768 152.508 163.768C152.937 163.768 153.32 163.703 153.656 163.572C154.001 163.441 154.295 163.259 154.538 163.026C154.79 162.783 154.99 162.503 155.14 162.186C155.289 161.859 155.387 161.509 155.434 161.136H152.55V159.792H156.918V165H155.504V163.6H155.419C155.289 163.843 155.126 164.062 154.93 164.258C154.734 164.454 154.51 164.627 154.257 164.776C154.006 164.916 153.726 165.023 153.418 165.098C153.11 165.182 152.774 165.224 152.41 165.224ZM161.942 165.224C161.205 165.224 160.566 165.061 160.024 164.734C159.483 164.398 159.063 163.936 158.764 163.348C158.475 162.76 158.33 162.083 158.33 161.318C158.33 160.543 158.475 159.867 158.764 159.288C159.063 158.7 159.483 158.243 160.024 157.916C160.566 157.58 161.205 157.412 161.942 157.412C162.689 157.412 163.328 157.58 163.86 157.916C164.402 158.243 164.817 158.7 165.106 159.288C165.405 159.867 165.554 160.543 165.554 161.318C165.554 162.083 165.405 162.76 165.106 163.348C164.817 163.936 164.402 164.398 163.86 164.734C163.328 165.061 162.689 165.224 161.942 165.224ZM161.942 163.838C162.362 163.838 162.731 163.74 163.048 163.544C163.366 163.348 163.613 163.063 163.79 162.69C163.968 162.307 164.056 161.85 164.056 161.318C164.056 160.777 163.968 160.319 163.79 159.946C163.613 159.573 163.366 159.288 163.048 159.092C162.731 158.896 162.367 158.798 161.956 158.798C161.536 158.798 161.168 158.896 160.85 159.092C160.533 159.288 160.281 159.573 160.094 159.946C159.917 160.319 159.828 160.777 159.828 161.318C159.828 161.859 159.917 162.317 160.094 162.69C160.281 163.063 160.533 163.348 160.85 163.544C161.177 163.74 161.541 163.838 161.942 163.838ZM170.337 165.224C169.599 165.224 168.96 165.061 168.419 164.734C167.877 164.398 167.457 163.936 167.159 163.348C166.869 162.76 166.725 162.083 166.725 161.318C166.725 160.543 166.869 159.867 167.159 159.288C167.457 158.7 167.877 158.243 168.419 157.916C168.96 157.58 169.599 157.412 170.337 157.412C171.083 157.412 171.723 157.58 172.255 157.916C172.796 158.243 173.211 158.7 173.501 159.288C173.799 159.867 173.949 160.543 173.949 161.318C173.949 162.083 173.799 162.76 173.501 163.348C173.211 163.936 172.796 164.398 172.255 164.734C171.723 165.061 171.083 165.224 170.337 165.224ZM170.337 163.838C170.757 163.838 171.125 163.74 171.443 163.544C171.76 163.348 172.007 163.063 172.185 162.69C172.362 162.307 172.451 161.85 172.451 161.318C172.451 160.777 172.362 160.319 172.185 159.946C172.007 159.573 171.76 159.288 171.443 159.092C171.125 158.896 170.761 158.798 170.351 158.798C169.931 158.798 169.562 158.896 169.245 159.092C168.927 159.288 168.675 159.573 168.489 159.946C168.311 160.319 168.223 160.777 168.223 161.318C168.223 161.859 168.311 162.317 168.489 162.69C168.675 163.063 168.927 163.348 169.245 163.544C169.571 163.74 169.935 163.838 170.337 163.838ZM178.563 168.248C177.966 168.248 177.439 168.145 176.981 167.94C176.524 167.744 176.155 167.473 175.875 167.128C175.595 166.783 175.409 166.4 175.315 165.98L176.771 165.644C176.883 166.008 177.089 166.307 177.387 166.54C177.686 166.783 178.078 166.904 178.563 166.904C179.226 166.904 179.725 166.703 180.061 166.302C180.397 165.901 180.565 165.345 180.565 164.636V163.796H180.481C180.239 164.16 179.935 164.445 179.571 164.65C179.217 164.846 178.759 164.944 178.199 164.944C177.639 164.944 177.121 164.799 176.645 164.51C176.179 164.211 175.801 163.782 175.511 163.222C175.222 162.662 175.077 161.981 175.077 161.178C175.077 160.375 175.222 159.694 175.511 159.134C175.801 158.574 176.183 158.149 176.659 157.86C177.145 157.561 177.672 157.412 178.241 157.412C178.755 157.412 179.203 157.51 179.585 157.706C179.968 157.902 180.267 158.173 180.481 158.518H180.565V157.636H181.993V164.608C181.993 165.392 181.853 166.055 181.573 166.596C181.293 167.147 180.897 167.557 180.383 167.828C179.87 168.108 179.263 168.248 178.563 168.248ZM178.577 163.572C178.941 163.572 179.273 163.483 179.571 163.306C179.87 163.129 180.108 162.863 180.285 162.508C180.472 162.153 180.565 161.71 180.565 161.178C180.565 160.646 180.472 160.203 180.285 159.848C180.108 159.493 179.87 159.227 179.571 159.05C179.273 158.873 178.941 158.784 178.577 158.784C178.213 158.784 177.877 158.873 177.569 159.05C177.271 159.227 177.028 159.493 176.841 159.848C176.664 160.203 176.575 160.646 176.575 161.178C176.575 161.71 176.664 162.153 176.841 162.508C177.028 162.863 177.271 163.129 177.569 163.306C177.877 163.483 178.213 163.572 178.577 163.572ZM183.961 165V154.136H185.473V165H183.961ZM190.514 165.224C189.804 165.224 189.184 165.061 188.652 164.734C188.129 164.398 187.723 163.936 187.434 163.348C187.154 162.76 187.014 162.088 187.014 161.332C187.014 160.548 187.163 159.862 187.462 159.274C187.76 158.686 188.171 158.229 188.694 157.902C189.226 157.575 189.832 157.412 190.514 157.412C191.26 157.412 191.881 157.552 192.376 157.832C192.88 158.112 193.258 158.513 193.51 159.036C193.771 159.559 193.902 160.184 193.902 160.912C193.902 161.043 193.897 161.173 193.888 161.304C193.888 161.425 193.878 161.537 193.86 161.64H188.484C188.512 162.06 188.596 162.424 188.736 162.732C188.913 163.105 189.16 163.39 189.478 163.586C189.795 163.782 190.159 163.88 190.57 163.88C191.083 163.88 191.48 163.768 191.76 163.544C192.049 163.311 192.259 163.021 192.39 162.676L193.706 163.026C193.519 163.661 193.164 164.188 192.642 164.608C192.119 165.019 191.41 165.224 190.514 165.224ZM188.54 160.506H192.418C192.399 160.226 192.348 159.974 192.264 159.75C192.18 159.526 192.058 159.335 191.9 159.176C191.741 159.017 191.545 158.896 191.312 158.812C191.088 158.728 190.826 158.686 190.528 158.686C190.126 158.686 189.767 158.789 189.45 158.994C189.142 159.19 188.904 159.484 188.736 159.876C188.652 160.063 188.586 160.273 188.54 160.506Z" fill="#1F1F1F"/>
<rect x="26" y="70" width="12" height="40" fill="#F538A0" fill-opacity="0.3"/>
<rect x="195" y="70" width="12" height="40" fill="#F538A0" fill-opacity="0.3"/>
<rect x="58" y="70" width="10" height="40" fill="#F538A0" fill-opacity="0.3"/>
<path d="M2.68497 91.96V91.12L5.13297 87.272H6.25297V90.984H6.92497V91.96H6.25297V93H5.22097V91.96H2.68497ZM5.22097 90.984V88.84H5.15697L3.79697 90.984H5.22097ZM10.02 93.128C9.65736 93.128 9.3347 93.056 9.05203 92.912C8.76936 92.768 8.52936 92.5653 8.33203 92.304C8.14003 92.0373 7.99336 91.72 7.89203 91.352C7.7907 90.984 7.74003 90.576 7.74003 90.128C7.74003 89.6907 7.7907 89.288 7.89203 88.92C7.99336 88.552 8.14003 88.2373 8.33203 87.976C8.52936 87.7093 8.76936 87.504 9.05203 87.36C9.3347 87.216 9.65736 87.144 10.02 87.144C10.3827 87.144 10.7054 87.216 10.988 87.36C11.2707 87.504 11.508 87.7093 11.7 87.976C11.8974 88.2373 12.0467 88.552 12.148 88.92C12.2494 89.288 12.3 89.6907 12.3 90.128C12.3 90.576 12.2494 90.984 12.148 91.352C12.0467 91.72 11.8974 92.0373 11.7 92.304C11.508 92.5653 11.2707 92.768 10.988 92.912C10.7054 93.056 10.3827 93.128 10.02 93.128ZM10.012 92.152C10.2787 92.152 10.5027 92.0747 10.684 91.92C10.8707 91.7653 11.012 91.5387 11.108 91.24C11.204 90.936 11.252 90.568 11.252 90.136C11.252 89.6987 11.204 89.3307 11.108 89.032C11.012 88.7333 10.8707 88.5067 10.684 88.352C10.5027 88.1973 10.2787 88.12 10.012 88.12C9.7507 88.12 9.5267 88.1973 9.34003 88.352C9.1587 88.5067 9.02003 88.7333 8.92403 89.032C8.83336 89.3307 8.78803 89.6987 8.78803 90.136C8.78803 90.568 8.83336 90.936 8.92403 91.24C9.02003 91.5387 9.1587 91.7653 9.34003 91.92C9.5267 92.0747 9.7507 92.152 10.012 92.152Z" fill="#8430CE"/>
<path d="M24.0042 164V163.04C24.2069 162.88 24.3935 162.731 24.5642 162.592C24.7402 162.448 24.9002 162.315 25.0442 162.192C25.1935 162.064 25.3295 161.944 25.4522 161.832C25.5749 161.72 25.6842 161.613 25.7802 161.512C25.8815 161.411 25.9695 161.312 26.0442 161.216C26.1615 161.067 26.2549 160.923 26.3242 160.784C26.3935 160.645 26.4442 160.504 26.4762 160.36C26.5082 160.216 26.5242 160.067 26.5242 159.912C26.5242 159.752 26.4895 159.613 26.4202 159.496C26.3509 159.379 26.2549 159.288 26.1322 159.224C26.0149 159.155 25.8762 159.12 25.7162 159.12C25.5615 159.12 25.4229 159.152 25.3002 159.216C25.1829 159.28 25.0869 159.373 25.0122 159.496C24.9375 159.613 24.8842 159.76 24.8522 159.936L23.8682 159.848C23.8895 159.608 23.9482 159.384 24.0442 159.176C24.1402 158.968 24.2682 158.787 24.4282 158.632C24.5882 158.477 24.7775 158.357 24.9962 158.272C25.2149 158.187 25.4602 158.144 25.7322 158.144C26.1215 158.144 26.4522 158.213 26.7242 158.352C27.0015 158.485 27.2122 158.68 27.3562 158.936C27.5055 159.192 27.5802 159.501 27.5802 159.864C27.5802 160.104 27.5482 160.336 27.4842 160.56C27.4255 160.779 27.3402 160.989 27.2282 161.192C27.1215 161.389 26.9935 161.581 26.8442 161.768C26.7695 161.864 26.6895 161.957 26.6042 162.048C26.5189 162.139 26.4282 162.229 26.3322 162.32C26.2415 162.405 26.1482 162.491 26.0522 162.576C25.9562 162.656 25.8575 162.736 25.7562 162.816C25.6549 162.896 25.5535 162.973 25.4522 163.048L25.4762 163.088H27.7242V164H24.0042ZM30.8208 164.128C30.4581 164.128 30.1355 164.056 29.8528 163.912C29.5701 163.768 29.3301 163.565 29.1328 163.304C28.9408 163.037 28.7941 162.72 28.6928 162.352C28.5915 161.984 28.5408 161.576 28.5408 161.128C28.5408 160.691 28.5915 160.288 28.6928 159.92C28.7941 159.552 28.9408 159.237 29.1328 158.976C29.3301 158.709 29.5701 158.504 29.8528 158.36C30.1355 158.216 30.4581 158.144 30.8208 158.144C31.1835 158.144 31.5061 158.216 31.7888 158.36C32.0715 158.504 32.3088 158.709 32.5008 158.976C32.6981 159.237 32.8475 159.552 32.9488 159.92C33.0501 160.288 33.1008 160.691 33.1008 161.128C33.1008 161.576 33.0501 161.984 32.9488 162.352C32.8475 162.72 32.6981 163.037 32.5008 163.304C32.3088 163.565 32.0715 163.768 31.7888 163.912C31.5061 164.056 31.1835 164.128 30.8208 164.128ZM30.8128 163.152C31.0795 163.152 31.3035 163.075 31.4848 162.92C31.6715 162.765 31.8128 162.539 31.9088 162.24C32.0048 161.936 32.0528 161.568 32.0528 161.136C32.0528 160.699 32.0048 160.331 31.9088 160.032C31.8128 159.733 31.6715 159.507 31.4848 159.352C31.3035 159.197 31.0795 159.12 30.8128 159.12C30.5515 159.12 30.3275 159.197 30.1408 159.352C29.9595 159.507 29.8208 159.733 29.7248 160.032C29.6341 160.331 29.5888 160.699 29.5888 161.136C29.5888 161.568 29.6341 161.936 29.7248 162.24C29.8208 162.539 29.9595 162.765 30.1408 162.92C30.3275 163.075 30.5515 163.152 30.8128 163.152Z" fill="#8430CE"/>
<path d="M43.0042 181V180.04C43.2069 179.88 43.3935 179.731 43.5642 179.592C43.7402 179.448 43.9002 179.315 44.0442 179.192C44.1935 179.064 44.3295 178.944 44.4522 178.832C44.5749 178.72 44.6842 178.613 44.7802 178.512C44.8815 178.411 44.9695 178.312 45.0442 178.216C45.1615 178.067 45.2549 177.923 45.3242 177.784C45.3935 177.645 45.4442 177.504 45.4762 177.36C45.5082 177.216 45.5242 177.067 45.5242 176.912C45.5242 176.752 45.4895 176.613 45.4202 176.496C45.3509 176.379 45.2549 176.288 45.1322 176.224C45.0149 176.155 44.8762 176.12 44.7162 176.12C44.5615 176.12 44.4229 176.152 44.3002 176.216C44.1829 176.28 44.0869 176.373 44.0122 176.496C43.9375 176.613 43.8842 176.76 43.8522 176.936L42.8682 176.848C42.8895 176.608 42.9482 176.384 43.0442 176.176C43.1402 175.968 43.2682 175.787 43.4282 175.632C43.5882 175.477 43.7775 175.357 43.9962 175.272C44.2149 175.187 44.4602 175.144 44.7322 175.144C45.1215 175.144 45.4522 175.213 45.7242 175.352C46.0015 175.485 46.2122 175.68 46.3562 175.936C46.5055 176.192 46.5802 176.501 46.5802 176.864C46.5802 177.104 46.5482 177.336 46.4842 177.56C46.4255 177.779 46.3402 177.989 46.2282 178.192C46.1215 178.389 45.9935 178.581 45.8442 178.768C45.7695 178.864 45.6895 178.957 45.6042 179.048C45.5189 179.139 45.4282 179.229 45.3322 179.32C45.2415 179.405 45.1482 179.491 45.0522 179.576C44.9562 179.656 44.8575 179.736 44.7562 179.816C44.6549 179.896 44.5535 179.973 44.4522 180.048L44.4762 180.088H46.7242V181H43.0042ZM49.8208 181.128C49.4581 181.128 49.1355 181.056 48.8528 180.912C48.5701 180.768 48.3301 180.565 48.1328 180.304C47.9408 180.037 47.7941 179.72 47.6928 179.352C47.5915 178.984 47.5408 178.576 47.5408 178.128C47.5408 177.691 47.5915 177.288 47.6928 176.92C47.7941 176.552 47.9408 176.237 48.1328 175.976C48.3301 175.709 48.5701 175.504 48.8528 175.36C49.1355 175.216 49.4581 175.144 49.8208 175.144C50.1835 175.144 50.5061 175.216 50.7888 175.36C51.0715 175.504 51.3088 175.709 51.5008 175.976C51.6981 176.237 51.8475 176.552 51.9488 176.92C52.0501 177.288 52.1008 177.691 52.1008 178.128C52.1008 178.576 52.0501 178.984 51.9488 179.352C51.8475 179.72 51.6981 180.037 51.5008 180.304C51.3088 180.565 51.0715 180.768 50.7888 180.912C50.5061 181.056 50.1835 181.128 49.8208 181.128ZM49.8128 180.152C50.0795 180.152 50.3035 180.075 50.4848 179.92C50.6715 179.765 50.8128 179.539 50.9088 179.24C51.0048 178.936 51.0528 178.568 51.0528 178.136C51.0528 177.699 51.0048 177.331 50.9088 177.032C50.8128 176.733 50.6715 176.507 50.4848 176.352C50.3035 176.197 50.0795 176.12 49.8128 176.12C49.5515 176.12 49.3275 176.197 49.1408 176.352C48.9595 176.507 48.8208 176.733 48.7248 177.032C48.6341 177.331 48.5888 177.699 48.5888 178.136C48.5888 178.568 48.6341 178.936 48.7248 179.24C48.8208 179.539 48.9595 179.765 49.1408 179.92C49.3275 180.075 49.5515 180.152 49.8128 180.152Z" fill="#8430CE"/>
<path d="M30.1095 128V123.6L28.8375 124.544V123.392L30.3655 122.272H31.1575V128H30.1095ZM32.4339 128V127.04C32.6365 126.88 32.8232 126.731 32.9939 126.592C33.1699 126.448 33.3299 126.315 33.4739 126.192C33.6232 126.064 33.7592 125.944 33.8819 125.832C34.0045 125.72 34.1139 125.613 34.2099 125.512C34.3112 125.411 34.3992 125.312 34.4739 125.216C34.5912 125.067 34.6845 124.923 34.7539 124.784C34.8232 124.645 34.8739 124.504 34.9059 124.36C34.9379 124.216 34.9539 124.067 34.9539 123.912C34.9539 123.752 34.9192 123.613 34.8499 123.496C34.7805 123.379 34.6845 123.288 34.5619 123.224C34.4445 123.155 34.3059 123.12 34.1459 123.12C33.9912 123.12 33.8525 123.152 33.7299 123.216C33.6125 123.28 33.5165 123.373 33.4419 123.496C33.3672 123.613 33.3139 123.76 33.2819 123.936L32.2979 123.848C32.3192 123.608 32.3779 123.384 32.4739 123.176C32.5699 122.968 32.6979 122.787 32.8579 122.632C33.0179 122.477 33.2072 122.357 33.4259 122.272C33.6445 122.187 33.8899 122.144 34.1619 122.144C34.5512 122.144 34.8819 122.213 35.1539 122.352C35.4312 122.485 35.6419 122.68 35.7859 122.936C35.9352 123.192 36.0099 123.501 36.0099 123.864C36.0099 124.104 35.9779 124.336 35.9139 124.56C35.8552 124.779 35.7699 124.989 35.6579 125.192C35.5512 125.389 35.4232 125.581 35.2739 125.768C35.1992 125.864 35.1192 125.957 35.0339 126.048C34.9485 126.139 34.8579 126.229 34.7619 126.32C34.6712 126.405 34.5779 126.491 34.4819 126.576C34.3859 126.656 34.2872 126.736 34.1859 126.816C34.0845 126.896 33.9832 126.973 33.8819 127.048L33.9059 127.088H36.1539V128H32.4339Z" fill="#8430CE"/>
<path d="M199.11 128V123.6L197.838 124.544V123.392L199.366 122.272H200.158V128H199.11ZM201.434 128V127.04C201.637 126.88 201.823 126.731 201.994 126.592C202.17 126.448 202.33 126.315 202.474 126.192C202.623 126.064 202.759 125.944 202.882 125.832C203.005 125.72 203.114 125.613 203.21 125.512C203.311 125.411 203.399 125.312 203.474 125.216C203.591 125.067 203.685 124.923 203.754 124.784C203.823 124.645 203.874 124.504 203.906 124.36C203.938 124.216 203.954 124.067 203.954 123.912C203.954 123.752 203.919 123.613 203.85 123.496C203.781 123.379 203.685 123.288 203.562 123.224C203.445 123.155 203.306 123.12 203.146 123.12C202.991 123.12 202.853 123.152 202.73 123.216C202.613 123.28 202.517 123.373 202.442 123.496C202.367 123.613 202.314 123.76 202.282 123.936L201.298 123.848C201.319 123.608 201.378 123.384 201.474 123.176C201.57 122.968 201.698 122.787 201.858 122.632C202.018 122.477 202.207 122.357 202.426 122.272C202.645 122.187 202.89 122.144 203.162 122.144C203.551 122.144 203.882 122.213 204.154 122.352C204.431 122.485 204.642 122.68 204.786 122.936C204.935 123.192 205.01 123.501 205.01 123.864C205.01 124.104 204.978 124.336 204.914 124.56C204.855 124.779 204.77 124.989 204.658 125.192C204.551 125.389 204.423 125.581 204.274 125.768C204.199 125.864 204.119 125.957 204.034 126.048C203.949 126.139 203.858 126.229 203.762 126.32C203.671 126.405 203.578 126.491 203.482 126.576C203.386 126.656 203.287 126.736 203.186 126.816C203.085 126.896 202.983 126.973 202.882 127.048L202.906 127.088H205.154V128H201.434Z" fill="#8430CE"/>
<path d="M60.7814 127V122.6L59.5094 123.544V122.392L61.0374 121.272H61.8294V127H60.7814ZM65.2036 127.128C64.841 127.128 64.5183 127.056 64.2356 126.912C63.953 126.768 63.713 126.565 63.5156 126.304C63.3236 126.037 63.177 125.72 63.0756 125.352C62.9743 124.984 62.9236 124.576 62.9236 124.128C62.9236 123.691 62.9743 123.288 63.0756 122.92C63.177 122.552 63.3236 122.237 63.5156 121.976C63.713 121.709 63.953 121.504 64.2356 121.36C64.5183 121.216 64.841 121.144 65.2036 121.144C65.5663 121.144 65.889 121.216 66.1716 121.36C66.4543 121.504 66.6916 121.709 66.8836 121.976C67.081 122.237 67.2303 122.552 67.3316 122.92C67.433 123.288 67.4836 123.691 67.4836 124.128C67.4836 124.576 67.433 124.984 67.3316 125.352C67.2303 125.72 67.081 126.037 66.8836 126.304C66.6916 126.565 66.4543 126.768 66.1716 126.912C65.889 127.056 65.5663 127.128 65.2036 127.128ZM65.1956 126.152C65.4623 126.152 65.6863 126.075 65.8676 125.92C66.0543 125.765 66.1956 125.539 66.2916 125.24C66.3876 124.936 66.4356 124.568 66.4356 124.136C66.4356 123.699 66.3876 123.331 66.2916 123.032C66.1956 122.733 66.0543 122.507 65.8676 122.352C65.6863 122.197 65.4623 122.12 65.1956 122.12C64.9343 122.12 64.7103 122.197 64.5236 122.352C64.3423 122.507 64.2036 122.733 64.1076 123.032C64.017 123.331 63.9716 123.699 63.9716 124.136C63.9716 124.568 64.017 124.936 64.1076 125.24C64.2036 125.539 64.3423 125.765 64.5236 125.92C64.7103 126.075 64.9343 126.152 65.1956 126.152Z" fill="#8430CE"/>
<path d="M12 70H22" stroke="#8430CE"/>
<path d="M17 70L17 110" stroke="#8430CE"/>
<path d="M12 110H22" stroke="#8430CE"/>
<path d="M32 110V118" stroke="#8430CE"/>
<path d="M201 110V118" stroke="#8430CE"/>
<path d="M63 110V118" stroke="#8430CE"/>
<path d="M71.016 181.128C70.648 181.128 70.3067 181.059 69.992 180.92C69.6827 180.776 69.4107 180.573 69.176 180.312C68.9413 180.045 68.76 179.731 68.632 179.368C68.504 179 68.44 178.589 68.44 178.136C68.44 177.683 68.5067 177.275 68.64 176.912C68.7787 176.544 68.968 176.229 69.208 175.968C69.4533 175.701 69.7413 175.499 70.072 175.36C70.408 175.216 70.7707 175.144 71.16 175.144C71.7947 175.144 72.3333 175.288 72.776 175.576C73.2187 175.859 73.4933 176.269 73.6 176.808L72.552 177.088C72.488 176.885 72.3947 176.717 72.272 176.584C72.1493 176.445 71.9947 176.341 71.808 176.272C71.6213 176.203 71.4027 176.168 71.152 176.168C70.928 176.168 70.7173 176.211 70.52 176.296C70.3227 176.381 70.1493 176.507 70 176.672C69.8507 176.837 69.7333 177.043 69.648 177.288C69.5627 177.533 69.52 177.816 69.52 178.136C69.52 178.456 69.56 178.739 69.64 178.984C69.7253 179.229 69.84 179.435 69.984 179.6C70.1333 179.765 70.304 179.891 70.496 179.976C70.6933 180.061 70.904 180.104 71.128 180.104C71.3413 180.104 71.536 180.075 71.712 180.016C71.888 179.952 72.04 179.864 72.168 179.752C72.3013 179.64 72.408 179.507 72.488 179.352C72.5733 179.197 72.6293 179.024 72.656 178.832H71.136V177.92H73.712V181H72.72V180.296H72.656C72.5707 180.435 72.472 180.557 72.36 180.664C72.248 180.765 72.1253 180.851 71.992 180.92C71.8587 180.989 71.7093 181.04 71.544 181.072C71.384 181.109 71.208 181.128 71.016 181.128ZM74.9618 181V175.272H76.3458L77.8018 179.288H77.8658L79.3138 175.272H80.7058V181H79.6418V178.192L79.7058 177.256H79.6418L78.2498 181H77.4178L76.0178 177.256H75.9538L76.0178 178.192V181H74.9618ZM83.6543 181.128C83.3129 181.128 82.9983 181.067 82.7103 180.944C82.4276 180.816 82.1929 180.627 82.0063 180.376C81.8249 180.125 81.7103 179.816 81.6623 179.448L82.6943 179.24C82.7369 179.517 82.8409 179.733 83.0063 179.888C83.1769 180.043 83.3929 180.12 83.6543 180.12C83.8303 180.12 83.9849 180.088 84.1183 180.024C84.2516 179.96 84.3529 179.867 84.4223 179.744C84.4969 179.621 84.5343 179.475 84.5343 179.304C84.5343 179.133 84.4943 178.984 84.4143 178.856C84.3343 178.728 84.2196 178.629 84.0703 178.56C83.9263 178.485 83.7529 178.448 83.5503 178.448H83.0943V177.536H83.5182C83.6889 177.536 83.8383 177.512 83.9663 177.464C84.0943 177.411 84.1956 177.331 84.2703 177.224C84.3449 177.112 84.3823 176.971 84.3823 176.8C84.3823 176.597 84.3129 176.429 84.1743 176.296C84.0409 176.157 83.8543 176.088 83.6143 176.088C83.4649 176.088 83.3316 176.12 83.2143 176.184C83.0969 176.243 83.0009 176.325 82.9263 176.432C82.8569 176.533 82.8089 176.645 82.7823 176.768L81.7743 176.656C81.8223 176.373 81.9236 176.12 82.0783 175.896C82.2329 175.667 82.4409 175.485 82.7023 175.352C82.9636 175.213 83.2729 175.144 83.6303 175.144C83.9876 175.144 84.2996 175.211 84.5663 175.344C84.8329 175.477 85.0383 175.661 85.1823 175.896C85.3316 176.125 85.4062 176.389 85.4062 176.688C85.4062 176.901 85.3716 177.083 85.3023 177.232C85.2383 177.381 85.1529 177.509 85.0463 177.616C84.9449 177.723 84.8329 177.816 84.7103 177.896V177.96C84.8863 178.035 85.0383 178.136 85.1663 178.264C85.2996 178.387 85.4036 178.541 85.4783 178.728C85.5529 178.909 85.5903 179.128 85.5903 179.384C85.5903 179.704 85.5103 179.997 85.3503 180.264C85.1956 180.525 84.9743 180.736 84.6863 180.896C84.3983 181.051 84.0543 181.128 83.6543 181.128ZM85.9609 181L87.8249 175.272H88.8569L86.9929 181H85.9609ZM89.5634 181V175.272H90.6354V179.976H93.3074V181H89.5634ZM95.4892 181.128C95.1905 181.128 94.9319 181.072 94.7132 180.96C94.4945 180.848 94.3265 180.691 94.2092 180.488C94.0919 180.285 94.0332 180.048 94.0332 179.776C94.0332 179.493 94.1052 179.253 94.2492 179.056C94.3932 178.853 94.5879 178.699 94.8332 178.592C95.0839 178.485 95.3612 178.432 95.6652 178.432C95.7985 178.432 95.9265 178.437 96.0492 178.448C96.1719 178.459 96.2945 178.475 96.4172 178.496C96.5452 178.517 96.6732 178.541 96.8012 178.568V178.232C96.8012 178.013 96.7239 177.837 96.5692 177.704C96.4145 177.571 96.1959 177.504 95.9132 177.504C95.7052 177.504 95.5239 177.557 95.3692 177.664C95.2145 177.765 95.1079 177.909 95.0492 178.096L94.1372 177.904C94.2012 177.621 94.3212 177.389 94.4972 177.208C94.6785 177.027 94.8919 176.891 95.1372 176.8C95.3879 176.709 95.6519 176.664 95.9292 176.664C96.5639 176.664 97.0385 176.808 97.3532 177.096C97.6679 177.384 97.8252 177.805 97.8252 178.36V181H96.8012V180.584H96.7372C96.6572 180.685 96.5559 180.779 96.4332 180.864C96.3105 180.944 96.1692 181.008 96.0092 181.056C95.8545 181.104 95.6812 181.128 95.4892 181.128ZM95.7532 180.312C95.9772 180.312 96.1665 180.267 96.3212 180.176C96.4759 180.085 96.5932 179.968 96.6732 179.824C96.7585 179.675 96.8012 179.515 96.8012 179.344C96.6519 179.296 96.4919 179.259 96.3212 179.232C96.1505 179.2 95.9825 179.184 95.8172 179.184C95.5559 179.184 95.3665 179.24 95.2492 179.352C95.1319 179.459 95.0732 179.597 95.0732 179.768C95.0732 179.928 95.1372 180.059 95.2652 180.16C95.3932 180.261 95.5559 180.312 95.7532 180.312ZM101.255 181.128C101.047 181.128 100.863 181.099 100.703 181.04C100.543 180.987 100.405 180.915 100.287 180.824C100.175 180.728 100.079 180.624 99.9992 180.512H99.9352V181H98.9512V174.792H99.9992V176.664L99.9352 177.288H99.9992C100.063 177.181 100.154 177.08 100.271 176.984C100.389 176.888 100.53 176.811 100.695 176.752C100.861 176.693 101.047 176.664 101.255 176.664C101.613 176.664 101.93 176.752 102.207 176.928C102.49 177.099 102.714 177.349 102.879 177.68C103.045 178.011 103.127 178.416 103.127 178.896C103.127 179.371 103.045 179.776 102.879 180.112C102.714 180.443 102.49 180.696 102.207 180.872C101.93 181.043 101.613 181.128 101.255 181.128ZM101.007 180.152C101.21 180.152 101.391 180.104 101.551 180.008C101.717 179.912 101.845 179.771 101.935 179.584C102.031 179.392 102.079 179.163 102.079 178.896C102.079 178.624 102.031 178.395 101.935 178.208C101.845 178.021 101.717 177.88 101.551 177.784C101.391 177.688 101.21 177.64 101.007 177.64C100.805 177.64 100.621 177.688 100.455 177.784C100.295 177.88 100.167 178.021 100.071 178.208C99.9805 178.395 99.9352 178.624 99.9352 178.896C99.9352 179.163 99.9805 179.392 100.071 179.584C100.167 179.771 100.295 179.912 100.455 180.008C100.621 180.104 100.805 180.152 101.007 180.152ZM105.869 181.128C105.448 181.128 105.082 181.037 104.773 180.856C104.464 180.675 104.224 180.416 104.053 180.08C103.882 179.744 103.797 179.349 103.797 178.896C103.797 178.437 103.885 178.043 104.061 177.712C104.242 177.376 104.49 177.117 104.805 176.936C105.12 176.755 105.477 176.664 105.877 176.664C106.32 176.664 106.685 176.747 106.973 176.912C107.266 177.072 107.485 177.304 107.629 177.608C107.773 177.907 107.845 178.264 107.845 178.68C107.845 178.76 107.842 178.84 107.837 178.92C107.837 179 107.832 179.072 107.821 179.136H104.805C104.826 179.323 104.872 179.485 104.941 179.624C105.037 179.816 105.168 179.96 105.333 180.056C105.504 180.152 105.696 180.2 105.909 180.2C106.154 180.2 106.352 180.141 106.501 180.024C106.656 179.901 106.768 179.755 106.837 179.584L107.749 179.832C107.621 180.216 107.402 180.528 107.093 180.768C106.789 181.008 106.381 181.128 105.869 181.128ZM104.853 178.392H106.845C106.834 178.259 106.805 178.139 106.757 178.032C106.714 177.92 106.65 177.827 106.565 177.752C106.485 177.672 106.386 177.613 106.269 177.576C106.157 177.533 106.029 177.512 105.885 177.512C105.677 177.512 105.49 177.565 105.325 177.672C105.16 177.779 105.032 177.936 104.941 178.144C104.904 178.219 104.874 178.301 104.853 178.392ZM108.772 181V174.792H109.82V181H108.772ZM110.414 181L112.278 175.272H113.31L111.446 181H110.414ZM114.017 181V175.272H115.089V179.976H117.761V181H114.017ZM119.942 181.128C119.644 181.128 119.385 181.072 119.166 180.96C118.948 180.848 118.78 180.691 118.662 180.488C118.545 180.285 118.486 180.048 118.486 179.776C118.486 179.493 118.558 179.253 118.702 179.056C118.846 178.853 119.041 178.699 119.286 178.592C119.537 178.485 119.814 178.432 120.118 178.432C120.252 178.432 120.38 178.437 120.502 178.448C120.625 178.459 120.748 178.475 120.87 178.496C120.998 178.517 121.126 178.541 121.254 178.568V178.232C121.254 178.013 121.177 177.837 121.022 177.704C120.868 177.571 120.649 177.504 120.366 177.504C120.158 177.504 119.977 177.557 119.822 177.664C119.668 177.765 119.561 177.909 119.502 178.096L118.59 177.904C118.654 177.621 118.774 177.389 118.95 177.208C119.132 177.027 119.345 176.891 119.59 176.8C119.841 176.709 120.105 176.664 120.382 176.664C121.017 176.664 121.492 176.808 121.806 177.096C122.121 177.384 122.278 177.805 122.278 178.36V181H121.254V180.584H121.19C121.11 180.685 121.009 180.779 120.886 180.864C120.764 180.944 120.622 181.008 120.462 181.056C120.308 181.104 120.134 181.128 119.942 181.128ZM120.206 180.312C120.43 180.312 120.62 180.267 120.774 180.176C120.929 180.085 121.046 179.968 121.126 179.824C121.212 179.675 121.254 179.515 121.254 179.344C121.105 179.296 120.945 179.259 120.774 179.232C120.604 179.2 120.436 179.184 120.27 179.184C120.009 179.184 119.82 179.24 119.702 179.352C119.585 179.459 119.526 179.597 119.526 179.768C119.526 179.928 119.59 180.059 119.718 180.16C119.846 180.261 120.009 180.312 120.206 180.312ZM123.404 181V176.792H124.388V177.336H124.452C124.511 177.208 124.588 177.093 124.684 176.992C124.786 176.891 124.903 176.811 125.036 176.752C125.175 176.693 125.33 176.664 125.5 176.664C125.602 176.664 125.684 176.669 125.748 176.68C125.812 176.691 125.868 176.701 125.916 176.712V177.752C125.842 177.72 125.756 177.693 125.66 177.672C125.564 177.651 125.455 177.64 125.332 177.64C125.162 177.64 125.01 177.683 124.876 177.768C124.743 177.853 124.639 177.976 124.564 178.136C124.49 178.296 124.452 178.485 124.452 178.704V181H123.404ZM128.336 182.856C127.963 182.856 127.638 182.797 127.36 182.68C127.088 182.563 126.867 182.4 126.696 182.192C126.531 181.989 126.419 181.757 126.36 181.496L127.408 181.28C127.467 181.472 127.571 181.627 127.72 181.744C127.875 181.867 128.08 181.928 128.336 181.928C128.667 181.928 128.923 181.824 129.104 181.616C129.286 181.408 129.376 181.112 129.376 180.728V180.408H129.312C129.163 180.595 128.992 180.736 128.8 180.832C128.614 180.923 128.371 180.968 128.072 180.968C127.752 180.968 127.456 180.883 127.184 180.712C126.912 180.536 126.694 180.288 126.528 179.968C126.363 179.648 126.28 179.264 126.28 178.816C126.28 178.368 126.363 177.984 126.528 177.664C126.694 177.339 126.912 177.091 127.184 176.92C127.456 176.749 127.752 176.664 128.072 176.664C128.35 176.664 128.592 176.712 128.8 176.808C129.014 176.899 129.184 177.037 129.312 177.224H129.376V176.792H130.376V180.696C130.376 181.139 130.296 181.523 130.136 181.848C129.976 182.173 129.744 182.421 129.44 182.592C129.136 182.768 128.768 182.856 128.336 182.856ZM128.352 180.008C128.539 180.008 128.71 179.963 128.864 179.872C129.019 179.781 129.142 179.648 129.232 179.472C129.328 179.296 129.376 179.077 129.376 178.816C129.376 178.555 129.328 178.336 129.232 178.16C129.142 177.984 129.019 177.851 128.864 177.76C128.71 177.669 128.539 177.624 128.352 177.624C128.166 177.624 127.995 177.669 127.84 177.76C127.686 177.851 127.56 177.984 127.464 178.16C127.374 178.336 127.328 178.555 127.328 178.816C127.328 179.077 127.374 179.296 127.464 179.472C127.56 179.648 127.686 179.781 127.84 179.872C127.995 179.963 128.166 180.008 128.352 180.008ZM133.26 181.128C132.838 181.128 132.473 181.037 132.164 180.856C131.854 180.675 131.614 180.416 131.444 180.08C131.273 179.744 131.188 179.349 131.188 178.896C131.188 178.437 131.276 178.043 131.452 177.712C131.633 177.376 131.881 177.117 132.196 176.936C132.51 176.755 132.868 176.664 133.268 176.664C133.71 176.664 134.076 176.747 134.364 176.912C134.657 177.072 134.876 177.304 135.02 177.608C135.164 177.907 135.236 178.264 135.236 178.68C135.236 178.76 135.233 178.84 135.228 178.92C135.228 179 135.222 179.072 135.212 179.136H132.196C132.217 179.323 132.262 179.485 132.332 179.624C132.428 179.816 132.558 179.96 132.724 180.056C132.894 180.152 133.086 180.2 133.3 180.2C133.545 180.2 133.742 180.141 133.892 180.024C134.046 179.901 134.158 179.755 134.228 179.584L135.14 179.832C135.012 180.216 134.793 180.528 134.484 180.768C134.18 181.008 133.772 181.128 133.26 181.128ZM132.244 178.392H134.236C134.225 178.259 134.196 178.139 134.148 178.032C134.105 177.92 134.041 177.827 133.956 177.752C133.876 177.672 133.777 177.613 133.66 177.576C133.548 177.533 133.42 177.512 133.276 177.512C133.068 177.512 132.881 177.565 132.716 177.672C132.55 177.779 132.422 177.936 132.332 178.144C132.294 178.219 132.265 178.301 132.244 178.392ZM69.672 191V186.6L68.4 187.544V186.392L69.928 185.272H70.72V191H69.672ZM71.7983 189.96V189.12L74.2463 185.272H75.3663V188.984H76.0383V189.96H75.3663V191H74.3343V189.96H71.7983ZM74.3343 188.984V186.84H74.2703L72.9103 188.984H74.3343ZM76.4453 191L78.3093 185.272H79.3413L77.4773 191H76.4453ZM79.8558 191V190.04C80.0584 189.88 80.2451 189.731 80.4158 189.592C80.5918 189.448 80.7518 189.315 80.8958 189.192C81.0451 189.064 81.1811 188.944 81.3038 188.832C81.4264 188.72 81.5358 188.613 81.6318 188.512C81.7331 188.411 81.8211 188.312 81.8958 188.216C82.0131 188.067 82.1064 187.923 82.1758 187.784C82.2451 187.645 82.2958 187.504 82.3278 187.36C82.3598 187.216 82.3758 187.067 82.3758 186.912C82.3758 186.752 82.3411 186.613 82.2718 186.496C82.2024 186.379 82.1064 186.288 81.9838 186.224C81.8664 186.155 81.7278 186.12 81.5678 186.12C81.4131 186.12 81.2744 186.152 81.1518 186.216C81.0344 186.28 80.9384 186.373 80.8638 186.496C80.7891 186.613 80.7358 186.76 80.7038 186.936L79.7198 186.848C79.7411 186.608 79.7998 186.384 79.8958 186.176C79.9918 185.968 80.1198 185.787 80.2798 185.632C80.4398 185.477 80.6291 185.357 80.8478 185.272C81.0664 185.187 81.3118 185.144 81.5838 185.144C81.9731 185.144 82.3038 185.213 82.5758 185.352C82.8531 185.485 83.0638 185.68 83.2078 185.936C83.3571 186.192 83.4318 186.501 83.4318 186.864C83.4318 187.104 83.3998 187.336 83.3358 187.56C83.2771 187.779 83.1918 187.989 83.0798 188.192C82.9731 188.389 82.8451 188.581 82.6958 188.768C82.6211 188.864 82.5411 188.957 82.4558 189.048C82.3704 189.139 82.2798 189.229 82.1838 189.32C82.0931 189.405 81.9998 189.491 81.9038 189.576C81.8078 189.656 81.7091 189.736 81.6078 189.816C81.5064 189.896 81.4051 189.973 81.3038 190.048L81.3278 190.088H83.5758V191H79.8558ZM86.6724 191.128C86.3097 191.128 85.987 191.056 85.7044 190.912C85.4217 190.768 85.1817 190.565 84.9844 190.304C84.7924 190.037 84.6457 189.72 84.5444 189.352C84.443 188.984 84.3924 188.576 84.3924 188.128C84.3924 187.691 84.443 187.288 84.5444 186.92C84.6457 186.552 84.7924 186.237 84.9844 185.976C85.1817 185.709 85.4217 185.504 85.7044 185.36C85.987 185.216 86.3097 185.144 86.6724 185.144C87.035 185.144 87.3577 185.216 87.6404 185.36C87.923 185.504 88.1604 185.709 88.3524 185.976C88.5497 186.237 88.699 186.552 88.8004 186.92C88.9017 187.288 88.9524 187.691 88.9524 188.128C88.9524 188.576 88.9017 188.984 88.8004 189.352C88.699 189.72 88.5497 190.037 88.3524 190.304C88.1604 190.565 87.923 190.768 87.6404 190.912C87.3577 191.056 87.035 191.128 86.6724 191.128ZM86.6644 190.152C86.931 190.152 87.155 190.075 87.3364 189.92C87.523 189.765 87.6644 189.539 87.7604 189.24C87.8564 188.936 87.9044 188.568 87.9044 188.136C87.9044 187.699 87.8564 187.331 87.7604 187.032C87.6644 186.733 87.523 186.507 87.3364 186.352C87.155 186.197 86.931 186.12 86.6644 186.12C86.403 186.12 86.179 186.197 85.9924 186.352C85.811 186.507 85.6724 186.733 85.5764 187.032C85.4857 187.331 85.4404 187.699 85.4404 188.136C85.4404 188.568 85.4857 188.936 85.5764 189.24C85.6724 189.539 85.811 189.765 85.9924 189.92C86.179 190.075 86.403 190.152 86.6644 190.152Z" fill="#8430CE"/>
<path d="M68 170H195" stroke="#8430CE"/>
<rect x="38.5" y="150.5" width="19" height="19" stroke="#8430CE"/>
<rect x="26" width="40" height="40" rx="20" fill="white"/>
<g clip-path="url(#clip2_819_5513)">
<path d="M55.6 20.2271C55.6 19.518 55.5364 18.8362 55.4182 18.1816H46V22.0498H51.3818C51.15 23.2998 50.4455 24.3589 49.3864 25.068V27.5771H52.6182C54.5091 25.8362 55.6 23.2726 55.6 20.2271V20.2271Z" fill="#4285F4"/>
<path d="M46 30.0004C48.7 30.0004 50.9637 29.1049 52.6182 27.5777L49.3864 25.0686C48.4909 25.6686 47.3455 26.0231 46 26.0231C43.3955 26.0231 41.1909 24.264 40.4046 21.9004H37.0637V24.4913C38.7091 27.7595 42.0909 30.0004 46 30.0004Z" fill="#34A853"/>
<path d="M40.4045 21.8997C40.2045 21.2997 40.0909 20.6588 40.0909 19.9997C40.0909 19.3406 40.2045 18.6997 40.4045 18.0997V15.5088H37.0636C36.3864 16.8588 36 18.3861 36 19.9997C36 21.6133 36.3864 23.1406 37.0636 24.4906L40.4045 21.8997V21.8997Z" fill="#FBBC05"/>
<path d="M46 13.9773C47.4682 13.9773 48.7864 14.4818 49.8228 15.4727L52.6909 12.6045C50.9591 10.9909 48.6955 10 46 10C42.0909 10 38.7091 12.2409 37.0637 15.5091L40.4046 18.1C41.1909 15.7364 43.3955 13.9773 46 13.9773Z" fill="#EA4335"/>
</g>
<path d="M11.685 21.96V21.12L14.133 17.272H15.253V20.984H15.925V21.96H15.253V23H14.221V21.96H11.685ZM14.221 20.984V18.84H14.157L12.797 20.984H14.221ZM19.02 23.128C18.6574 23.128 18.3347 23.056 18.052 22.912C17.7694 22.768 17.5294 22.5653 17.332 22.304C17.14 22.0373 16.9934 21.72 16.892 21.352C16.7907 20.984 16.74 20.576 16.74 20.128C16.74 19.6907 16.7907 19.288 16.892 18.92C16.9934 18.552 17.14 18.2373 17.332 17.976C17.5294 17.7093 17.7694 17.504 18.052 17.36C18.3347 17.216 18.6574 17.144 19.02 17.144C19.3827 17.144 19.7054 17.216 19.988 17.36C20.2707 17.504 20.508 17.7093 20.7 17.976C20.8974 18.2373 21.0467 18.552 21.148 18.92C21.2494 19.288 21.3 19.6907 21.3 20.128C21.3 20.576 21.2494 20.984 21.148 21.352C21.0467 21.72 20.8974 22.0373 20.7 22.304C20.508 22.5653 20.2707 22.768 19.988 22.912C19.7054 23.056 19.3827 23.128 19.02 23.128ZM19.012 22.152C19.2787 22.152 19.5027 22.0747 19.684 21.92C19.8707 21.7653 20.012 21.5387 20.108 21.24C20.204 20.936 20.252 20.568 20.252 20.136C20.252 19.6987 20.204 19.3307 20.108 19.032C20.012 18.7333 19.8707 18.5067 19.684 18.352C19.5027 18.1973 19.2787 18.12 19.012 18.12C18.7507 18.12 18.5267 18.1973 18.34 18.352C18.1587 18.5067 18.02 18.7333 17.924 19.032C17.8334 19.3307 17.788 19.6987 17.788 20.136C17.788 20.568 17.8334 20.936 17.924 21.24C18.02 21.5387 18.1587 21.7653 18.34 21.92C18.5267 22.0747 18.7507 22.152 19.012 22.152Z" fill="#8430CE"/>
<path d="M41.685 49.96V49.12L44.133 45.272H45.253V48.984H45.925V49.96H45.253V51H44.221V49.96H41.685ZM44.221 48.984V46.84H44.157L42.797 48.984H44.221ZM49.02 51.128C48.6574 51.128 48.3347 51.056 48.052 50.912C47.7694 50.768 47.5294 50.5653 47.332 50.304C47.14 50.0373 46.9934 49.72 46.892 49.352C46.7907 48.984 46.74 48.576 46.74 48.128C46.74 47.6907 46.7907 47.288 46.892 46.92C46.9934 46.552 47.14 46.2373 47.332 45.976C47.5294 45.7093 47.7694 45.504 48.052 45.36C48.3347 45.216 48.6574 45.144 49.02 45.144C49.3827 45.144 49.7054 45.216 49.988 45.36C50.2707 45.504 50.508 45.7093 50.7 45.976C50.8974 46.2373 51.0467 46.552 51.148 46.92C51.2494 47.288 51.3 47.6907 51.3 48.128C51.3 48.576 51.2494 48.984 51.148 49.352C51.0467 49.72 50.8974 50.0373 50.7 50.304C50.508 50.5653 50.2707 50.768 49.988 50.912C49.7054 51.056 49.3827 51.128 49.02 51.128ZM49.012 50.152C49.2787 50.152 49.5027 50.0747 49.684 49.92C49.8707 49.7653 50.012 49.5387 50.108 49.24C50.204 48.936 50.252 48.568 50.252 48.136C50.252 47.6987 50.204 47.3307 50.108 47.032C50.012 46.7333 49.8707 46.5067 49.684 46.352C49.5027 46.1973 49.2787 46.12 49.012 46.12C48.7507 46.12 48.5267 46.1973 48.34 46.352C48.1587 46.5067 48.02 46.7333 47.924 47.032C47.8334 47.3307 47.788 47.6987 47.788 48.136C47.788 48.568 47.8334 48.936 47.924 49.24C48.02 49.5387 48.1587 49.7653 48.34 49.92C48.5267 50.0747 48.7507 50.152 49.012 50.152Z" fill="#8430CE"/>
<rect x="26.5" y="0.5" width="39" height="39" stroke="#8430CE"/>
<rect x="26" y="210" width="181" height="40" rx="20" fill="white"/>
<g clip-path="url(#clip3_819_5513)">
<path d="M57.6 230.227C57.6 229.518 57.5364 228.836 57.4182 228.182H48V232.05H53.3818C53.15 233.3 52.4455 234.359 51.3864 235.068V237.577H54.6182C56.5091 235.836 57.6 233.273 57.6 230.227V230.227Z" fill="#4285F4"/>
<path d="M48 240C50.7 240 52.9637 239.105 54.6182 237.578L51.3864 235.069C50.4909 235.669 49.3455 236.023 48 236.023C45.3955 236.023 43.1909 234.264 42.4046 231.9H39.0637V234.491C40.7091 237.759 44.0909 240 48 240Z" fill="#34A853"/>
<path d="M42.4045 231.9C42.2045 231.3 42.0909 230.659 42.0909 230C42.0909 229.341 42.2045 228.7 42.4045 228.1V225.509H39.0636C38.3864 226.859 38 228.386 38 230C38 231.613 38.3864 233.141 39.0636 234.491L42.4045 231.9V231.9Z" fill="#FBBC05"/>
<path d="M48 223.977C49.4682 223.977 50.7864 224.482 51.8228 225.473L54.6909 222.605C52.9591 220.991 50.6955 220 48 220C44.0909 220 40.7091 222.241 39.0637 225.509L42.4046 228.1C43.1909 225.736 45.3955 223.977 48 223.977Z" fill="#EA4335"/>
</g>
<path d="M72.396 235.224C71.7147 235.224 71.108 235.107 70.576 234.874C70.044 234.641 69.6053 234.295 69.26 233.838C68.924 233.381 68.6953 232.821 68.574 232.158L70.114 231.822C70.2167 232.401 70.4593 232.872 70.842 233.236C71.2247 233.591 71.7473 233.768 72.41 233.768C72.8113 233.768 73.1613 233.707 73.46 233.586C73.768 233.465 74.006 233.292 74.174 233.068C74.342 232.835 74.426 232.569 74.426 232.27C74.426 231.953 74.3513 231.691 74.202 231.486C74.062 231.281 73.8333 231.103 73.516 230.954C73.208 230.795 72.7973 230.641 72.284 230.492L71.542 230.254C71.2247 230.161 70.912 230.044 70.604 229.904C70.296 229.764 70.016 229.587 69.764 229.372C69.512 229.157 69.3113 228.896 69.162 228.588C69.0127 228.28 68.938 227.916 68.938 227.496C68.938 226.983 69.0733 226.521 69.344 226.11C69.6147 225.69 69.9973 225.359 70.492 225.116C70.996 224.873 71.5933 224.752 72.284 224.752C72.984 224.752 73.5767 224.869 74.062 225.102C74.5473 225.335 74.9253 225.657 75.196 226.068C75.476 226.469 75.6487 226.927 75.714 227.44L74.258 227.664C74.202 227.365 74.09 227.104 73.922 226.88C73.754 226.656 73.5347 226.483 73.264 226.362C73.0027 226.241 72.6807 226.18 72.298 226.18C71.9433 226.18 71.626 226.236 71.346 226.348C71.066 226.451 70.8467 226.595 70.688 226.782C70.5293 226.969 70.45 227.188 70.45 227.44C70.45 227.813 70.6133 228.121 70.94 228.364C71.2667 228.597 71.752 228.812 72.396 229.008L73.124 229.232C73.516 229.353 73.88 229.493 74.216 229.652C74.5613 229.811 74.86 230.007 75.112 230.24C75.3733 230.473 75.5787 230.753 75.728 231.08C75.8773 231.397 75.952 231.785 75.952 232.242C75.952 232.727 75.8587 233.157 75.672 233.53C75.4853 233.903 75.224 234.216 74.888 234.468C74.5613 234.72 74.1833 234.907 73.754 235.028C73.3247 235.159 72.872 235.224 72.396 235.224ZM77.649 235V227.636H79.147V235H77.649ZM78.405 226.11C78.125 226.11 77.8823 226.012 77.677 225.816C77.481 225.611 77.383 225.368 77.383 225.088C77.383 224.799 77.481 224.556 77.677 224.36C77.8823 224.164 78.125 224.066 78.405 224.066C78.685 224.066 78.923 224.164 79.119 224.36C79.3243 224.556 79.427 224.799 79.427 225.088C79.427 225.368 79.3243 225.611 79.119 225.816C78.923 226.012 78.685 226.11 78.405 226.11ZM84.1316 238.248C83.5343 238.248 83.0069 238.145 82.5496 237.94C82.0923 237.744 81.7236 237.473 81.4436 237.128C81.1636 236.783 80.9769 236.4 80.8836 235.98L82.3396 235.644C82.4516 236.008 82.6569 236.307 82.9556 236.54C83.2543 236.783 83.6463 236.904 84.1316 236.904C84.7943 236.904 85.2936 236.703 85.6296 236.302C85.9656 235.901 86.1336 235.345 86.1336 234.636V233.796H86.0496C85.8069 234.16 85.5036 234.445 85.1396 234.65C84.7849 234.846 84.3276 234.944 83.7676 234.944C83.2076 234.944 82.6896 234.799 82.2136 234.51C81.7469 234.211 81.3689 233.782 81.0796 233.222C80.7903 232.662 80.6456 231.981 80.6456 231.178C80.6456 230.375 80.7903 229.694 81.0796 229.134C81.3689 228.574 81.7516 228.149 82.2276 227.86C82.7129 227.561 83.2403 227.412 83.8096 227.412C84.3229 227.412 84.7709 227.51 85.1536 227.706C85.5363 227.902 85.8349 228.173 86.0496 228.518H86.1336V227.636H87.5616V234.608C87.5616 235.392 87.4216 236.055 87.1416 236.596C86.8616 237.147 86.4649 237.557 85.9516 237.828C85.4383 238.108 84.8316 238.248 84.1316 238.248ZM84.1456 233.572C84.5096 233.572 84.8409 233.483 85.1396 233.306C85.4383 233.129 85.6763 232.863 85.8536 232.508C86.0403 232.153 86.1336 231.71 86.1336 231.178C86.1336 230.646 86.0403 230.203 85.8536 229.848C85.6763 229.493 85.4383 229.227 85.1396 229.05C84.8409 228.873 84.5096 228.784 84.1456 228.784C83.7816 228.784 83.4456 228.873 83.1376 229.05C82.8389 229.227 82.5963 229.493 82.4096 229.848C82.2323 230.203 82.1436 230.646 82.1436 231.178C82.1436 231.71 82.2323 232.153 82.4096 232.508C82.5963 232.863 82.8389 233.129 83.1376 233.306C83.4456 233.483 83.7816 233.572 84.1456 233.572ZM89.5298 235V227.636H90.9438V228.574H91.0278C91.2238 228.229 91.5131 227.949 91.8958 227.734C92.2878 227.519 92.7265 227.412 93.2118 227.412C94.0518 227.412 94.6911 227.659 95.1298 228.154C95.5778 228.649 95.8018 229.335 95.8018 230.212V235H94.2898V230.408C94.2898 229.857 94.1498 229.451 93.8698 229.19C93.5991 228.929 93.2445 228.798 92.8058 228.798C92.4418 228.798 92.1245 228.891 91.8538 229.078C91.5925 229.255 91.3871 229.498 91.2378 229.806C91.0978 230.105 91.0278 230.441 91.0278 230.814V235H89.5298ZM101.356 235V227.636H102.854V235H101.356ZM102.112 226.11C101.832 226.11 101.589 226.012 101.384 225.816C101.188 225.611 101.09 225.368 101.09 225.088C101.09 224.799 101.188 224.556 101.384 224.36C101.589 224.164 101.832 224.066 102.112 224.066C102.392 224.066 102.63 224.164 102.826 224.36C103.031 224.556 103.134 224.799 103.134 225.088C103.134 225.368 103.031 225.611 102.826 225.816C102.63 226.012 102.392 226.11 102.112 226.11ZM104.897 235V227.636H106.311V228.574H106.395C106.591 228.229 106.88 227.949 107.263 227.734C107.655 227.519 108.094 227.412 108.579 227.412C109.419 227.412 110.058 227.659 110.497 228.154C110.945 228.649 111.169 229.335 111.169 230.212V235H109.657V230.408C109.657 229.857 109.517 229.451 109.237 229.19C108.966 228.929 108.612 228.798 108.173 228.798C107.809 228.798 107.492 228.891 107.221 229.078C106.96 229.255 106.754 229.498 106.605 229.806C106.465 230.105 106.395 230.441 106.395 230.814V235H104.897ZM118.011 235L115.897 227.636H117.507L118.823 232.872H118.879L120.363 227.636H121.889L123.373 232.858H123.429L124.745 227.636H126.327L124.199 235H122.631L121.119 229.652H121.063L119.565 235H118.011ZM127.551 235V227.636H129.049V235H127.551ZM128.307 226.11C128.027 226.11 127.785 226.012 127.579 225.816C127.383 225.611 127.285 225.368 127.285 225.088C127.285 224.799 127.383 224.556 127.579 224.36C127.785 224.164 128.027 224.066 128.307 224.066C128.587 224.066 128.825 224.164 129.021 224.36C129.227 224.556 129.329 224.799 129.329 225.088C129.329 225.368 129.227 225.611 129.021 225.816C128.825 226.012 128.587 226.11 128.307 226.11ZM130.45 227.636H131.64V225.62H133.138V227.636H134.818V228.952H133.138V232.662C133.138 232.998 133.213 233.255 133.362 233.432C133.511 233.609 133.74 233.698 134.048 233.698C134.216 233.698 134.361 233.679 134.482 233.642C134.603 233.595 134.725 233.535 134.846 233.46V234.916C134.697 234.972 134.533 235.019 134.356 235.056C134.188 235.093 133.987 235.112 133.754 235.112C133.11 235.112 132.597 234.921 132.214 234.538C131.831 234.146 131.64 233.609 131.64 232.928V228.952H130.45V227.636ZM136.506 235V224.136H138.004V227.524L137.92 228.63H138.004C138.191 228.285 138.49 227.995 138.9 227.762C139.311 227.529 139.768 227.412 140.272 227.412C140.86 227.412 141.346 227.529 141.728 227.762C142.12 227.995 142.419 228.322 142.624 228.742C142.83 229.162 142.932 229.652 142.932 230.212V235H141.434V230.408C141.434 230.063 141.369 229.773 141.238 229.54C141.117 229.297 140.94 229.115 140.706 228.994C140.473 228.863 140.193 228.798 139.866 228.798C139.502 228.798 139.18 228.896 138.9 229.092C138.62 229.279 138.401 229.535 138.242 229.862C138.084 230.179 138.004 230.539 138.004 230.94V235H136.506ZM152.41 235.224C151.747 235.224 151.14 235.103 150.59 234.86C150.048 234.608 149.572 234.249 149.162 233.782C148.76 233.315 148.448 232.765 148.224 232.13C148.009 231.486 147.902 230.772 147.902 229.988C147.902 229.204 148.018 228.495 148.252 227.86C148.485 227.216 148.812 226.661 149.232 226.194C149.652 225.727 150.146 225.373 150.716 225.13C151.285 224.878 151.906 224.752 152.578 224.752C153.67 224.752 154.584 225.004 155.322 225.508C156.068 226.012 156.54 226.717 156.736 227.622L155.266 228.014C155.154 227.641 154.981 227.319 154.748 227.048C154.514 226.777 154.211 226.572 153.838 226.432C153.474 226.283 153.054 226.208 152.578 226.208C152.148 226.208 151.742 226.292 151.36 226.46C150.986 226.619 150.655 226.857 150.366 227.174C150.086 227.491 149.862 227.888 149.694 228.364C149.535 228.831 149.456 229.372 149.456 229.988C149.456 230.604 149.535 231.145 149.694 231.612C149.852 232.079 150.072 232.475 150.352 232.802C150.632 233.119 150.954 233.362 151.318 233.53C151.691 233.689 152.088 233.768 152.508 233.768C152.937 233.768 153.32 233.703 153.656 233.572C154.001 233.441 154.295 233.259 154.538 233.026C154.79 232.783 154.99 232.503 155.14 232.186C155.289 231.859 155.387 231.509 155.434 231.136H152.55V229.792H156.918V235H155.504V233.6H155.419C155.289 233.843 155.126 234.062 154.93 234.258C154.734 234.454 154.51 234.627 154.257 234.776C154.006 234.916 153.726 235.023 153.418 235.098C153.11 235.182 152.774 235.224 152.41 235.224ZM161.942 235.224C161.205 235.224 160.566 235.061 160.024 234.734C159.483 234.398 159.063 233.936 158.764 233.348C158.475 232.76 158.33 232.083 158.33 231.318C158.33 230.543 158.475 229.867 158.764 229.288C159.063 228.7 159.483 228.243 160.024 227.916C160.566 227.58 161.205 227.412 161.942 227.412C162.689 227.412 163.328 227.58 163.86 227.916C164.402 228.243 164.817 228.7 165.106 229.288C165.405 229.867 165.554 230.543 165.554 231.318C165.554 232.083 165.405 232.76 165.106 233.348C164.817 233.936 164.402 234.398 163.86 234.734C163.328 235.061 162.689 235.224 161.942 235.224ZM161.942 233.838C162.362 233.838 162.731 233.74 163.048 233.544C163.366 233.348 163.613 233.063 163.79 232.69C163.968 232.307 164.056 231.85 164.056 231.318C164.056 230.777 163.968 230.319 163.79 229.946C163.613 229.573 163.366 229.288 163.048 229.092C162.731 228.896 162.367 228.798 161.956 228.798C161.536 228.798 161.168 228.896 160.85 229.092C160.533 229.288 160.281 229.573 160.094 229.946C159.917 230.319 159.828 230.777 159.828 231.318C159.828 231.859 159.917 232.317 160.094 232.69C160.281 233.063 160.533 233.348 160.85 233.544C161.177 233.74 161.541 233.838 161.942 233.838ZM170.337 235.224C169.599 235.224 168.96 235.061 168.419 234.734C167.877 234.398 167.457 233.936 167.159 233.348C166.869 232.76 166.725 232.083 166.725 231.318C166.725 230.543 166.869 229.867 167.159 229.288C167.457 228.7 167.877 228.243 168.419 227.916C168.96 227.58 169.599 227.412 170.337 227.412C171.083 227.412 171.723 227.58 172.255 227.916C172.796 228.243 173.211 228.7 173.501 229.288C173.799 229.867 173.949 230.543 173.949 231.318C173.949 232.083 173.799 232.76 173.501 233.348C173.211 233.936 172.796 234.398 172.255 234.734C171.723 235.061 171.083 235.224 170.337 235.224ZM170.337 233.838C170.757 233.838 171.125 233.74 171.443 233.544C171.76 233.348 172.007 233.063 172.185 232.69C172.362 232.307 172.451 231.85 172.451 231.318C172.451 230.777 172.362 230.319 172.185 229.946C172.007 229.573 171.76 229.288 171.443 229.092C171.125 228.896 170.761 228.798 170.351 228.798C169.931 228.798 169.562 228.896 169.245 229.092C168.927 229.288 168.675 229.573 168.489 229.946C168.311 230.319 168.223 230.777 168.223 231.318C168.223 231.859 168.311 232.317 168.489 232.69C168.675 233.063 168.927 233.348 169.245 233.544C169.571 233.74 169.935 233.838 170.337 233.838ZM178.563 238.248C177.966 238.248 177.439 238.145 176.981 237.94C176.524 237.744 176.155 237.473 175.875 237.128C175.595 236.783 175.409 236.4 175.315 235.98L176.771 235.644C176.883 236.008 177.089 236.307 177.387 236.54C177.686 236.783 178.078 236.904 178.563 236.904C179.226 236.904 179.725 236.703 180.061 236.302C180.397 235.901 180.565 235.345 180.565 234.636V233.796H180.481C180.239 234.16 179.935 234.445 179.571 234.65C179.217 234.846 178.759 234.944 178.199 234.944C177.639 234.944 177.121 234.799 176.645 234.51C176.179 234.211 175.801 233.782 175.511 233.222C175.222 232.662 175.077 231.981 175.077 231.178C175.077 230.375 175.222 229.694 175.511 229.134C175.801 228.574 176.183 228.149 176.659 227.86C177.145 227.561 177.672 227.412 178.241 227.412C178.755 227.412 179.203 227.51 179.585 227.706C179.968 227.902 180.267 228.173 180.481 228.518H180.565V227.636H181.993V234.608C181.993 235.392 181.853 236.055 181.573 236.596C181.293 237.147 180.897 237.557 180.383 237.828C179.87 238.108 179.263 238.248 178.563 238.248ZM178.577 233.572C178.941 233.572 179.273 233.483 179.571 233.306C179.87 233.129 180.108 232.863 180.285 232.508C180.472 232.153 180.565 231.71 180.565 231.178C180.565 230.646 180.472 230.203 180.285 229.848C180.108 229.493 179.87 229.227 179.571 229.05C179.273 228.873 178.941 228.784 178.577 228.784C178.213 228.784 177.877 228.873 177.569 229.05C177.271 229.227 177.028 229.493 176.841 229.848C176.664 230.203 176.575 230.646 176.575 231.178C176.575 231.71 176.664 232.153 176.841 232.508C177.028 232.863 177.271 233.129 177.569 233.306C177.877 233.483 178.213 233.572 178.577 233.572ZM183.961 235V224.136H185.473V235H183.961ZM190.514 235.224C189.804 235.224 189.184 235.061 188.652 234.734C188.129 234.398 187.723 233.936 187.434 233.348C187.154 232.76 187.014 232.088 187.014 231.332C187.014 230.548 187.163 229.862 187.462 229.274C187.76 228.686 188.171 228.229 188.694 227.902C189.226 227.575 189.832 227.412 190.514 227.412C191.26 227.412 191.881 227.552 192.376 227.832C192.88 228.112 193.258 228.513 193.51 229.036C193.771 229.559 193.902 230.184 193.902 230.912C193.902 231.043 193.897 231.173 193.888 231.304C193.888 231.425 193.878 231.537 193.86 231.64H188.484C188.512 232.06 188.596 232.424 188.736 232.732C188.913 233.105 189.16 233.39 189.478 233.586C189.795 233.782 190.159 233.88 190.57 233.88C191.083 233.88 191.48 233.768 191.76 233.544C192.049 233.311 192.259 233.021 192.39 232.676L193.706 233.026C193.519 233.661 193.164 234.188 192.642 234.608C192.119 235.019 191.41 235.224 190.514 235.224ZM188.54 230.506H192.418C192.399 230.226 192.348 229.974 192.264 229.75C192.18 229.526 192.058 229.335 191.9 229.176C191.741 229.017 191.545 228.896 191.312 228.812C191.088 228.728 190.826 228.686 190.528 228.686C190.126 228.686 189.767 228.789 189.45 228.994C189.142 229.19 188.904 229.484 188.736 229.876C188.652 230.063 188.586 230.273 188.54 230.506Z" fill="#1F1F1F"/>
<rect x="26" y="210" width="12" height="40" fill="#37BE5F" fill-opacity="0.3"/>
<rect x="195" y="210" width="12" height="40" fill="#37BE5F" fill-opacity="0.3"/>
<rect x="58" y="210" width="10" height="40" fill="#F29900" fill-opacity="0.3"/>
<rect width="10" height="181" transform="matrix(2.87299e-08 1 1 -6.65052e-08 26 210)" fill="#F29900" fill-opacity="0.3"/>
<rect width="10" height="181" transform="matrix(2.87299e-08 1 1 -6.65052e-08 26 240)" fill="#F29900" fill-opacity="0.3"/>
<defs>
<clipPath id="clip0_819_5513">
<rect width="20" height="20" fill="white" transform="translate(38 80)"/>
</clipPath>
<clipPath id="clip1_819_5513">
<rect width="20" height="20" fill="white" transform="translate(38 150)"/>
</clipPath>
<clipPath id="clip2_819_5513">
<rect width="20" height="20" fill="white" transform="translate(36 10)"/>
</clipPath>
<clipPath id="clip3_819_5513">
<rect width="20" height="20" fill="white" transform="translate(38 220)"/>
</clipPath>
</defs>
</svg>
