<svg width="230" height="270" viewBox="0 0 230 270" fill="none" xmlns="http://www.w3.org/2000/svg">
<rect x="26" y="74" width="191" height="44" rx="22" fill="white"/>
<g clip-path="url(#clip0_819_5511)">
<path d="M61.6 96.2271C61.6 95.518 61.5364 94.8362 61.4182 94.1816H52V98.0498H57.3818C57.15 99.2998 56.4455 100.359 55.3864 101.068V103.577H58.6182C60.5091 101.836 61.6 99.2726 61.6 96.2271V96.2271Z" fill="#4285F4"/>
<path d="M52 106C54.7 106 56.9636 105.105 58.6182 103.578L55.3864 101.069C54.4909 101.669 53.3454 102.023 52 102.023C49.3954 102.023 47.1909 100.264 46.4045 97.9004H43.0636V100.491C44.7091 103.759 48.0909 106 52 106Z" fill="#34A853"/>
<path d="M46.4045 97.8997C46.2045 97.2997 46.0909 96.6588 46.0909 95.9997C46.0909 95.3406 46.2045 94.6997 46.4045 94.0997V91.5088H43.0636C42.3864 92.8588 42 94.3861 42 95.9997C42 97.6133 42.3864 99.1406 43.0636 100.491L46.4045 97.8997V97.8997Z" fill="#FBBC05"/>
<path d="M52 89.9773C53.4682 89.9773 54.7864 90.4818 55.8227 91.4727L58.6909 88.6045C56.9591 86.9909 54.6954 86 52 86C48.0909 86 44.7091 88.2409 43.0636 91.5091L46.4045 94.1C47.1909 91.7364 49.3954 89.9773 52 89.9773Z" fill="#EA4335"/>
</g>
<path d="M78.396 101.224C77.7147 101.224 77.108 101.107 76.576 100.874C76.044 100.641 75.6053 100.295 75.26 99.838C74.924 99.3807 74.6953 98.8207 74.574 98.158L76.114 97.822C76.2167 98.4007 76.4593 98.872 76.842 99.236C77.2247 99.5907 77.7473 99.768 78.41 99.768C78.8113 99.768 79.1613 99.7073 79.46 99.586C79.768 99.4647 80.006 99.292 80.174 99.068C80.342 98.8347 80.426 98.5687 80.426 98.27C80.426 97.9527 80.3513 97.6913 80.202 97.486C80.062 97.2807 79.8333 97.1033 79.516 96.954C79.208 96.7953 78.7973 96.6413 78.284 96.492L77.542 96.254C77.2247 96.1607 76.912 96.044 76.604 95.904C76.296 95.764 76.016 95.5867 75.764 95.372C75.512 95.1573 75.3113 94.896 75.162 94.588C75.0127 94.28 74.938 93.916 74.938 93.496C74.938 92.9827 75.0733 92.5207 75.344 92.11C75.6147 91.69 75.9973 91.3587 76.492 91.116C76.996 90.8733 77.5933 90.752 78.284 90.752C78.984 90.752 79.5767 90.8687 80.062 91.102C80.5473 91.3353 80.9253 91.6573 81.196 92.068C81.476 92.4693 81.6487 92.9267 81.714 93.44L80.258 93.664C80.202 93.3653 80.09 93.104 79.922 92.88C79.754 92.656 79.5347 92.4833 79.264 92.362C79.0027 92.2407 78.6807 92.18 78.298 92.18C77.9433 92.18 77.626 92.236 77.346 92.348C77.066 92.4507 76.8467 92.5953 76.688 92.782C76.5293 92.9687 76.45 93.188 76.45 93.44C76.45 93.8133 76.6133 94.1213 76.94 94.364C77.2667 94.5973 77.752 94.812 78.396 95.008L79.124 95.232C79.516 95.3533 79.88 95.4933 80.216 95.652C80.5613 95.8107 80.86 96.0067 81.112 96.24C81.3733 96.4733 81.5787 96.7533 81.728 97.08C81.8773 97.3973 81.952 97.7847 81.952 98.242C81.952 98.7273 81.8587 99.1567 81.672 99.53C81.4853 99.9033 81.224 100.216 80.888 100.468C80.5613 100.72 80.1833 100.907 79.754 101.028C79.3247 101.159 78.872 101.224 78.396 101.224ZM83.649 101V93.636H85.147V101H83.649ZM84.405 92.11C84.125 92.11 83.8823 92.012 83.677 91.816C83.481 91.6107 83.383 91.368 83.383 91.088C83.383 90.7987 83.481 90.556 83.677 90.36C83.8823 90.164 84.125 90.066 84.405 90.066C84.685 90.066 84.923 90.164 85.119 90.36C85.3243 90.556 85.427 90.7987 85.427 91.088C85.427 91.368 85.3243 91.6107 85.119 91.816C84.923 92.012 84.685 92.11 84.405 92.11ZM90.1316 104.248C89.5343 104.248 89.0069 104.145 88.5496 103.94C88.0923 103.744 87.7236 103.473 87.4436 103.128C87.1636 102.783 86.9769 102.4 86.8836 101.98L88.3396 101.644C88.4516 102.008 88.6569 102.307 88.9556 102.54C89.2543 102.783 89.6463 102.904 90.1316 102.904C90.7943 102.904 91.2936 102.703 91.6296 102.302C91.9656 101.901 92.1336 101.345 92.1336 100.636V99.796H92.0496C91.8069 100.16 91.5036 100.445 91.1396 100.65C90.7849 100.846 90.3276 100.944 89.7676 100.944C89.2076 100.944 88.6896 100.799 88.2136 100.51C87.7469 100.211 87.3689 99.782 87.0796 99.222C86.7903 98.662 86.6456 97.9807 86.6456 97.178C86.6456 96.3753 86.7903 95.694 87.0796 95.134C87.3689 94.574 87.7516 94.1493 88.2276 93.86C88.7129 93.5613 89.2403 93.412 89.8096 93.412C90.3229 93.412 90.7709 93.51 91.1536 93.706C91.5363 93.902 91.8349 94.1727 92.0496 94.518H92.1336V93.636H93.5616V100.608C93.5616 101.392 93.4216 102.055 93.1416 102.596C92.8616 103.147 92.4649 103.557 91.9516 103.828C91.4383 104.108 90.8316 104.248 90.1316 104.248ZM90.1456 99.572C90.5096 99.572 90.8409 99.4833 91.1396 99.306C91.4383 99.1287 91.6763 98.8627 91.8536 98.508C92.0403 98.1533 92.1336 97.71 92.1336 97.178C92.1336 96.646 92.0403 96.2027 91.8536 95.848C91.6763 95.4933 91.4383 95.2273 91.1396 95.05C90.8409 94.8727 90.5096 94.784 90.1456 94.784C89.7816 94.784 89.4456 94.8727 89.1376 95.05C88.8389 95.2273 88.5963 95.4933 88.4096 95.848C88.2323 96.2027 88.1436 96.646 88.1436 97.178C88.1436 97.71 88.2323 98.1533 88.4096 98.508C88.5963 98.8627 88.8389 99.1287 89.1376 99.306C89.4456 99.4833 89.7816 99.572 90.1456 99.572ZM95.5298 101V93.636H96.9438V94.574H97.0278C97.2238 94.2287 97.5131 93.9487 97.8958 93.734C98.2878 93.5193 98.7265 93.412 99.2118 93.412C100.052 93.412 100.691 93.6593 101.13 94.154C101.578 94.6487 101.802 95.3347 101.802 96.212V101H100.29V96.408C100.29 95.8573 100.15 95.4513 99.8698 95.19C99.5991 94.9287 99.2445 94.798 98.8058 94.798C98.4418 94.798 98.1245 94.8913 97.8538 95.078C97.5925 95.2553 97.3871 95.498 97.2378 95.806C97.0978 96.1047 97.0278 96.4407 97.0278 96.814V101H95.5298ZM107.356 101V93.636H108.854V101H107.356ZM108.112 92.11C107.832 92.11 107.589 92.012 107.384 91.816C107.188 91.6107 107.09 91.368 107.09 91.088C107.09 90.7987 107.188 90.556 107.384 90.36C107.589 90.164 107.832 90.066 108.112 90.066C108.392 90.066 108.63 90.164 108.826 90.36C109.031 90.556 109.134 90.7987 109.134 91.088C109.134 91.368 109.031 91.6107 108.826 91.816C108.63 92.012 108.392 92.11 108.112 92.11ZM110.897 101V93.636H112.311V94.574H112.395C112.591 94.2287 112.88 93.9487 113.263 93.734C113.655 93.5193 114.094 93.412 114.579 93.412C115.419 93.412 116.058 93.6593 116.497 94.154C116.945 94.6487 117.169 95.3347 117.169 96.212V101H115.657V96.408C115.657 95.8573 115.517 95.4513 115.237 95.19C114.966 94.9287 114.612 94.798 114.173 94.798C113.809 94.798 113.492 94.8913 113.221 95.078C112.96 95.2553 112.754 95.498 112.605 95.806C112.465 96.1047 112.395 96.4407 112.395 96.814V101H110.897ZM124.011 101L121.897 93.636H123.507L124.823 98.872H124.879L126.363 93.636H127.889L129.373 98.858H129.429L130.745 93.636H132.327L130.199 101H128.631L127.119 95.652H127.063L125.565 101H124.011ZM133.551 101V93.636H135.049V101H133.551ZM134.307 92.11C134.027 92.11 133.785 92.012 133.579 91.816C133.383 91.6107 133.285 91.368 133.285 91.088C133.285 90.7987 133.383 90.556 133.579 90.36C133.785 90.164 134.027 90.066 134.307 90.066C134.587 90.066 134.825 90.164 135.021 90.36C135.227 90.556 135.329 90.7987 135.329 91.088C135.329 91.368 135.227 91.6107 135.021 91.816C134.825 92.012 134.587 92.11 134.307 92.11ZM136.45 93.636H137.64V91.62H139.138V93.636H140.818V94.952H139.138V98.662C139.138 98.998 139.213 99.2547 139.362 99.432C139.511 99.6093 139.74 99.698 140.048 99.698C140.216 99.698 140.361 99.6793 140.482 99.642C140.603 99.5953 140.725 99.5347 140.846 99.46V100.916C140.697 100.972 140.533 101.019 140.356 101.056C140.188 101.093 139.987 101.112 139.754 101.112C139.11 101.112 138.597 100.921 138.214 100.538C137.831 100.146 137.64 99.6093 137.64 98.928V94.952H136.45V93.636ZM142.506 101V90.136H144.004V93.524L143.92 94.63H144.004C144.191 94.2847 144.49 93.9953 144.9 93.762C145.311 93.5287 145.768 93.412 146.272 93.412C146.86 93.412 147.346 93.5287 147.728 93.762C148.12 93.9953 148.419 94.322 148.624 94.742C148.83 95.162 148.932 95.652 148.932 96.212V101H147.434V96.408C147.434 96.0627 147.369 95.7733 147.238 95.54C147.117 95.2973 146.94 95.1153 146.706 94.994C146.473 94.8633 146.193 94.798 145.866 94.798C145.502 94.798 145.18 94.896 144.9 95.092C144.62 95.2787 144.401 95.5353 144.242 95.862C144.084 96.1793 144.004 96.5387 144.004 96.94V101H142.506ZM158.41 101.224C157.747 101.224 157.14 101.103 156.59 100.86C156.048 100.608 155.572 100.249 155.162 99.782C154.76 99.3153 154.448 98.7647 154.224 98.13C154.009 97.486 153.902 96.772 153.902 95.988C153.902 95.204 154.018 94.4947 154.252 93.86C154.485 93.216 154.812 92.6607 155.232 92.194C155.652 91.7273 156.146 91.3727 156.716 91.13C157.285 90.878 157.906 90.752 158.578 90.752C159.67 90.752 160.584 91.004 161.322 91.508C162.068 92.012 162.54 92.7167 162.736 93.622L161.266 94.014C161.154 93.6407 160.981 93.3187 160.748 93.048C160.514 92.7773 160.211 92.572 159.838 92.432C159.474 92.2827 159.054 92.208 158.578 92.208C158.148 92.208 157.742 92.292 157.36 92.46C156.986 92.6187 156.655 92.8567 156.366 93.174C156.086 93.4913 155.862 93.888 155.694 94.364C155.535 94.8307 155.456 95.372 155.456 95.988C155.456 96.604 155.535 97.1453 155.694 97.612C155.852 98.0787 156.072 98.4753 156.352 98.802C156.632 99.1193 156.954 99.362 157.318 99.53C157.691 99.6887 158.088 99.768 158.508 99.768C158.937 99.768 159.32 99.7027 159.656 99.572C160.001 99.4413 160.295 99.2593 160.538 99.026C160.79 98.7833 160.99 98.5033 161.14 98.186C161.289 97.8593 161.387 97.5093 161.434 97.136H158.55V95.792H162.918V101H161.504V99.6H161.419C161.289 99.8427 161.126 100.062 160.93 100.258C160.734 100.454 160.51 100.627 160.257 100.776C160.006 100.916 159.726 101.023 159.418 101.098C159.11 101.182 158.774 101.224 158.41 101.224ZM167.942 101.224C167.205 101.224 166.566 101.061 166.024 100.734C165.483 100.398 165.063 99.936 164.764 99.348C164.475 98.76 164.33 98.0833 164.33 97.318C164.33 96.5433 164.475 95.8667 164.764 95.288C165.063 94.7 165.483 94.2427 166.024 93.916C166.566 93.58 167.205 93.412 167.942 93.412C168.689 93.412 169.328 93.58 169.86 93.916C170.402 94.2427 170.817 94.7 171.106 95.288C171.405 95.8667 171.554 96.5433 171.554 97.318C171.554 98.0833 171.405 98.76 171.106 99.348C170.817 99.936 170.402 100.398 169.86 100.734C169.328 101.061 168.689 101.224 167.942 101.224ZM167.942 99.838C168.362 99.838 168.731 99.74 169.048 99.544C169.366 99.348 169.613 99.0633 169.79 98.69C169.968 98.3073 170.056 97.85 170.056 97.318C170.056 96.7767 169.968 96.3193 169.79 95.946C169.613 95.5727 169.366 95.288 169.048 95.092C168.731 94.896 168.367 94.798 167.956 94.798C167.536 94.798 167.168 94.896 166.85 95.092C166.533 95.288 166.281 95.5727 166.094 95.946C165.917 96.3193 165.828 96.7767 165.828 97.318C165.828 97.8593 165.917 98.3167 166.094 98.69C166.281 99.0633 166.533 99.348 166.85 99.544C167.177 99.74 167.541 99.838 167.942 99.838ZM176.337 101.224C175.599 101.224 174.96 101.061 174.419 100.734C173.877 100.398 173.457 99.936 173.159 99.348C172.869 98.76 172.725 98.0833 172.725 97.318C172.725 96.5433 172.869 95.8667 173.159 95.288C173.457 94.7 173.877 94.2427 174.419 93.916C174.96 93.58 175.599 93.412 176.337 93.412C177.083 93.412 177.723 93.58 178.255 93.916C178.796 94.2427 179.211 94.7 179.501 95.288C179.799 95.8667 179.949 96.5433 179.949 97.318C179.949 98.0833 179.799 98.76 179.501 99.348C179.211 99.936 178.796 100.398 178.255 100.734C177.723 101.061 177.083 101.224 176.337 101.224ZM176.337 99.838C176.757 99.838 177.125 99.74 177.443 99.544C177.76 99.348 178.007 99.0633 178.185 98.69C178.362 98.3073 178.451 97.85 178.451 97.318C178.451 96.7767 178.362 96.3193 178.185 95.946C178.007 95.5727 177.76 95.288 177.443 95.092C177.125 94.896 176.761 94.798 176.351 94.798C175.931 94.798 175.562 94.896 175.245 95.092C174.927 95.288 174.675 95.5727 174.489 95.946C174.311 96.3193 174.223 96.7767 174.223 97.318C174.223 97.8593 174.311 98.3167 174.489 98.69C174.675 99.0633 174.927 99.348 175.245 99.544C175.571 99.74 175.935 99.838 176.337 99.838ZM184.563 104.248C183.966 104.248 183.439 104.145 182.981 103.94C182.524 103.744 182.155 103.473 181.875 103.128C181.595 102.783 181.409 102.4 181.315 101.98L182.771 101.644C182.883 102.008 183.089 102.307 183.387 102.54C183.686 102.783 184.078 102.904 184.563 102.904C185.226 102.904 185.725 102.703 186.061 102.302C186.397 101.901 186.565 101.345 186.565 100.636V99.796H186.481C186.239 100.16 185.935 100.445 185.571 100.65C185.217 100.846 184.759 100.944 184.199 100.944C183.639 100.944 183.121 100.799 182.645 100.51C182.179 100.211 181.801 99.782 181.511 99.222C181.222 98.662 181.077 97.9807 181.077 97.178C181.077 96.3753 181.222 95.694 181.511 95.134C181.801 94.574 182.183 94.1493 182.659 93.86C183.145 93.5613 183.672 93.412 184.241 93.412C184.755 93.412 185.203 93.51 185.585 93.706C185.968 93.902 186.267 94.1727 186.481 94.518H186.565V93.636H187.993V100.608C187.993 101.392 187.853 102.055 187.573 102.596C187.293 103.147 186.897 103.557 186.383 103.828C185.87 104.108 185.263 104.248 184.563 104.248ZM184.577 99.572C184.941 99.572 185.273 99.4833 185.571 99.306C185.87 99.1287 186.108 98.8627 186.285 98.508C186.472 98.1533 186.565 97.71 186.565 97.178C186.565 96.646 186.472 96.2027 186.285 95.848C186.108 95.4933 185.87 95.2273 185.571 95.05C185.273 94.8727 184.941 94.784 184.577 94.784C184.213 94.784 183.877 94.8727 183.569 95.05C183.271 95.2273 183.028 95.4933 182.841 95.848C182.664 96.2027 182.575 96.646 182.575 97.178C182.575 97.71 182.664 98.1533 182.841 98.508C183.028 98.8627 183.271 99.1287 183.569 99.306C183.877 99.4833 184.213 99.572 184.577 99.572ZM189.961 101V90.136H191.473V101H189.961ZM196.514 101.224C195.804 101.224 195.184 101.061 194.652 100.734C194.129 100.398 193.723 99.936 193.434 99.348C193.154 98.76 193.014 98.088 193.014 97.332C193.014 96.548 193.163 95.862 193.462 95.274C193.76 94.686 194.171 94.2287 194.694 93.902C195.226 93.5753 195.832 93.412 196.514 93.412C197.26 93.412 197.881 93.552 198.376 93.832C198.88 94.112 199.258 94.5133 199.51 95.036C199.771 95.5587 199.902 96.184 199.902 96.912C199.902 97.0427 199.897 97.1733 199.888 97.304C199.888 97.4253 199.878 97.5373 199.86 97.64H194.484C194.512 98.06 194.596 98.424 194.736 98.732C194.913 99.1053 195.16 99.39 195.478 99.586C195.795 99.782 196.159 99.88 196.57 99.88C197.083 99.88 197.48 99.768 197.76 99.544C198.049 99.3107 198.259 99.0213 198.39 98.676L199.706 99.026C199.519 99.6607 199.164 100.188 198.642 100.608C198.119 101.019 197.41 101.224 196.514 101.224ZM194.54 96.506H198.418C198.399 96.226 198.348 95.974 198.264 95.75C198.18 95.526 198.058 95.3347 197.9 95.176C197.741 95.0173 197.545 94.896 197.312 94.812C197.088 94.728 196.826 94.686 196.528 94.686C196.126 94.686 195.767 94.7887 195.45 94.994C195.142 95.19 194.904 95.484 194.736 95.876C194.652 96.0627 194.586 96.2727 194.54 96.506Z" fill="#1F1F1F"/>
<rect x="26.5" y="74.5" width="190" height="43" rx="21.5" stroke="black" stroke-opacity="0.1"/>
<rect x="26" width="44" height="44" rx="22" fill="white"/>
<g clip-path="url(#clip1_819_5511)">
<path d="M57.6 22.2271C57.6 21.518 57.5364 20.8362 57.4182 20.1816H48V24.0498H53.3818C53.15 25.2998 52.4455 26.3589 51.3864 27.068V29.5771H54.6182C56.5091 27.8362 57.6 25.2726 57.6 22.2271Z" fill="#4285F4"/>
<path d="M48 32.0004C50.7 32.0004 52.9636 31.1049 54.6182 29.5777L51.3864 27.0686C50.4909 27.6686 49.3454 28.0231 48 28.0231C45.3954 28.0231 43.1909 26.264 42.4045 23.9004H39.0636V26.4913C40.7091 29.7595 44.0909 32.0004 48 32.0004Z" fill="#34A853"/>
<path d="M42.4045 23.8997C42.2045 23.2997 42.0909 22.6588 42.0909 21.9997C42.0909 21.3406 42.2045 20.6997 42.4045 20.0997V17.5088H39.0636C38.3864 18.8588 38 20.3861 38 21.9997C38 23.6133 38.3864 25.1406 39.0636 26.4906L42.4045 23.8997Z" fill="#FBBC05"/>
<path d="M48 15.9773C49.4682 15.9773 50.7864 16.4818 51.8227 17.4727L54.6909 14.6045C52.9591 12.9909 50.6954 12 48 12C44.0909 12 40.7091 14.2409 39.0636 17.5091L42.4045 20.1C43.1909 17.7364 45.3954 15.9773 48 15.9773Z" fill="#EA4335"/>
</g>
<g clip-path="url(#clip2_819_5511)">
<path d="M61.6 170.227C61.6 169.518 61.5364 168.836 61.4182 168.182H52V172.05H57.3818C57.15 173.3 56.4455 174.359 55.3864 175.068V177.577H58.6182C60.5091 175.836 61.6 173.273 61.6 170.227V170.227Z" fill="#4285F4"/>
<path d="M52 180C54.7 180 56.9636 179.105 58.6182 177.578L55.3864 175.069C54.4909 175.669 53.3454 176.023 52 176.023C49.3954 176.023 47.1909 174.264 46.4045 171.9H43.0636V174.491C44.7091 177.759 48.0909 180 52 180Z" fill="#34A853"/>
<path d="M46.4045 171.9C46.2045 171.3 46.0909 170.659 46.0909 170C46.0909 169.341 46.2045 168.7 46.4045 168.1V165.509H43.0636C42.3864 166.859 42 168.386 42 170C42 171.613 42.3864 173.141 43.0636 174.491L46.4045 171.9V171.9Z" fill="#FBBC05"/>
<path d="M52 163.977C53.4682 163.977 54.7864 164.482 55.8227 165.473L58.6909 162.605C56.9591 160.991 54.6954 160 52 160C48.0909 160 44.7091 162.241 43.0636 165.509L46.4045 168.1C47.1909 165.736 49.3954 163.977 52 163.977Z" fill="#EA4335"/>
</g>
<path d="M78.396 175.224C77.7147 175.224 77.108 175.107 76.576 174.874C76.044 174.641 75.6053 174.295 75.26 173.838C74.924 173.381 74.6953 172.821 74.574 172.158L76.114 171.822C76.2167 172.401 76.4593 172.872 76.842 173.236C77.2247 173.591 77.7473 173.768 78.41 173.768C78.8113 173.768 79.1613 173.707 79.46 173.586C79.768 173.465 80.006 173.292 80.174 173.068C80.342 172.835 80.426 172.569 80.426 172.27C80.426 171.953 80.3513 171.691 80.202 171.486C80.062 171.281 79.8333 171.103 79.516 170.954C79.208 170.795 78.7973 170.641 78.284 170.492L77.542 170.254C77.2247 170.161 76.912 170.044 76.604 169.904C76.296 169.764 76.016 169.587 75.764 169.372C75.512 169.157 75.3113 168.896 75.162 168.588C75.0127 168.28 74.938 167.916 74.938 167.496C74.938 166.983 75.0733 166.521 75.344 166.11C75.6147 165.69 75.9973 165.359 76.492 165.116C76.996 164.873 77.5933 164.752 78.284 164.752C78.984 164.752 79.5767 164.869 80.062 165.102C80.5473 165.335 80.9253 165.657 81.196 166.068C81.476 166.469 81.6487 166.927 81.714 167.44L80.258 167.664C80.202 167.365 80.09 167.104 79.922 166.88C79.754 166.656 79.5347 166.483 79.264 166.362C79.0027 166.241 78.6807 166.18 78.298 166.18C77.9433 166.18 77.626 166.236 77.346 166.348C77.066 166.451 76.8467 166.595 76.688 166.782C76.5293 166.969 76.45 167.188 76.45 167.44C76.45 167.813 76.6133 168.121 76.94 168.364C77.2667 168.597 77.752 168.812 78.396 169.008L79.124 169.232C79.516 169.353 79.88 169.493 80.216 169.652C80.5613 169.811 80.86 170.007 81.112 170.24C81.3733 170.473 81.5787 170.753 81.728 171.08C81.8773 171.397 81.952 171.785 81.952 172.242C81.952 172.727 81.8587 173.157 81.672 173.53C81.4853 173.903 81.224 174.216 80.888 174.468C80.5613 174.72 80.1833 174.907 79.754 175.028C79.3247 175.159 78.872 175.224 78.396 175.224ZM83.649 175V167.636H85.147V175H83.649ZM84.405 166.11C84.125 166.11 83.8823 166.012 83.677 165.816C83.481 165.611 83.383 165.368 83.383 165.088C83.383 164.799 83.481 164.556 83.677 164.36C83.8823 164.164 84.125 164.066 84.405 164.066C84.685 164.066 84.923 164.164 85.119 164.36C85.3243 164.556 85.427 164.799 85.427 165.088C85.427 165.368 85.3243 165.611 85.119 165.816C84.923 166.012 84.685 166.11 84.405 166.11ZM90.1316 178.248C89.5343 178.248 89.0069 178.145 88.5496 177.94C88.0923 177.744 87.7236 177.473 87.4436 177.128C87.1636 176.783 86.9769 176.4 86.8836 175.98L88.3396 175.644C88.4516 176.008 88.6569 176.307 88.9556 176.54C89.2543 176.783 89.6463 176.904 90.1316 176.904C90.7943 176.904 91.2936 176.703 91.6296 176.302C91.9656 175.901 92.1336 175.345 92.1336 174.636V173.796H92.0496C91.8069 174.16 91.5036 174.445 91.1396 174.65C90.7849 174.846 90.3276 174.944 89.7676 174.944C89.2076 174.944 88.6896 174.799 88.2136 174.51C87.7469 174.211 87.3689 173.782 87.0796 173.222C86.7903 172.662 86.6456 171.981 86.6456 171.178C86.6456 170.375 86.7903 169.694 87.0796 169.134C87.3689 168.574 87.7516 168.149 88.2276 167.86C88.7129 167.561 89.2403 167.412 89.8096 167.412C90.3229 167.412 90.7709 167.51 91.1536 167.706C91.5363 167.902 91.8349 168.173 92.0496 168.518H92.1336V167.636H93.5616V174.608C93.5616 175.392 93.4216 176.055 93.1416 176.596C92.8616 177.147 92.4649 177.557 91.9516 177.828C91.4383 178.108 90.8316 178.248 90.1316 178.248ZM90.1456 173.572C90.5096 173.572 90.8409 173.483 91.1396 173.306C91.4383 173.129 91.6763 172.863 91.8536 172.508C92.0403 172.153 92.1336 171.71 92.1336 171.178C92.1336 170.646 92.0403 170.203 91.8536 169.848C91.6763 169.493 91.4383 169.227 91.1396 169.05C90.8409 168.873 90.5096 168.784 90.1456 168.784C89.7816 168.784 89.4456 168.873 89.1376 169.05C88.8389 169.227 88.5963 169.493 88.4096 169.848C88.2323 170.203 88.1436 170.646 88.1436 171.178C88.1436 171.71 88.2323 172.153 88.4096 172.508C88.5963 172.863 88.8389 173.129 89.1376 173.306C89.4456 173.483 89.7816 173.572 90.1456 173.572ZM95.5298 175V167.636H96.9438V168.574H97.0278C97.2238 168.229 97.5131 167.949 97.8958 167.734C98.2878 167.519 98.7265 167.412 99.2118 167.412C100.052 167.412 100.691 167.659 101.13 168.154C101.578 168.649 101.802 169.335 101.802 170.212V175H100.29V170.408C100.29 169.857 100.15 169.451 99.8698 169.19C99.5991 168.929 99.2445 168.798 98.8058 168.798C98.4418 168.798 98.1245 168.891 97.8538 169.078C97.5925 169.255 97.3871 169.498 97.2378 169.806C97.0978 170.105 97.0278 170.441 97.0278 170.814V175H95.5298ZM107.356 175V167.636H108.854V175H107.356ZM108.112 166.11C107.832 166.11 107.589 166.012 107.384 165.816C107.188 165.611 107.09 165.368 107.09 165.088C107.09 164.799 107.188 164.556 107.384 164.36C107.589 164.164 107.832 164.066 108.112 164.066C108.392 164.066 108.63 164.164 108.826 164.36C109.031 164.556 109.134 164.799 109.134 165.088C109.134 165.368 109.031 165.611 108.826 165.816C108.63 166.012 108.392 166.11 108.112 166.11ZM110.897 175V167.636H112.311V168.574H112.395C112.591 168.229 112.88 167.949 113.263 167.734C113.655 167.519 114.094 167.412 114.579 167.412C115.419 167.412 116.058 167.659 116.497 168.154C116.945 168.649 117.169 169.335 117.169 170.212V175H115.657V170.408C115.657 169.857 115.517 169.451 115.237 169.19C114.966 168.929 114.612 168.798 114.173 168.798C113.809 168.798 113.492 168.891 113.221 169.078C112.96 169.255 112.754 169.498 112.605 169.806C112.465 170.105 112.395 170.441 112.395 170.814V175H110.897ZM124.011 175L121.897 167.636H123.507L124.823 172.872H124.879L126.363 167.636H127.889L129.373 172.858H129.429L130.745 167.636H132.327L130.199 175H128.631L127.119 169.652H127.063L125.565 175H124.011ZM133.551 175V167.636H135.049V175H133.551ZM134.307 166.11C134.027 166.11 133.785 166.012 133.579 165.816C133.383 165.611 133.285 165.368 133.285 165.088C133.285 164.799 133.383 164.556 133.579 164.36C133.785 164.164 134.027 164.066 134.307 164.066C134.587 164.066 134.825 164.164 135.021 164.36C135.227 164.556 135.329 164.799 135.329 165.088C135.329 165.368 135.227 165.611 135.021 165.816C134.825 166.012 134.587 166.11 134.307 166.11ZM136.45 167.636H137.64V165.62H139.138V167.636H140.818V168.952H139.138V172.662C139.138 172.998 139.213 173.255 139.362 173.432C139.511 173.609 139.74 173.698 140.048 173.698C140.216 173.698 140.361 173.679 140.482 173.642C140.603 173.595 140.725 173.535 140.846 173.46V174.916C140.697 174.972 140.533 175.019 140.356 175.056C140.188 175.093 139.987 175.112 139.754 175.112C139.11 175.112 138.597 174.921 138.214 174.538C137.831 174.146 137.64 173.609 137.64 172.928V168.952H136.45V167.636ZM142.506 175V164.136H144.004V167.524L143.92 168.63H144.004C144.191 168.285 144.49 167.995 144.9 167.762C145.311 167.529 145.768 167.412 146.272 167.412C146.86 167.412 147.346 167.529 147.728 167.762C148.12 167.995 148.419 168.322 148.624 168.742C148.83 169.162 148.932 169.652 148.932 170.212V175H147.434V170.408C147.434 170.063 147.369 169.773 147.238 169.54C147.117 169.297 146.94 169.115 146.706 168.994C146.473 168.863 146.193 168.798 145.866 168.798C145.502 168.798 145.18 168.896 144.9 169.092C144.62 169.279 144.401 169.535 144.242 169.862C144.084 170.179 144.004 170.539 144.004 170.94V175H142.506ZM158.41 175.224C157.747 175.224 157.14 175.103 156.59 174.86C156.048 174.608 155.572 174.249 155.162 173.782C154.76 173.315 154.448 172.765 154.224 172.13C154.009 171.486 153.902 170.772 153.902 169.988C153.902 169.204 154.018 168.495 154.252 167.86C154.485 167.216 154.812 166.661 155.232 166.194C155.652 165.727 156.146 165.373 156.716 165.13C157.285 164.878 157.906 164.752 158.578 164.752C159.67 164.752 160.584 165.004 161.322 165.508C162.068 166.012 162.54 166.717 162.736 167.622L161.266 168.014C161.154 167.641 160.981 167.319 160.748 167.048C160.514 166.777 160.211 166.572 159.838 166.432C159.474 166.283 159.054 166.208 158.578 166.208C158.148 166.208 157.742 166.292 157.36 166.46C156.986 166.619 156.655 166.857 156.366 167.174C156.086 167.491 155.862 167.888 155.694 168.364C155.535 168.831 155.456 169.372 155.456 169.988C155.456 170.604 155.535 171.145 155.694 171.612C155.852 172.079 156.072 172.475 156.352 172.802C156.632 173.119 156.954 173.362 157.318 173.53C157.691 173.689 158.088 173.768 158.508 173.768C158.937 173.768 159.32 173.703 159.656 173.572C160.001 173.441 160.295 173.259 160.538 173.026C160.79 172.783 160.99 172.503 161.14 172.186C161.289 171.859 161.387 171.509 161.434 171.136H158.55V169.792H162.918V175H161.504V173.6H161.419C161.289 173.843 161.126 174.062 160.93 174.258C160.734 174.454 160.51 174.627 160.257 174.776C160.006 174.916 159.726 175.023 159.418 175.098C159.11 175.182 158.774 175.224 158.41 175.224ZM167.942 175.224C167.205 175.224 166.566 175.061 166.024 174.734C165.483 174.398 165.063 173.936 164.764 173.348C164.475 172.76 164.33 172.083 164.33 171.318C164.33 170.543 164.475 169.867 164.764 169.288C165.063 168.7 165.483 168.243 166.024 167.916C166.566 167.58 167.205 167.412 167.942 167.412C168.689 167.412 169.328 167.58 169.86 167.916C170.402 168.243 170.817 168.7 171.106 169.288C171.405 169.867 171.554 170.543 171.554 171.318C171.554 172.083 171.405 172.76 171.106 173.348C170.817 173.936 170.402 174.398 169.86 174.734C169.328 175.061 168.689 175.224 167.942 175.224ZM167.942 173.838C168.362 173.838 168.731 173.74 169.048 173.544C169.366 173.348 169.613 173.063 169.79 172.69C169.968 172.307 170.056 171.85 170.056 171.318C170.056 170.777 169.968 170.319 169.79 169.946C169.613 169.573 169.366 169.288 169.048 169.092C168.731 168.896 168.367 168.798 167.956 168.798C167.536 168.798 167.168 168.896 166.85 169.092C166.533 169.288 166.281 169.573 166.094 169.946C165.917 170.319 165.828 170.777 165.828 171.318C165.828 171.859 165.917 172.317 166.094 172.69C166.281 173.063 166.533 173.348 166.85 173.544C167.177 173.74 167.541 173.838 167.942 173.838ZM176.337 175.224C175.599 175.224 174.96 175.061 174.419 174.734C173.877 174.398 173.457 173.936 173.159 173.348C172.869 172.76 172.725 172.083 172.725 171.318C172.725 170.543 172.869 169.867 173.159 169.288C173.457 168.7 173.877 168.243 174.419 167.916C174.96 167.58 175.599 167.412 176.337 167.412C177.083 167.412 177.723 167.58 178.255 167.916C178.796 168.243 179.211 168.7 179.501 169.288C179.799 169.867 179.949 170.543 179.949 171.318C179.949 172.083 179.799 172.76 179.501 173.348C179.211 173.936 178.796 174.398 178.255 174.734C177.723 175.061 177.083 175.224 176.337 175.224ZM176.337 173.838C176.757 173.838 177.125 173.74 177.443 173.544C177.76 173.348 178.007 173.063 178.185 172.69C178.362 172.307 178.451 171.85 178.451 171.318C178.451 170.777 178.362 170.319 178.185 169.946C178.007 169.573 177.76 169.288 177.443 169.092C177.125 168.896 176.761 168.798 176.351 168.798C175.931 168.798 175.562 168.896 175.245 169.092C174.927 169.288 174.675 169.573 174.489 169.946C174.311 170.319 174.223 170.777 174.223 171.318C174.223 171.859 174.311 172.317 174.489 172.69C174.675 173.063 174.927 173.348 175.245 173.544C175.571 173.74 175.935 173.838 176.337 173.838ZM184.563 178.248C183.966 178.248 183.439 178.145 182.981 177.94C182.524 177.744 182.155 177.473 181.875 177.128C181.595 176.783 181.409 176.4 181.315 175.98L182.771 175.644C182.883 176.008 183.089 176.307 183.387 176.54C183.686 176.783 184.078 176.904 184.563 176.904C185.226 176.904 185.725 176.703 186.061 176.302C186.397 175.901 186.565 175.345 186.565 174.636V173.796H186.481C186.239 174.16 185.935 174.445 185.571 174.65C185.217 174.846 184.759 174.944 184.199 174.944C183.639 174.944 183.121 174.799 182.645 174.51C182.179 174.211 181.801 173.782 181.511 173.222C181.222 172.662 181.077 171.981 181.077 171.178C181.077 170.375 181.222 169.694 181.511 169.134C181.801 168.574 182.183 168.149 182.659 167.86C183.145 167.561 183.672 167.412 184.241 167.412C184.755 167.412 185.203 167.51 185.585 167.706C185.968 167.902 186.267 168.173 186.481 168.518H186.565V167.636H187.993V174.608C187.993 175.392 187.853 176.055 187.573 176.596C187.293 177.147 186.897 177.557 186.383 177.828C185.87 178.108 185.263 178.248 184.563 178.248ZM184.577 173.572C184.941 173.572 185.273 173.483 185.571 173.306C185.87 173.129 186.108 172.863 186.285 172.508C186.472 172.153 186.565 171.71 186.565 171.178C186.565 170.646 186.472 170.203 186.285 169.848C186.108 169.493 185.87 169.227 185.571 169.05C185.273 168.873 184.941 168.784 184.577 168.784C184.213 168.784 183.877 168.873 183.569 169.05C183.271 169.227 183.028 169.493 182.841 169.848C182.664 170.203 182.575 170.646 182.575 171.178C182.575 171.71 182.664 172.153 182.841 172.508C183.028 172.863 183.271 173.129 183.569 173.306C183.877 173.483 184.213 173.572 184.577 173.572ZM189.961 175V164.136H191.473V175H189.961ZM196.514 175.224C195.804 175.224 195.184 175.061 194.652 174.734C194.129 174.398 193.723 173.936 193.434 173.348C193.154 172.76 193.014 172.088 193.014 171.332C193.014 170.548 193.163 169.862 193.462 169.274C193.76 168.686 194.171 168.229 194.694 167.902C195.226 167.575 195.832 167.412 196.514 167.412C197.26 167.412 197.881 167.552 198.376 167.832C198.88 168.112 199.258 168.513 199.51 169.036C199.771 169.559 199.902 170.184 199.902 170.912C199.902 171.043 199.897 171.173 199.888 171.304C199.888 171.425 199.878 171.537 199.86 171.64H194.484C194.512 172.06 194.596 172.424 194.736 172.732C194.913 173.105 195.16 173.39 195.478 173.586C195.795 173.782 196.159 173.88 196.57 173.88C197.083 173.88 197.48 173.768 197.76 173.544C198.049 173.311 198.259 173.021 198.39 172.676L199.706 173.026C199.519 173.661 199.164 174.188 198.642 174.608C198.119 175.019 197.41 175.224 196.514 175.224ZM194.54 170.506H198.418C198.399 170.226 198.348 169.974 198.264 169.75C198.18 169.526 198.058 169.335 197.9 169.176C197.741 169.017 197.545 168.896 197.312 168.812C197.088 168.728 196.826 168.686 196.528 168.686C196.126 168.686 195.767 168.789 195.45 168.994C195.142 169.19 194.904 169.484 194.736 169.876C194.652 170.063 194.586 170.273 194.54 170.506Z" fill="#1F1F1F"/>
<rect x="26" y="74" width="16" height="44" fill="#F538A0" fill-opacity="0.3"/>
<rect x="201" y="74" width="16" height="44" fill="#F538A0" fill-opacity="0.3"/>
<rect x="62" y="74" width="12" height="44" fill="#F538A0" fill-opacity="0.3"/>
<path d="M2.85294 97.96V97.12L5.30094 93.272H6.42094V96.984H7.09294V97.96H6.42094V99H5.38894V97.96H2.85294ZM5.38894 96.984V94.84H5.32494L3.96494 96.984H5.38894ZM7.892 97.96V97.12L10.34 93.272H11.46V96.984H12.132V97.96H11.46V99H10.428V97.96H7.892ZM10.428 96.984V94.84H10.364L9.004 96.984H10.428Z" fill="#8430CE"/>
<path d="M28.0042 174V173.04C28.2069 172.88 28.3935 172.731 28.5642 172.592C28.7402 172.448 28.9002 172.315 29.0442 172.192C29.1935 172.064 29.3295 171.944 29.4522 171.832C29.5749 171.72 29.6842 171.613 29.7802 171.512C29.8815 171.411 29.9695 171.312 30.0442 171.216C30.1615 171.067 30.2549 170.923 30.3242 170.784C30.3935 170.645 30.4442 170.504 30.4762 170.36C30.5082 170.216 30.5242 170.067 30.5242 169.912C30.5242 169.752 30.4895 169.613 30.4202 169.496C30.3509 169.379 30.2549 169.288 30.1322 169.224C30.0149 169.155 29.8762 169.12 29.7162 169.12C29.5615 169.12 29.4229 169.152 29.3002 169.216C29.1829 169.28 29.0869 169.373 29.0122 169.496C28.9375 169.613 28.8842 169.76 28.8522 169.936L27.8682 169.848C27.8895 169.608 27.9482 169.384 28.0442 169.176C28.1402 168.968 28.2682 168.787 28.4282 168.632C28.5882 168.477 28.7775 168.357 28.9962 168.272C29.2149 168.187 29.4602 168.144 29.7322 168.144C30.1215 168.144 30.4522 168.213 30.7242 168.352C31.0015 168.485 31.2122 168.68 31.3562 168.936C31.5055 169.192 31.5802 169.501 31.5802 169.864C31.5802 170.104 31.5482 170.336 31.4842 170.56C31.4255 170.779 31.3402 170.989 31.2282 171.192C31.1215 171.389 30.9935 171.581 30.8442 171.768C30.7695 171.864 30.6895 171.957 30.6042 172.048C30.5189 172.139 30.4282 172.229 30.3322 172.32C30.2415 172.405 30.1482 172.491 30.0522 172.576C29.9562 172.656 29.8575 172.736 29.7562 172.816C29.6549 172.896 29.5535 172.973 29.4522 173.048L29.4762 173.088H31.7242V174H28.0042ZM34.8208 174.128C34.4581 174.128 34.1355 174.056 33.8528 173.912C33.5701 173.768 33.3301 173.565 33.1328 173.304C32.9408 173.037 32.7941 172.72 32.6928 172.352C32.5915 171.984 32.5408 171.576 32.5408 171.128C32.5408 170.691 32.5915 170.288 32.6928 169.92C32.7941 169.552 32.9408 169.237 33.1328 168.976C33.3301 168.709 33.5701 168.504 33.8528 168.36C34.1355 168.216 34.4581 168.144 34.8208 168.144C35.1835 168.144 35.5061 168.216 35.7888 168.36C36.0715 168.504 36.3088 168.709 36.5008 168.976C36.6981 169.237 36.8475 169.552 36.9488 169.92C37.0501 170.288 37.1008 170.691 37.1008 171.128C37.1008 171.576 37.0501 171.984 36.9488 172.352C36.8475 172.72 36.6981 173.037 36.5008 173.304C36.3088 173.565 36.0715 173.768 35.7888 173.912C35.5061 174.056 35.1835 174.128 34.8208 174.128ZM34.8128 173.152C35.0795 173.152 35.3035 173.075 35.4848 172.92C35.6715 172.765 35.8128 172.539 35.9088 172.24C36.0048 171.936 36.0528 171.568 36.0528 171.136C36.0528 170.699 36.0048 170.331 35.9088 170.032C35.8128 169.733 35.6715 169.507 35.4848 169.352C35.3035 169.197 35.0795 169.12 34.8128 169.12C34.5515 169.12 34.3275 169.197 34.1408 169.352C33.9595 169.507 33.8208 169.733 33.7248 170.032C33.6341 170.331 33.5888 170.699 33.5888 171.136C33.5888 171.568 33.6341 171.936 33.7248 172.24C33.8208 172.539 33.9595 172.765 34.1408 172.92C34.3275 173.075 34.5515 173.152 34.8128 173.152Z" fill="#8430CE"/>
<path d="M47.0042 191V190.04C47.2069 189.88 47.3935 189.731 47.5642 189.592C47.7402 189.448 47.9002 189.315 48.0442 189.192C48.1935 189.064 48.3295 188.944 48.4522 188.832C48.5749 188.72 48.6842 188.613 48.7802 188.512C48.8815 188.411 48.9695 188.312 49.0442 188.216C49.1615 188.067 49.2549 187.923 49.3242 187.784C49.3935 187.645 49.4442 187.504 49.4762 187.36C49.5082 187.216 49.5242 187.067 49.5242 186.912C49.5242 186.752 49.4895 186.613 49.4202 186.496C49.3509 186.379 49.2549 186.288 49.1322 186.224C49.0149 186.155 48.8762 186.12 48.7162 186.12C48.5615 186.12 48.4229 186.152 48.3002 186.216C48.1829 186.28 48.0869 186.373 48.0122 186.496C47.9375 186.613 47.8842 186.76 47.8522 186.936L46.8682 186.848C46.8895 186.608 46.9482 186.384 47.0442 186.176C47.1402 185.968 47.2682 185.787 47.4282 185.632C47.5882 185.477 47.7775 185.357 47.9962 185.272C48.2149 185.187 48.4602 185.144 48.7322 185.144C49.1215 185.144 49.4522 185.213 49.7242 185.352C50.0015 185.485 50.2122 185.68 50.3562 185.936C50.5055 186.192 50.5802 186.501 50.5802 186.864C50.5802 187.104 50.5482 187.336 50.4842 187.56C50.4255 187.779 50.3402 187.989 50.2282 188.192C50.1215 188.389 49.9935 188.581 49.8442 188.768C49.7695 188.864 49.6895 188.957 49.6042 189.048C49.5189 189.139 49.4282 189.229 49.3322 189.32C49.2415 189.405 49.1482 189.491 49.0522 189.576C48.9562 189.656 48.8575 189.736 48.7562 189.816C48.6549 189.896 48.5535 189.973 48.4522 190.048L48.4762 190.088H50.7242V191H47.0042ZM53.8208 191.128C53.4581 191.128 53.1355 191.056 52.8528 190.912C52.5701 190.768 52.3301 190.565 52.1328 190.304C51.9408 190.037 51.7941 189.72 51.6928 189.352C51.5915 188.984 51.5408 188.576 51.5408 188.128C51.5408 187.691 51.5915 187.288 51.6928 186.92C51.7941 186.552 51.9408 186.237 52.1328 185.976C52.3301 185.709 52.5701 185.504 52.8528 185.36C53.1355 185.216 53.4581 185.144 53.8208 185.144C54.1835 185.144 54.5061 185.216 54.7888 185.36C55.0715 185.504 55.3088 185.709 55.5008 185.976C55.6981 186.237 55.8475 186.552 55.9488 186.92C56.0501 187.288 56.1008 187.691 56.1008 188.128C56.1008 188.576 56.0501 188.984 55.9488 189.352C55.8475 189.72 55.6981 190.037 55.5008 190.304C55.3088 190.565 55.0715 190.768 54.7888 190.912C54.5061 191.056 54.1835 191.128 53.8208 191.128ZM53.8128 190.152C54.0795 190.152 54.3035 190.075 54.4848 189.92C54.6715 189.765 54.8128 189.539 54.9088 189.24C55.0048 188.936 55.0528 188.568 55.0528 188.136C55.0528 187.699 55.0048 187.331 54.9088 187.032C54.8128 186.733 54.6715 186.507 54.4848 186.352C54.3035 186.197 54.0795 186.12 53.8128 186.12C53.5515 186.12 53.3275 186.197 53.1408 186.352C52.9595 186.507 52.8208 186.733 52.7248 187.032C52.6341 187.331 52.5888 187.699 52.5888 188.136C52.5888 188.568 52.6341 188.936 52.7248 189.24C52.8208 189.539 52.9595 189.765 53.1408 189.92C53.3275 190.075 53.5515 190.152 53.8128 190.152Z" fill="#8430CE"/>
<path d="M32.1056 136V131.6L30.8336 132.544V131.392L32.3616 130.272H33.1536V136H32.1056ZM36.2869 136.128C35.9616 136.128 35.6709 136.069 35.4149 135.952C35.1589 135.835 34.9376 135.669 34.7509 135.456C34.5856 135.264 34.4576 135.035 34.3669 134.768C34.2816 134.496 34.2389 134.197 34.2389 133.872C34.2389 133.515 34.2842 133.168 34.3749 132.832C34.4656 132.496 34.6016 132.179 34.7829 131.88C34.9269 131.635 35.0976 131.405 35.2949 131.192C35.4922 130.979 35.7136 130.784 35.9589 130.608C36.2096 130.427 36.4842 130.269 36.7829 130.136L37.3109 130.952C37.0869 131.053 36.8736 131.171 36.6709 131.304C36.4736 131.432 36.2896 131.576 36.1189 131.736C35.9482 131.896 35.7989 132.072 35.6709 132.264C35.5429 132.451 35.4389 132.653 35.3589 132.872L35.4069 132.912C35.5082 132.757 35.6576 132.64 35.8549 132.56C36.0522 132.48 36.2469 132.44 36.4389 132.44C36.7002 132.44 36.9376 132.483 37.1509 132.568C37.3696 132.653 37.5589 132.776 37.7189 132.936C37.8789 133.091 38.0016 133.28 38.0869 133.504C38.1776 133.723 38.2229 133.968 38.2229 134.24C38.2229 134.603 38.1322 134.928 37.9509 135.216C37.7749 135.499 37.5402 135.723 37.2469 135.888C36.9536 136.048 36.6336 136.128 36.2869 136.128ZM36.2869 135.168C36.4576 135.168 36.6096 135.131 36.7429 135.056C36.8762 134.981 36.9829 134.875 37.0629 134.736C37.1429 134.597 37.1829 134.432 37.1829 134.24C37.1829 134.048 37.1429 133.883 37.0629 133.744C36.9829 133.605 36.8762 133.501 36.7429 133.432C36.6096 133.357 36.4576 133.32 36.2869 133.32C36.1216 133.32 35.9696 133.357 35.8309 133.432C35.6976 133.501 35.5909 133.605 35.5109 133.744C35.4309 133.883 35.3909 134.048 35.3909 134.24C35.3909 134.432 35.4309 134.597 35.5109 134.736C35.5909 134.875 35.6976 134.981 35.8309 135.056C35.9696 135.131 36.1216 135.168 36.2869 135.168Z" fill="#8430CE"/>
<path d="M207.106 136V131.6L205.834 132.544V131.392L207.362 130.272H208.154V136H207.106ZM211.287 136.128C210.962 136.128 210.671 136.069 210.415 135.952C210.159 135.835 209.938 135.669 209.751 135.456C209.586 135.264 209.458 135.035 209.367 134.768C209.282 134.496 209.239 134.197 209.239 133.872C209.239 133.515 209.284 133.168 209.375 132.832C209.466 132.496 209.602 132.179 209.783 131.88C209.927 131.635 210.098 131.405 210.295 131.192C210.492 130.979 210.714 130.784 210.959 130.608C211.21 130.427 211.484 130.269 211.783 130.136L212.311 130.952C212.087 131.053 211.874 131.171 211.671 131.304C211.474 131.432 211.29 131.576 211.119 131.736C210.948 131.896 210.799 132.072 210.671 132.264C210.543 132.451 210.439 132.653 210.359 132.872L210.407 132.912C210.508 132.757 210.658 132.64 210.855 132.56C211.052 132.48 211.247 132.44 211.439 132.44C211.7 132.44 211.938 132.483 212.151 132.568C212.37 132.653 212.559 132.776 212.719 132.936C212.879 133.091 213.002 133.28 213.087 133.504C213.178 133.723 213.223 133.968 213.223 134.24C213.223 134.603 213.132 134.928 212.951 135.216C212.775 135.499 212.54 135.723 212.247 135.888C211.954 136.048 211.634 136.128 211.287 136.128ZM211.287 135.168C211.458 135.168 211.61 135.131 211.743 135.056C211.876 134.981 211.983 134.875 212.063 134.736C212.143 134.597 212.183 134.432 212.183 134.24C212.183 134.048 212.143 133.883 212.063 133.744C211.983 133.605 211.876 133.501 211.743 133.432C211.61 133.357 211.458 133.32 211.287 133.32C211.122 133.32 210.97 133.357 210.831 133.432C210.698 133.501 210.591 133.605 210.511 133.744C210.431 133.883 210.391 134.048 210.391 134.24C210.391 134.432 210.431 134.597 210.511 134.736C210.591 134.875 210.698 134.981 210.831 135.056C210.97 135.131 211.122 135.168 211.287 135.168Z" fill="#8430CE"/>
<path d="M66.1095 135V130.6L64.8375 131.544V130.392L66.3655 129.272H67.1575V135H66.1095ZM68.4339 135V134.04C68.6365 133.88 68.8232 133.731 68.9939 133.592C69.1699 133.448 69.3299 133.315 69.4739 133.192C69.6232 133.064 69.7592 132.944 69.8819 132.832C70.0045 132.72 70.1139 132.613 70.2099 132.512C70.3112 132.411 70.3992 132.312 70.4739 132.216C70.5912 132.067 70.6845 131.923 70.7539 131.784C70.8232 131.645 70.8739 131.504 70.9059 131.36C70.9379 131.216 70.9539 131.067 70.9539 130.912C70.9539 130.752 70.9192 130.613 70.8499 130.496C70.7805 130.379 70.6845 130.288 70.5619 130.224C70.4445 130.155 70.3059 130.12 70.1459 130.12C69.9912 130.12 69.8525 130.152 69.7299 130.216C69.6125 130.28 69.5165 130.373 69.4419 130.496C69.3672 130.613 69.3139 130.76 69.2819 130.936L68.2979 130.848C68.3192 130.608 68.3779 130.384 68.4739 130.176C68.5699 129.968 68.6979 129.787 68.8579 129.632C69.0179 129.477 69.2072 129.357 69.4259 129.272C69.6445 129.187 69.8899 129.144 70.1619 129.144C70.5512 129.144 70.8819 129.213 71.1539 129.352C71.4312 129.485 71.6419 129.68 71.7859 129.936C71.9352 130.192 72.0099 130.501 72.0099 130.864C72.0099 131.104 71.9779 131.336 71.9139 131.56C71.8552 131.779 71.7699 131.989 71.6579 132.192C71.5512 132.389 71.4232 132.581 71.2739 132.768C71.1992 132.864 71.1192 132.957 71.0339 133.048C70.9485 133.139 70.8579 133.229 70.7619 133.32C70.6712 133.405 70.5779 133.491 70.4819 133.576C70.3859 133.656 70.2872 133.736 70.1859 133.816C70.0845 133.896 69.9832 133.973 69.8819 134.048L69.9059 134.088H72.1539V135H68.4339Z" fill="#8430CE"/>
<path d="M12 74H22" stroke="#8430CE"/>
<path d="M17 74L17 118" stroke="#8430CE"/>
<path d="M12 118H22" stroke="#8430CE"/>
<path d="M34 118V126" stroke="#8430CE"/>
<path d="M209 118V126" stroke="#8430CE"/>
<path d="M68 118V126" stroke="#8430CE"/>
<path d="M77.016 191.128C76.648 191.128 76.3067 191.059 75.992 190.92C75.6827 190.776 75.4107 190.573 75.176 190.312C74.9413 190.045 74.76 189.731 74.632 189.368C74.504 189 74.44 188.589 74.44 188.136C74.44 187.683 74.5067 187.275 74.64 186.912C74.7787 186.544 74.968 186.229 75.208 185.968C75.4533 185.701 75.7413 185.499 76.072 185.36C76.408 185.216 76.7707 185.144 77.16 185.144C77.7947 185.144 78.3333 185.288 78.776 185.576C79.2187 185.859 79.4933 186.269 79.6 186.808L78.552 187.088C78.488 186.885 78.3947 186.717 78.272 186.584C78.1493 186.445 77.9947 186.341 77.808 186.272C77.6213 186.203 77.4027 186.168 77.152 186.168C76.928 186.168 76.7173 186.211 76.52 186.296C76.3227 186.381 76.1493 186.507 76 186.672C75.8507 186.837 75.7333 187.043 75.648 187.288C75.5627 187.533 75.52 187.816 75.52 188.136C75.52 188.456 75.56 188.739 75.64 188.984C75.7253 189.229 75.84 189.435 75.984 189.6C76.1333 189.765 76.304 189.891 76.496 189.976C76.6933 190.061 76.904 190.104 77.128 190.104C77.3413 190.104 77.536 190.075 77.712 190.016C77.888 189.952 78.04 189.864 78.168 189.752C78.3013 189.64 78.408 189.507 78.488 189.352C78.5733 189.197 78.6293 189.024 78.656 188.832H77.136V187.92H79.712V191H78.72V190.296H78.656C78.5707 190.435 78.472 190.557 78.36 190.664C78.248 190.765 78.1253 190.851 77.992 190.92C77.8587 190.989 77.7093 191.04 77.544 191.072C77.384 191.109 77.208 191.128 77.016 191.128ZM80.9618 191V185.272H82.3458L83.8018 189.288H83.8658L85.3138 185.272H86.7058V191H85.6418V188.192L85.7058 187.256H85.6418L84.2498 191H83.4178L82.0178 187.256H81.9538L82.0178 188.192V191H80.9618ZM89.6543 191.128C89.3129 191.128 88.9983 191.067 88.7103 190.944C88.4276 190.816 88.1929 190.627 88.0063 190.376C87.8249 190.125 87.7103 189.816 87.6623 189.448L88.6943 189.24C88.7369 189.517 88.8409 189.733 89.0063 189.888C89.1769 190.043 89.3929 190.12 89.6543 190.12C89.8303 190.12 89.9849 190.088 90.1183 190.024C90.2516 189.96 90.3529 189.867 90.4223 189.744C90.4969 189.621 90.5343 189.475 90.5343 189.304C90.5343 189.133 90.4943 188.984 90.4143 188.856C90.3343 188.728 90.2196 188.629 90.0703 188.56C89.9263 188.485 89.7529 188.448 89.5503 188.448H89.0943V187.536H89.5182C89.6889 187.536 89.8383 187.512 89.9663 187.464C90.0943 187.411 90.1956 187.331 90.2703 187.224C90.3449 187.112 90.3823 186.971 90.3823 186.8C90.3823 186.597 90.3129 186.429 90.1743 186.296C90.0409 186.157 89.8543 186.088 89.6143 186.088C89.4649 186.088 89.3316 186.12 89.2143 186.184C89.0969 186.243 89.0009 186.325 88.9263 186.432C88.8569 186.533 88.8089 186.645 88.7823 186.768L87.7743 186.656C87.8223 186.373 87.9236 186.12 88.0783 185.896C88.2329 185.667 88.4409 185.485 88.7023 185.352C88.9636 185.213 89.2729 185.144 89.6303 185.144C89.9876 185.144 90.2996 185.211 90.5663 185.344C90.8329 185.477 91.0383 185.661 91.1823 185.896C91.3316 186.125 91.4062 186.389 91.4062 186.688C91.4062 186.901 91.3716 187.083 91.3023 187.232C91.2383 187.381 91.1529 187.509 91.0463 187.616C90.9449 187.723 90.8329 187.816 90.7103 187.896V187.96C90.8863 188.035 91.0383 188.136 91.1663 188.264C91.2996 188.387 91.4036 188.541 91.4783 188.728C91.5529 188.909 91.5903 189.128 91.5903 189.384C91.5903 189.704 91.5103 189.997 91.3503 190.264C91.1956 190.525 90.9743 190.736 90.6863 190.896C90.3983 191.051 90.0543 191.128 89.6543 191.128ZM91.9609 191L93.8249 185.272H94.8569L92.9929 191H91.9609ZM95.5634 191V185.272H96.6354V189.976H99.3074V191H95.5634ZM101.489 191.128C101.191 191.128 100.932 191.072 100.713 190.96C100.495 190.848 100.327 190.691 100.209 190.488C100.092 190.285 100.033 190.048 100.033 189.776C100.033 189.493 100.105 189.253 100.249 189.056C100.393 188.853 100.588 188.699 100.833 188.592C101.084 188.485 101.361 188.432 101.665 188.432C101.799 188.432 101.927 188.437 102.049 188.448C102.172 188.459 102.295 188.475 102.417 188.496C102.545 188.517 102.673 188.541 102.801 188.568V188.232C102.801 188.013 102.724 187.837 102.569 187.704C102.415 187.571 102.196 187.504 101.913 187.504C101.705 187.504 101.524 187.557 101.369 187.664C101.215 187.765 101.108 187.909 101.049 188.096L100.137 187.904C100.201 187.621 100.321 187.389 100.497 187.208C100.679 187.027 100.892 186.891 101.137 186.8C101.388 186.709 101.652 186.664 101.929 186.664C102.564 186.664 103.039 186.808 103.353 187.096C103.668 187.384 103.825 187.805 103.825 188.36V191H102.801V190.584H102.737C102.657 190.685 102.556 190.779 102.433 190.864C102.311 190.944 102.169 191.008 102.009 191.056C101.855 191.104 101.681 191.128 101.489 191.128ZM101.753 190.312C101.977 190.312 102.167 190.267 102.321 190.176C102.476 190.085 102.593 189.968 102.673 189.824C102.759 189.675 102.801 189.515 102.801 189.344C102.652 189.296 102.492 189.259 102.321 189.232C102.151 189.2 101.983 189.184 101.817 189.184C101.556 189.184 101.367 189.24 101.249 189.352C101.132 189.459 101.073 189.597 101.073 189.768C101.073 189.928 101.137 190.059 101.265 190.16C101.393 190.261 101.556 190.312 101.753 190.312ZM107.255 191.128C107.047 191.128 106.863 191.099 106.703 191.04C106.543 190.987 106.405 190.915 106.287 190.824C106.175 190.728 106.079 190.624 105.999 190.512H105.935V191H104.951V184.792H105.999V186.664L105.935 187.288H105.999C106.063 187.181 106.154 187.08 106.271 186.984C106.389 186.888 106.53 186.811 106.695 186.752C106.861 186.693 107.047 186.664 107.255 186.664C107.613 186.664 107.93 186.752 108.207 186.928C108.49 187.099 108.714 187.349 108.879 187.68C109.045 188.011 109.127 188.416 109.127 188.896C109.127 189.371 109.045 189.776 108.879 190.112C108.714 190.443 108.49 190.696 108.207 190.872C107.93 191.043 107.613 191.128 107.255 191.128ZM107.007 190.152C107.21 190.152 107.391 190.104 107.551 190.008C107.717 189.912 107.845 189.771 107.935 189.584C108.031 189.392 108.079 189.163 108.079 188.896C108.079 188.624 108.031 188.395 107.935 188.208C107.845 188.021 107.717 187.88 107.551 187.784C107.391 187.688 107.21 187.64 107.007 187.64C106.805 187.64 106.621 187.688 106.455 187.784C106.295 187.88 106.167 188.021 106.071 188.208C105.981 188.395 105.935 188.624 105.935 188.896C105.935 189.163 105.981 189.392 106.071 189.584C106.167 189.771 106.295 189.912 106.455 190.008C106.621 190.104 106.805 190.152 107.007 190.152ZM111.869 191.128C111.448 191.128 111.082 191.037 110.773 190.856C110.464 190.675 110.224 190.416 110.053 190.08C109.882 189.744 109.797 189.349 109.797 188.896C109.797 188.437 109.885 188.043 110.061 187.712C110.242 187.376 110.49 187.117 110.805 186.936C111.12 186.755 111.477 186.664 111.877 186.664C112.32 186.664 112.685 186.747 112.973 186.912C113.266 187.072 113.485 187.304 113.629 187.608C113.773 187.907 113.845 188.264 113.845 188.68C113.845 188.76 113.842 188.84 113.837 188.92C113.837 189 113.832 189.072 113.821 189.136H110.805C110.826 189.323 110.872 189.485 110.941 189.624C111.037 189.816 111.168 189.96 111.333 190.056C111.504 190.152 111.696 190.2 111.909 190.2C112.154 190.2 112.352 190.141 112.501 190.024C112.656 189.901 112.768 189.755 112.837 189.584L113.749 189.832C113.621 190.216 113.402 190.528 113.093 190.768C112.789 191.008 112.381 191.128 111.869 191.128ZM110.853 188.392H112.845C112.834 188.259 112.805 188.139 112.757 188.032C112.714 187.92 112.65 187.827 112.565 187.752C112.485 187.672 112.386 187.613 112.269 187.576C112.157 187.533 112.029 187.512 111.885 187.512C111.677 187.512 111.49 187.565 111.325 187.672C111.16 187.779 111.032 187.936 110.941 188.144C110.904 188.219 110.874 188.301 110.853 188.392ZM114.772 191V184.792H115.82V191H114.772ZM116.414 191L118.278 185.272H119.31L117.446 191H116.414ZM120.017 191V185.272H121.089V189.976H123.761V191H120.017ZM125.942 191.128C125.644 191.128 125.385 191.072 125.166 190.96C124.948 190.848 124.78 190.691 124.662 190.488C124.545 190.285 124.486 190.048 124.486 189.776C124.486 189.493 124.558 189.253 124.702 189.056C124.846 188.853 125.041 188.699 125.286 188.592C125.537 188.485 125.814 188.432 126.118 188.432C126.252 188.432 126.38 188.437 126.502 188.448C126.625 188.459 126.748 188.475 126.87 188.496C126.998 188.517 127.126 188.541 127.254 188.568V188.232C127.254 188.013 127.177 187.837 127.022 187.704C126.868 187.571 126.649 187.504 126.366 187.504C126.158 187.504 125.977 187.557 125.822 187.664C125.668 187.765 125.561 187.909 125.502 188.096L124.59 187.904C124.654 187.621 124.774 187.389 124.95 187.208C125.132 187.027 125.345 186.891 125.59 186.8C125.841 186.709 126.105 186.664 126.382 186.664C127.017 186.664 127.492 186.808 127.806 187.096C128.121 187.384 128.278 187.805 128.278 188.36V191H127.254V190.584H127.19C127.11 190.685 127.009 190.779 126.886 190.864C126.764 190.944 126.622 191.008 126.462 191.056C126.308 191.104 126.134 191.128 125.942 191.128ZM126.206 190.312C126.43 190.312 126.62 190.267 126.774 190.176C126.929 190.085 127.046 189.968 127.126 189.824C127.212 189.675 127.254 189.515 127.254 189.344C127.105 189.296 126.945 189.259 126.774 189.232C126.604 189.2 126.436 189.184 126.27 189.184C126.009 189.184 125.82 189.24 125.702 189.352C125.585 189.459 125.526 189.597 125.526 189.768C125.526 189.928 125.59 190.059 125.718 190.16C125.846 190.261 126.009 190.312 126.206 190.312ZM129.404 191V186.792H130.388V187.336H130.452C130.511 187.208 130.588 187.093 130.684 186.992C130.786 186.891 130.903 186.811 131.036 186.752C131.175 186.693 131.33 186.664 131.5 186.664C131.602 186.664 131.684 186.669 131.748 186.68C131.812 186.691 131.868 186.701 131.916 186.712V187.752C131.842 187.72 131.756 187.693 131.66 187.672C131.564 187.651 131.455 187.64 131.332 187.64C131.162 187.64 131.01 187.683 130.876 187.768C130.743 187.853 130.639 187.976 130.564 188.136C130.49 188.296 130.452 188.485 130.452 188.704V191H129.404ZM134.336 192.856C133.963 192.856 133.638 192.797 133.36 192.68C133.088 192.563 132.867 192.4 132.696 192.192C132.531 191.989 132.419 191.757 132.36 191.496L133.408 191.28C133.467 191.472 133.571 191.627 133.72 191.744C133.875 191.867 134.08 191.928 134.336 191.928C134.667 191.928 134.923 191.824 135.104 191.616C135.286 191.408 135.376 191.112 135.376 190.728V190.408H135.312C135.163 190.595 134.992 190.736 134.8 190.832C134.614 190.923 134.371 190.968 134.072 190.968C133.752 190.968 133.456 190.883 133.184 190.712C132.912 190.536 132.694 190.288 132.528 189.968C132.363 189.648 132.28 189.264 132.28 188.816C132.28 188.368 132.363 187.984 132.528 187.664C132.694 187.339 132.912 187.091 133.184 186.92C133.456 186.749 133.752 186.664 134.072 186.664C134.35 186.664 134.592 186.712 134.8 186.808C135.014 186.899 135.184 187.037 135.312 187.224H135.376V186.792H136.376V190.696C136.376 191.139 136.296 191.523 136.136 191.848C135.976 192.173 135.744 192.421 135.44 192.592C135.136 192.768 134.768 192.856 134.336 192.856ZM134.352 190.008C134.539 190.008 134.71 189.963 134.864 189.872C135.019 189.781 135.142 189.648 135.232 189.472C135.328 189.296 135.376 189.077 135.376 188.816C135.376 188.555 135.328 188.336 135.232 188.16C135.142 187.984 135.019 187.851 134.864 187.76C134.71 187.669 134.539 187.624 134.352 187.624C134.166 187.624 133.995 187.669 133.84 187.76C133.686 187.851 133.56 187.984 133.464 188.16C133.374 188.336 133.328 188.555 133.328 188.816C133.328 189.077 133.374 189.296 133.464 189.472C133.56 189.648 133.686 189.781 133.84 189.872C133.995 189.963 134.166 190.008 134.352 190.008ZM139.26 191.128C138.838 191.128 138.473 191.037 138.164 190.856C137.854 190.675 137.614 190.416 137.444 190.08C137.273 189.744 137.188 189.349 137.188 188.896C137.188 188.437 137.276 188.043 137.452 187.712C137.633 187.376 137.881 187.117 138.196 186.936C138.51 186.755 138.868 186.664 139.268 186.664C139.71 186.664 140.076 186.747 140.364 186.912C140.657 187.072 140.876 187.304 141.02 187.608C141.164 187.907 141.236 188.264 141.236 188.68C141.236 188.76 141.233 188.84 141.228 188.92C141.228 189 141.222 189.072 141.212 189.136H138.196C138.217 189.323 138.262 189.485 138.332 189.624C138.428 189.816 138.558 189.96 138.724 190.056C138.894 190.152 139.086 190.2 139.3 190.2C139.545 190.2 139.742 190.141 139.892 190.024C140.046 189.901 140.158 189.755 140.228 189.584L141.14 189.832C141.012 190.216 140.793 190.528 140.484 190.768C140.18 191.008 139.772 191.128 139.26 191.128ZM138.244 188.392H140.236C140.225 188.259 140.196 188.139 140.148 188.032C140.105 187.92 140.041 187.827 139.956 187.752C139.876 187.672 139.777 187.613 139.66 187.576C139.548 187.533 139.42 187.512 139.276 187.512C139.068 187.512 138.881 187.565 138.716 187.672C138.55 187.779 138.422 187.936 138.332 188.144C138.294 188.219 138.265 188.301 138.244 188.392ZM75.672 201V196.6L74.4 197.544V196.392L75.928 195.272H76.72V201H75.672ZM77.7983 199.96V199.12L80.2463 195.272H81.3663V198.984H82.0383V199.96H81.3663V201H80.3343V199.96H77.7983ZM80.3343 198.984V196.84H80.2703L78.9103 198.984H80.3343ZM82.4453 201L84.3093 195.272H85.3413L83.4773 201H82.4453ZM85.8558 201V200.04C86.0584 199.88 86.2451 199.731 86.4158 199.592C86.5918 199.448 86.7518 199.315 86.8958 199.192C87.0451 199.064 87.1811 198.944 87.3038 198.832C87.4264 198.72 87.5358 198.613 87.6318 198.512C87.7331 198.411 87.8211 198.312 87.8958 198.216C88.0131 198.067 88.1064 197.923 88.1758 197.784C88.2451 197.645 88.2958 197.504 88.3278 197.36C88.3598 197.216 88.3758 197.067 88.3758 196.912C88.3758 196.752 88.3411 196.613 88.2718 196.496C88.2024 196.379 88.1064 196.288 87.9838 196.224C87.8664 196.155 87.7278 196.12 87.5678 196.12C87.4131 196.12 87.2744 196.152 87.1518 196.216C87.0344 196.28 86.9384 196.373 86.8638 196.496C86.7891 196.613 86.7358 196.76 86.7038 196.936L85.7198 196.848C85.7411 196.608 85.7998 196.384 85.8958 196.176C85.9918 195.968 86.1198 195.787 86.2798 195.632C86.4398 195.477 86.6291 195.357 86.8478 195.272C87.0664 195.187 87.3118 195.144 87.5838 195.144C87.9731 195.144 88.3038 195.213 88.5758 195.352C88.8531 195.485 89.0638 195.68 89.2078 195.936C89.3571 196.192 89.4318 196.501 89.4318 196.864C89.4318 197.104 89.3998 197.336 89.3358 197.56C89.2771 197.779 89.1918 197.989 89.0798 198.192C88.9731 198.389 88.8451 198.581 88.6958 198.768C88.6211 198.864 88.5411 198.957 88.4558 199.048C88.3704 199.139 88.2798 199.229 88.1838 199.32C88.0931 199.405 87.9998 199.491 87.9038 199.576C87.8078 199.656 87.7091 199.736 87.6078 199.816C87.5064 199.896 87.4051 199.973 87.3038 200.048L87.3278 200.088H89.5758V201H85.8558ZM92.6724 201.128C92.3097 201.128 91.987 201.056 91.7044 200.912C91.4217 200.768 91.1817 200.565 90.9844 200.304C90.7924 200.037 90.6457 199.72 90.5444 199.352C90.443 198.984 90.3924 198.576 90.3924 198.128C90.3924 197.691 90.443 197.288 90.5444 196.92C90.6457 196.552 90.7924 196.237 90.9844 195.976C91.1817 195.709 91.4217 195.504 91.7044 195.36C91.987 195.216 92.3097 195.144 92.6724 195.144C93.035 195.144 93.3577 195.216 93.6404 195.36C93.923 195.504 94.1604 195.709 94.3524 195.976C94.5497 196.237 94.699 196.552 94.8004 196.92C94.9017 197.288 94.9524 197.691 94.9524 198.128C94.9524 198.576 94.9017 198.984 94.8004 199.352C94.699 199.72 94.5497 200.037 94.3524 200.304C94.1604 200.565 93.923 200.768 93.6404 200.912C93.3577 201.056 93.035 201.128 92.6724 201.128ZM92.6644 200.152C92.931 200.152 93.155 200.075 93.3364 199.92C93.523 199.765 93.6644 199.539 93.7604 199.24C93.8564 198.936 93.9044 198.568 93.9044 198.136C93.9044 197.699 93.8564 197.331 93.7604 197.032C93.6644 196.733 93.523 196.507 93.3364 196.352C93.155 196.197 92.931 196.12 92.6644 196.12C92.403 196.12 92.179 196.197 91.9924 196.352C91.811 196.507 91.6724 196.733 91.5764 197.032C91.4857 197.331 91.4404 197.699 91.4404 198.136C91.4404 198.568 91.4857 198.936 91.5764 199.24C91.6724 199.539 91.811 199.765 91.9924 199.92C92.179 200.075 92.403 200.152 92.6644 200.152Z" fill="#8430CE"/>
<path d="M74 180H201" stroke="#8430CE"/>
<rect x="42.5" y="160.5" width="19" height="19" stroke="#8430CE"/>
<path d="M11.8529 24.96V24.12L14.3009 20.272H15.4209V23.984H16.0929V24.96H15.4209V26H14.3889V24.96H11.8529ZM14.3889 23.984V21.84H14.3249L12.9649 23.984H14.3889ZM16.892 24.96V24.12L19.34 20.272H20.46V23.984H21.132V24.96H20.46V26H19.428V24.96H16.892ZM19.428 23.984V21.84H19.364L18.004 23.984H19.428Z" fill="#8430CE"/>
<path d="M43.8529 52.96V52.12L46.3009 48.272H47.4209V51.984H48.0929V52.96H47.4209V54H46.3889V52.96H43.8529ZM46.3889 51.984V49.84H46.3249L44.9649 51.984H46.3889ZM48.892 52.96V52.12L51.34 48.272H52.46V51.984H53.132V52.96H52.46V54H51.428V52.96H48.892ZM51.428 51.984V49.84H51.364L50.004 51.984H51.428Z" fill="#8430CE"/>
<rect x="26.5" y="0.5" width="43" height="43" stroke="#8430CE"/>
<rect x="26" y="222" width="191" height="44" rx="22" fill="white"/>
<g clip-path="url(#clip3_819_5511)">
<path d="M61.6 244.227C61.6 243.518 61.5364 242.836 61.4182 242.182H52V246.05H57.3818C57.15 247.3 56.4455 248.359 55.3864 249.068V251.577H58.6182C60.5091 249.836 61.6 247.273 61.6 244.227V244.227Z" fill="#4285F4"/>
<path d="M52 254C54.7 254 56.9636 253.105 58.6182 251.578L55.3864 249.069C54.4909 249.669 53.3454 250.023 52 250.023C49.3954 250.023 47.1909 248.264 46.4045 245.9H43.0636V248.491C44.7091 251.759 48.0909 254 52 254Z" fill="#34A853"/>
<path d="M46.4045 245.9C46.2045 245.3 46.0909 244.659 46.0909 244C46.0909 243.341 46.2045 242.7 46.4045 242.1V239.509H43.0636C42.3864 240.859 42 242.386 42 244C42 245.613 42.3864 247.141 43.0636 248.491L46.4045 245.9V245.9Z" fill="#FBBC05"/>
<path d="M52 237.977C53.4682 237.977 54.7864 238.482 55.8227 239.473L58.6909 236.605C56.9591 234.991 54.6954 234 52 234C48.0909 234 44.7091 236.241 43.0636 239.509L46.4045 242.1C47.1909 239.736 49.3954 237.977 52 237.977Z" fill="#EA4335"/>
</g>
<path d="M78.396 249.224C77.7147 249.224 77.108 249.107 76.576 248.874C76.044 248.641 75.6053 248.295 75.26 247.838C74.924 247.381 74.6953 246.821 74.574 246.158L76.114 245.822C76.2167 246.401 76.4593 246.872 76.842 247.236C77.2247 247.591 77.7473 247.768 78.41 247.768C78.8113 247.768 79.1613 247.707 79.46 247.586C79.768 247.465 80.006 247.292 80.174 247.068C80.342 246.835 80.426 246.569 80.426 246.27C80.426 245.953 80.3513 245.691 80.202 245.486C80.062 245.281 79.8333 245.103 79.516 244.954C79.208 244.795 78.7973 244.641 78.284 244.492L77.542 244.254C77.2247 244.161 76.912 244.044 76.604 243.904C76.296 243.764 76.016 243.587 75.764 243.372C75.512 243.157 75.3113 242.896 75.162 242.588C75.0127 242.28 74.938 241.916 74.938 241.496C74.938 240.983 75.0733 240.521 75.344 240.11C75.6147 239.69 75.9973 239.359 76.492 239.116C76.996 238.873 77.5933 238.752 78.284 238.752C78.984 238.752 79.5767 238.869 80.062 239.102C80.5473 239.335 80.9253 239.657 81.196 240.068C81.476 240.469 81.6487 240.927 81.714 241.44L80.258 241.664C80.202 241.365 80.09 241.104 79.922 240.88C79.754 240.656 79.5347 240.483 79.264 240.362C79.0027 240.241 78.6807 240.18 78.298 240.18C77.9433 240.18 77.626 240.236 77.346 240.348C77.066 240.451 76.8467 240.595 76.688 240.782C76.5293 240.969 76.45 241.188 76.45 241.44C76.45 241.813 76.6133 242.121 76.94 242.364C77.2667 242.597 77.752 242.812 78.396 243.008L79.124 243.232C79.516 243.353 79.88 243.493 80.216 243.652C80.5613 243.811 80.86 244.007 81.112 244.24C81.3733 244.473 81.5787 244.753 81.728 245.08C81.8773 245.397 81.952 245.785 81.952 246.242C81.952 246.727 81.8587 247.157 81.672 247.53C81.4853 247.903 81.224 248.216 80.888 248.468C80.5613 248.72 80.1833 248.907 79.754 249.028C79.3247 249.159 78.872 249.224 78.396 249.224ZM83.649 249V241.636H85.147V249H83.649ZM84.405 240.11C84.125 240.11 83.8823 240.012 83.677 239.816C83.481 239.611 83.383 239.368 83.383 239.088C83.383 238.799 83.481 238.556 83.677 238.36C83.8823 238.164 84.125 238.066 84.405 238.066C84.685 238.066 84.923 238.164 85.119 238.36C85.3243 238.556 85.427 238.799 85.427 239.088C85.427 239.368 85.3243 239.611 85.119 239.816C84.923 240.012 84.685 240.11 84.405 240.11ZM90.1316 252.248C89.5343 252.248 89.0069 252.145 88.5496 251.94C88.0923 251.744 87.7236 251.473 87.4436 251.128C87.1636 250.783 86.9769 250.4 86.8836 249.98L88.3396 249.644C88.4516 250.008 88.6569 250.307 88.9556 250.54C89.2543 250.783 89.6463 250.904 90.1316 250.904C90.7943 250.904 91.2936 250.703 91.6296 250.302C91.9656 249.901 92.1336 249.345 92.1336 248.636V247.796H92.0496C91.8069 248.16 91.5036 248.445 91.1396 248.65C90.7849 248.846 90.3276 248.944 89.7676 248.944C89.2076 248.944 88.6896 248.799 88.2136 248.51C87.7469 248.211 87.3689 247.782 87.0796 247.222C86.7903 246.662 86.6456 245.981 86.6456 245.178C86.6456 244.375 86.7903 243.694 87.0796 243.134C87.3689 242.574 87.7516 242.149 88.2276 241.86C88.7129 241.561 89.2403 241.412 89.8096 241.412C90.3229 241.412 90.7709 241.51 91.1536 241.706C91.5363 241.902 91.8349 242.173 92.0496 242.518H92.1336V241.636H93.5616V248.608C93.5616 249.392 93.4216 250.055 93.1416 250.596C92.8616 251.147 92.4649 251.557 91.9516 251.828C91.4383 252.108 90.8316 252.248 90.1316 252.248ZM90.1456 247.572C90.5096 247.572 90.8409 247.483 91.1396 247.306C91.4383 247.129 91.6763 246.863 91.8536 246.508C92.0403 246.153 92.1336 245.71 92.1336 245.178C92.1336 244.646 92.0403 244.203 91.8536 243.848C91.6763 243.493 91.4383 243.227 91.1396 243.05C90.8409 242.873 90.5096 242.784 90.1456 242.784C89.7816 242.784 89.4456 242.873 89.1376 243.05C88.8389 243.227 88.5963 243.493 88.4096 243.848C88.2323 244.203 88.1436 244.646 88.1436 245.178C88.1436 245.71 88.2323 246.153 88.4096 246.508C88.5963 246.863 88.8389 247.129 89.1376 247.306C89.4456 247.483 89.7816 247.572 90.1456 247.572ZM95.5298 249V241.636H96.9438V242.574H97.0278C97.2238 242.229 97.5131 241.949 97.8958 241.734C98.2878 241.519 98.7265 241.412 99.2118 241.412C100.052 241.412 100.691 241.659 101.13 242.154C101.578 242.649 101.802 243.335 101.802 244.212V249H100.29V244.408C100.29 243.857 100.15 243.451 99.8698 243.19C99.5991 242.929 99.2445 242.798 98.8058 242.798C98.4418 242.798 98.1245 242.891 97.8538 243.078C97.5925 243.255 97.3871 243.498 97.2378 243.806C97.0978 244.105 97.0278 244.441 97.0278 244.814V249H95.5298ZM107.356 249V241.636H108.854V249H107.356ZM108.112 240.11C107.832 240.11 107.589 240.012 107.384 239.816C107.188 239.611 107.09 239.368 107.09 239.088C107.09 238.799 107.188 238.556 107.384 238.36C107.589 238.164 107.832 238.066 108.112 238.066C108.392 238.066 108.63 238.164 108.826 238.36C109.031 238.556 109.134 238.799 109.134 239.088C109.134 239.368 109.031 239.611 108.826 239.816C108.63 240.012 108.392 240.11 108.112 240.11ZM110.897 249V241.636H112.311V242.574H112.395C112.591 242.229 112.88 241.949 113.263 241.734C113.655 241.519 114.094 241.412 114.579 241.412C115.419 241.412 116.058 241.659 116.497 242.154C116.945 242.649 117.169 243.335 117.169 244.212V249H115.657V244.408C115.657 243.857 115.517 243.451 115.237 243.19C114.966 242.929 114.612 242.798 114.173 242.798C113.809 242.798 113.492 242.891 113.221 243.078C112.96 243.255 112.754 243.498 112.605 243.806C112.465 244.105 112.395 244.441 112.395 244.814V249H110.897ZM124.011 249L121.897 241.636H123.507L124.823 246.872H124.879L126.363 241.636H127.889L129.373 246.858H129.429L130.745 241.636H132.327L130.199 249H128.631L127.119 243.652H127.063L125.565 249H124.011ZM133.551 249V241.636H135.049V249H133.551ZM134.307 240.11C134.027 240.11 133.785 240.012 133.579 239.816C133.383 239.611 133.285 239.368 133.285 239.088C133.285 238.799 133.383 238.556 133.579 238.36C133.785 238.164 134.027 238.066 134.307 238.066C134.587 238.066 134.825 238.164 135.021 238.36C135.227 238.556 135.329 238.799 135.329 239.088C135.329 239.368 135.227 239.611 135.021 239.816C134.825 240.012 134.587 240.11 134.307 240.11ZM136.45 241.636H137.64V239.62H139.138V241.636H140.818V242.952H139.138V246.662C139.138 246.998 139.213 247.255 139.362 247.432C139.511 247.609 139.74 247.698 140.048 247.698C140.216 247.698 140.361 247.679 140.482 247.642C140.603 247.595 140.725 247.535 140.846 247.46V248.916C140.697 248.972 140.533 249.019 140.356 249.056C140.188 249.093 139.987 249.112 139.754 249.112C139.11 249.112 138.597 248.921 138.214 248.538C137.831 248.146 137.64 247.609 137.64 246.928V242.952H136.45V241.636ZM142.506 249V238.136H144.004V241.524L143.92 242.63H144.004C144.191 242.285 144.49 241.995 144.9 241.762C145.311 241.529 145.768 241.412 146.272 241.412C146.86 241.412 147.346 241.529 147.728 241.762C148.12 241.995 148.419 242.322 148.624 242.742C148.83 243.162 148.932 243.652 148.932 244.212V249H147.434V244.408C147.434 244.063 147.369 243.773 147.238 243.54C147.117 243.297 146.94 243.115 146.706 242.994C146.473 242.863 146.193 242.798 145.866 242.798C145.502 242.798 145.18 242.896 144.9 243.092C144.62 243.279 144.401 243.535 144.242 243.862C144.084 244.179 144.004 244.539 144.004 244.94V249H142.506ZM158.41 249.224C157.747 249.224 157.14 249.103 156.59 248.86C156.048 248.608 155.572 248.249 155.162 247.782C154.76 247.315 154.448 246.765 154.224 246.13C154.009 245.486 153.902 244.772 153.902 243.988C153.902 243.204 154.018 242.495 154.252 241.86C154.485 241.216 154.812 240.661 155.232 240.194C155.652 239.727 156.146 239.373 156.716 239.13C157.285 238.878 157.906 238.752 158.578 238.752C159.67 238.752 160.584 239.004 161.322 239.508C162.068 240.012 162.54 240.717 162.736 241.622L161.266 242.014C161.154 241.641 160.981 241.319 160.748 241.048C160.514 240.777 160.211 240.572 159.838 240.432C159.474 240.283 159.054 240.208 158.578 240.208C158.148 240.208 157.742 240.292 157.36 240.46C156.986 240.619 156.655 240.857 156.366 241.174C156.086 241.491 155.862 241.888 155.694 242.364C155.535 242.831 155.456 243.372 155.456 243.988C155.456 244.604 155.535 245.145 155.694 245.612C155.852 246.079 156.072 246.475 156.352 246.802C156.632 247.119 156.954 247.362 157.318 247.53C157.691 247.689 158.088 247.768 158.508 247.768C158.937 247.768 159.32 247.703 159.656 247.572C160.001 247.441 160.295 247.259 160.538 247.026C160.79 246.783 160.99 246.503 161.14 246.186C161.289 245.859 161.387 245.509 161.434 245.136H158.55V243.792H162.918V249H161.504V247.6H161.419C161.289 247.843 161.126 248.062 160.93 248.258C160.734 248.454 160.51 248.627 160.257 248.776C160.006 248.916 159.726 249.023 159.418 249.098C159.11 249.182 158.774 249.224 158.41 249.224ZM167.942 249.224C167.205 249.224 166.566 249.061 166.024 248.734C165.483 248.398 165.063 247.936 164.764 247.348C164.475 246.76 164.33 246.083 164.33 245.318C164.33 244.543 164.475 243.867 164.764 243.288C165.063 242.7 165.483 242.243 166.024 241.916C166.566 241.58 167.205 241.412 167.942 241.412C168.689 241.412 169.328 241.58 169.86 241.916C170.402 242.243 170.817 242.7 171.106 243.288C171.405 243.867 171.554 244.543 171.554 245.318C171.554 246.083 171.405 246.76 171.106 247.348C170.817 247.936 170.402 248.398 169.86 248.734C169.328 249.061 168.689 249.224 167.942 249.224ZM167.942 247.838C168.362 247.838 168.731 247.74 169.048 247.544C169.366 247.348 169.613 247.063 169.79 246.69C169.968 246.307 170.056 245.85 170.056 245.318C170.056 244.777 169.968 244.319 169.79 243.946C169.613 243.573 169.366 243.288 169.048 243.092C168.731 242.896 168.367 242.798 167.956 242.798C167.536 242.798 167.168 242.896 166.85 243.092C166.533 243.288 166.281 243.573 166.094 243.946C165.917 244.319 165.828 244.777 165.828 245.318C165.828 245.859 165.917 246.317 166.094 246.69C166.281 247.063 166.533 247.348 166.85 247.544C167.177 247.74 167.541 247.838 167.942 247.838ZM176.337 249.224C175.599 249.224 174.96 249.061 174.419 248.734C173.877 248.398 173.457 247.936 173.159 247.348C172.869 246.76 172.725 246.083 172.725 245.318C172.725 244.543 172.869 243.867 173.159 243.288C173.457 242.7 173.877 242.243 174.419 241.916C174.96 241.58 175.599 241.412 176.337 241.412C177.083 241.412 177.723 241.58 178.255 241.916C178.796 242.243 179.211 242.7 179.501 243.288C179.799 243.867 179.949 244.543 179.949 245.318C179.949 246.083 179.799 246.76 179.501 247.348C179.211 247.936 178.796 248.398 178.255 248.734C177.723 249.061 177.083 249.224 176.337 249.224ZM176.337 247.838C176.757 247.838 177.125 247.74 177.443 247.544C177.76 247.348 178.007 247.063 178.185 246.69C178.362 246.307 178.451 245.85 178.451 245.318C178.451 244.777 178.362 244.319 178.185 243.946C178.007 243.573 177.76 243.288 177.443 243.092C177.125 242.896 176.761 242.798 176.351 242.798C175.931 242.798 175.562 242.896 175.245 243.092C174.927 243.288 174.675 243.573 174.489 243.946C174.311 244.319 174.223 244.777 174.223 245.318C174.223 245.859 174.311 246.317 174.489 246.69C174.675 247.063 174.927 247.348 175.245 247.544C175.571 247.74 175.935 247.838 176.337 247.838ZM184.563 252.248C183.966 252.248 183.439 252.145 182.981 251.94C182.524 251.744 182.155 251.473 181.875 251.128C181.595 250.783 181.409 250.4 181.315 249.98L182.771 249.644C182.883 250.008 183.089 250.307 183.387 250.54C183.686 250.783 184.078 250.904 184.563 250.904C185.226 250.904 185.725 250.703 186.061 250.302C186.397 249.901 186.565 249.345 186.565 248.636V247.796H186.481C186.239 248.16 185.935 248.445 185.571 248.65C185.217 248.846 184.759 248.944 184.199 248.944C183.639 248.944 183.121 248.799 182.645 248.51C182.179 248.211 181.801 247.782 181.511 247.222C181.222 246.662 181.077 245.981 181.077 245.178C181.077 244.375 181.222 243.694 181.511 243.134C181.801 242.574 182.183 242.149 182.659 241.86C183.145 241.561 183.672 241.412 184.241 241.412C184.755 241.412 185.203 241.51 185.585 241.706C185.968 241.902 186.267 242.173 186.481 242.518H186.565V241.636H187.993V248.608C187.993 249.392 187.853 250.055 187.573 250.596C187.293 251.147 186.897 251.557 186.383 251.828C185.87 252.108 185.263 252.248 184.563 252.248ZM184.577 247.572C184.941 247.572 185.273 247.483 185.571 247.306C185.87 247.129 186.108 246.863 186.285 246.508C186.472 246.153 186.565 245.71 186.565 245.178C186.565 244.646 186.472 244.203 186.285 243.848C186.108 243.493 185.87 243.227 185.571 243.05C185.273 242.873 184.941 242.784 184.577 242.784C184.213 242.784 183.877 242.873 183.569 243.05C183.271 243.227 183.028 243.493 182.841 243.848C182.664 244.203 182.575 244.646 182.575 245.178C182.575 245.71 182.664 246.153 182.841 246.508C183.028 246.863 183.271 247.129 183.569 247.306C183.877 247.483 184.213 247.572 184.577 247.572ZM189.961 249V238.136H191.473V249H189.961ZM196.514 249.224C195.804 249.224 195.184 249.061 194.652 248.734C194.129 248.398 193.723 247.936 193.434 247.348C193.154 246.76 193.014 246.088 193.014 245.332C193.014 244.548 193.163 243.862 193.462 243.274C193.76 242.686 194.171 242.229 194.694 241.902C195.226 241.575 195.832 241.412 196.514 241.412C197.26 241.412 197.881 241.552 198.376 241.832C198.88 242.112 199.258 242.513 199.51 243.036C199.771 243.559 199.902 244.184 199.902 244.912C199.902 245.043 199.897 245.173 199.888 245.304C199.888 245.425 199.878 245.537 199.86 245.64H194.484C194.512 246.06 194.596 246.424 194.736 246.732C194.913 247.105 195.16 247.39 195.478 247.586C195.795 247.782 196.159 247.88 196.57 247.88C197.083 247.88 197.48 247.768 197.76 247.544C198.049 247.311 198.259 247.021 198.39 246.676L199.706 247.026C199.519 247.661 199.164 248.188 198.642 248.608C198.119 249.019 197.41 249.224 196.514 249.224ZM194.54 244.506H198.418C198.399 244.226 198.348 243.974 198.264 243.75C198.18 243.526 198.058 243.335 197.9 243.176C197.741 243.017 197.545 242.896 197.312 242.812C197.088 242.728 196.826 242.686 196.528 242.686C196.126 242.686 195.767 242.789 195.45 242.994C195.142 243.19 194.904 243.484 194.736 243.876C194.652 244.063 194.586 244.273 194.54 244.506Z" fill="#1F1F1F"/>
<rect x="26" y="222" width="16" height="44" fill="#5AB3F0" fill-opacity="0.3"/>
<rect x="62" y="222" width="12" height="44" fill="#37BE5F" fill-opacity="0.3"/>
<rect width="12" height="191" transform="matrix(-1.02249e-09 -1 -1 1.86866e-06 217 234)" fill="#37BE5F" fill-opacity="0.3"/>
<rect x="26" y="266" width="11.9999" height="191" transform="rotate(-90 26 266)" fill="#37BE5F" fill-opacity="0.3"/>
<rect x="201" y="222" width="16" height="44" fill="#5AB3F0" fill-opacity="0.3"/>
<defs>
<clipPath id="clip0_819_5511">
<rect width="20" height="20" fill="white" transform="translate(42 86)"/>
</clipPath>
<clipPath id="clip1_819_5511">
<rect width="20" height="20" fill="white" transform="translate(38 12)"/>
</clipPath>
<clipPath id="clip2_819_5511">
<rect width="20" height="20" fill="white" transform="translate(42 160)"/>
</clipPath>
<clipPath id="clip3_819_5511">
<rect width="20" height="20" fill="white" transform="translate(42 234)"/>
</clipPath>
</defs>
</svg>
